<?xml version="1.0" encoding="utf-8" ?>
<svg baseProfile="tiny" height="100%" version="1.2" viewBox="0,0,500,500" width="100%" xmlns="http://www.w3.org/2000/svg" xmlns:ev="http://www.w3.org/2001/xml-events" xmlns:xlink="http://www.w3.org/1999/xlink"><defs /><circle cx="26.0" cy="120.0" fill="black" r="3" /><circle cx="86.0" cy="60.0" fill="black" r="3" /><circle cx="169.0" cy="110.0" fill="black" r="3" /><circle cx="64.0" cy="188.0" fill="black" r="3" /><circle cx="173.0" cy="159.0" fill="black" r="3" /><circle cx="145.0" cy="174.0" fill="black" r="3" /><circle cx="76.0" cy="105.0" fill="black" r="3" /><circle cx="196.0" cy="94.0" fill="black" r="3" /><circle cx="151.0" cy="109.0" fill="black" r="3" /><circle cx="65.0" cy="121.0" fill="black" r="3" /><circle cx="184.0" cy="77.0" fill="black" r="3" /><circle cx="100.0" cy="155.0" fill="black" r="3" /><circle cx="134.0" cy="109.0" fill="black" r="3" /><circle cx="55.0" cy="104.0" fill="black" r="3" /><circle cx="67.0" cy="59.0" fill="black" r="3" /><circle cx="94.0" cy="107.0" fill="black" r="3" /><circle cx="174.0" cy="62.0" fill="black" r="3" /><circle cx="126.0" cy="173.0" fill="black" r="3" /><circle cx="142.0" cy="39.0" fill="black" r="3" /><circle cx="162.0" cy="175.0" fill="black" r="3" /><circle cx="187.0" cy="110.0" fill="black" r="3" /><circle cx="63.0" cy="154.0" fill="black" r="3" /><circle cx="139.0" cy="62.0" fill="black" r="3" /><circle cx="114.0" cy="108.0" fill="black" r="3" /><circle cx="16.0" cy="101.0" fill="black" r="3" /><circle cx="138.0" cy="158.0" fill="black" r="3" /><circle cx="120.0" cy="156.0" fill="black" r="3" /><circle cx="157.0" cy="159.0" fill="black" r="3" /><circle cx="95.0" cy="76.0" fill="black" r="3" /><circle cx="177.0" cy="94.0" fill="black" r="3" /><circle cx="166.0" cy="78.0" fill="black" r="3" /><circle cx="58.0" cy="74.0" fill="black" r="3" /><circle cx="151.0" cy="190.0" fill="black" r="3" /><circle cx="114.0" cy="189.0" fill="black" r="3" /><circle cx="161.0" cy="47.0" fill="black" r="3" /><circle cx="113.0" cy="140.0" fill="black" r="3" /><circle cx="160.0" cy="94.0" fill="black" r="3" /><circle cx="66.0" cy="89.0" fill="black" r="3" /><circle cx="115.0" cy="77.0" fill="black" r="3" /><circle cx="185.0" cy="142.0" fill="black" r="3" /><circle cx="85.0" cy="91.0" fill="black" r="3" /><circle cx="128.0" cy="86.0" fill="black" r="3" /><circle cx="89.0" cy="35.0" fill="black" r="3" /><circle cx="81.0" cy="154.0" fill="black" r="3" /><circle cx="167.0" cy="142.0" fill="black" r="3" /><circle cx="37.0" cy="104.0" fill="black" r="3" /><circle cx="63.0" cy="44.0" fill="black" r="3" /><circle cx="104.0" cy="62.0" fill="black" r="3" /><circle cx="93.0" cy="139.0" fill="black" r="3" /><circle cx="156.0" cy="62.0" fill="black" r="3" /><circle cx="35.0" cy="137.0" fill="black" r="3" /><circle cx="131.0" cy="141.0" fill="black" r="3" /><circle cx="108.0" cy="173.0" fill="black" r="3" /><circle cx="124.0" cy="125.0" fill="black" r="3" /><circle cx="122.0" cy="62.0" fill="black" r="3" /><circle cx="80.0" cy="188.0" fill="black" r="3" /><circle cx="75.0" cy="75.0" fill="black" r="3" /><circle cx="60.0" cy="171.0" fill="black" r="3" /><circle cx="150.0" cy="141.0" fill="black" r="3" /><circle cx="195.0" cy="125.0" fill="black" r="3" /><circle cx="132.0" cy="189.0" fill="black" r="3" /><circle cx="112.0" cy="18.0" fill="black" r="3" /><circle cx="74.0" cy="138.0" fill="black" r="3" /><circle cx="149.0" cy="77.0" fill="black" r="3" /><circle cx="97.0" cy="188.0" fill="black" r="3" /><circle cx="106.0" cy="92.0" fill="black" r="3" /><circle cx="86.0" cy="123.0" fill="black" r="3" /><circle cx="160.0" cy="126.0" fill="black" r="3" /><circle cx="28.0" cy="86.0" fill="black" r="3" /><circle cx="89.0" cy="171.0" fill="black" r="3" /><circle cx="45.0" cy="154.0" fill="black" r="3" /><circle cx="143.0" cy="94.0" fill="black" r="3" /><circle cx="204.0" cy="110.0" fill="black" r="3" /><circle cx="105.0" cy="124.0" fill="black" r="3" /><circle cx="45.0" cy="120.0" fill="black" r="3" /><circle cx="52.0" cy="60.0" fill="black" r="3" /><circle cx="137.0" cy="18.0" fill="black" r="3" /><circle cx="55.0" cy="136.0" fill="black" r="3" /><circle cx="42.0" cy="73.0" fill="black" r="3" /><circle cx="177.0" cy="125.0" fill="black" r="3" /><circle cx="116.0" cy="41.0" fill="black" r="3" /><circle cx="143.0" cy="125.0" fill="black" r="3" /><circle cx="48.0" cy="88.0" fill="black" r="3" /><circle cx="218.0" cy="6.0" fill="black" r="3" /><circle cx="7.0" cy="5.0" fill="black" r="3" /><circle cx="217.0" cy="216.0" fill="black" r="3" /><circle cx="7.0" cy="216.0" fill="black" r="3" /><circle cx="1.0" cy="113.0" fill="black" r="3" /><line stroke="blue" stroke-width="2" x1="7.0" x2="7.0" y1="216.0" y2="5.0" /><line stroke="blue" stroke-width="2" x1="7.0" x2="217.0" y1="216.0" y2="216.0" /><line stroke="blue" stroke-width="2" x1="217.0" x2="218.0" y1="216.0" y2="6.0" /><line stroke="blue" stroke-width="2" x1="7.0" x2="218.0" y1="5.0" y2="6.0" /><line stroke="blue" stroke-width="2" x1="7.0" x2="112.0" y1="5.0" y2="18.0" /><line stroke="blue" stroke-width="2" x1="112.0" x2="137.0" y1="18.0" y2="18.0" /><line stroke="blue" stroke-width="2" x1="137.0" x2="218.0" y1="18.0" y2="6.0" /><line stroke="blue" stroke-width="2" x1="7.0" x2="16.0" y1="5.0" y2="101.0" /><line stroke="blue" stroke-width="2" x1="16.0" x2="1.0" y1="101.0" y2="113.0" /><line stroke="blue" stroke-width="2" x1="1.0" x2="7.0" y1="113.0" y2="216.0" /><line stroke="blue" stroke-width="2" x1="218.0" x2="196.0" y1="6.0" y2="94.0" /><line stroke="blue" stroke-width="2" x1="196.0" x2="204.0" y1="94.0" y2="110.0" /><line stroke="blue" stroke-width="2" x1="204.0" x2="217.0" y1="110.0" y2="216.0" /><path d="M7.0,5.0 Q6.0,216.0 217.0,216.0" fill="none" stroke="red" stroke-width="2" /><path d="M7.0,216.0 Q218.0,217.0 218.0,6.0" fill="none" stroke="red" stroke-width="2" /><line stroke="blue" stroke-width="2" x1="112.0" x2="116.0" y1="18.0" y2="41.0" /></svg>