<?xml version="1.0" encoding="utf-8" ?>
<svg baseProfile="tiny" height="100%" version="1.2" viewBox="0,0,500,500" width="100%" xmlns="http://www.w3.org/2000/svg" xmlns:ev="http://www.w3.org/2001/xml-events" xmlns:xlink="http://www.w3.org/1999/xlink"><defs /><circle cx="96.0" cy="127.0" fill="black" r="3" /><circle cx="97.0" cy="196.0" fill="black" r="3" /><circle cx="190.0" cy="127.0" fill="black" r="3" /><circle cx="190.0" cy="37.0" fill="black" r="3" /><circle cx="190.0" cy="106.0" fill="black" r="3" /><circle cx="190.0" cy="222.0" fill="black" r="3" /><circle cx="64.0" cy="28.0" fill="black" r="3" /><circle cx="190.0" cy="255.0" fill="black" r="3" /><circle cx="4.0" cy="51.0" fill="black" r="3" /><line stroke="blue" stroke-width="2" x1="97.0" x2="190.0" y1="196.0" y2="127.0" /><line stroke="blue" stroke-width="2" x1="96.0" x2="97.0" y1="127.0" y2="196.0" /><line stroke="blue" stroke-width="2" x1="64.0" x2="97.0" y1="28.0" y2="196.0" /><line stroke="blue" stroke-width="2" x1="96.0" x2="190.0" y1="127.0" y2="127.0" /><line stroke="blue" stroke-width="2" x1="64.0" x2="96.0" y1="28.0" y2="127.0" /><line stroke="blue" stroke-width="2" x1="97.0" x2="190.0" y1="196.0" y2="106.0" /><line stroke="blue" stroke-width="2" x1="96.0" x2="190.0" y1="127.0" y2="106.0" /><line stroke="blue" stroke-width="2" x1="64.0" x2="190.0" y1="28.0" y2="127.0" /><line stroke="blue" stroke-width="2" x1="4.0" x2="64.0" y1="51.0" y2="28.0" /><line stroke="blue" stroke-width="2" x1="64.0" x2="190.0" y1="28.0" y2="37.0" /><line stroke="blue" stroke-width="2" x1="190.0" x2="190.0" y1="37.0" y2="106.0" /><line stroke="blue" stroke-width="2" x1="190.0" x2="190.0" y1="106.0" y2="127.0" /><line stroke="blue" stroke-width="2" x1="190.0" x2="190.0" y1="127.0" y2="222.0" /><line stroke="blue" stroke-width="2" x1="190.0" x2="190.0" y1="222.0" y2="255.0" /></svg>