<?xml version="1.0" encoding="utf-8" ?>
<svg baseProfile="tiny" height="100%" version="1.2" viewBox="0,0,500,500" width="100%" xmlns="http://www.w3.org/2000/svg" xmlns:ev="http://www.w3.org/2001/xml-events" xmlns:xlink="http://www.w3.org/1999/xlink"><defs /><circle cx="320.0" cy="172.0" fill="black" r="3" /><circle cx="36.0" cy="175.0" fill="black" r="3" /><circle cx="225.0" cy="129.0" fill="black" r="3" /><circle cx="178.0" cy="124.0" fill="black" r="3" /><circle cx="178.0" cy="316.0" fill="black" r="3" /><circle cx="221.0" cy="222.0" fill="black" r="3" /><circle cx="175.0" cy="30.0" fill="black" r="3" /><circle cx="178.0" cy="218.0" fill="black" r="3" /><circle cx="128.0" cy="124.0" fill="black" r="3" /><circle cx="177.0" cy="199.0" fill="black" r="3" /><circle cx="130.0" cy="199.0" fill="black" r="3" /><circle cx="224.0" cy="199.0" fill="black" r="3" /><circle cx="177.0" cy="294.0" fill="black" r="3" /><circle cx="108.0" cy="269.0" fill="black" r="3" /><circle cx="57.0" cy="174.0" fill="black" r="3" /><circle cx="156.0" cy="174.0" fill="black" r="3" /><circle cx="82.0" cy="104.0" fill="black" r="3" /><circle cx="108.0" cy="174.0" fill="black" r="3" /><circle cx="177.0" cy="152.0" fill="black" r="3" /><circle cx="298.0" cy="174.0" fill="black" r="3" /><circle cx="272.0" cy="104.0" fill="black" r="3" /><circle cx="247.0" cy="174.0" fill="black" r="3" /><circle cx="273.0" cy="246.0" fill="black" r="3" /><circle cx="131.0" cy="149.0" fill="black" r="3" /><circle cx="108.0" cy="79.0" fill="black" r="3" /><circle cx="247.0" cy="79.0" fill="black" r="3" /><circle cx="83.0" cy="149.0" fill="black" r="3" /><circle cx="199.0" cy="79.0" fill="black" r="3" /><circle cx="199.0" cy="174.0" fill="black" r="3" /><circle cx="202.0" cy="268.0" fill="black" r="3" /><circle cx="160.0" cy="85.0" fill="black" r="3" /><circle cx="224.0" cy="152.0" fill="black" r="3" /><circle cx="272.0" cy="152.0" fill="black" r="3" /><circle cx="177.0" cy="54.0" fill="black" r="3" /><circle cx="250.0" cy="268.0" fill="black" r="3" /><circle cx="82.0" cy="243.0" fill="black" r="3" /><circle cx="153.0" cy="268.0" fill="black" r="3" /><circle cx="82.0" cy="199.0" fill="black" r="3" /><circle cx="273.0" cy="199.0" fill="black" r="3" /><circle cx="179.0" cy="81.0" fill="black" r="3" /><circle cx="179.0" cy="176.0" fill="black" r="3" /><circle cx="179.0" cy="266.0" fill="black" r="3" /><circle cx="132.0" cy="176.0" fill="black" r="3" /><circle cx="84.0" cy="176.0" fill="black" r="3" /><circle cx="132.0" cy="223.0" fill="black" r="3" /><circle cx="126.0" cy="72.0" fill="black" r="3" /><circle cx="85.0" cy="81.0" fill="black" r="3" /><circle cx="84.0" cy="223.0" fill="black" r="3" /><circle cx="268.0" cy="227.0" fill="black" r="3" /><circle cx="226.0" cy="81.0" fill="black" r="3" /><circle cx="274.0" cy="176.0" fill="black" r="3" /><circle cx="226.0" cy="176.0" fill="black" r="3" /><circle cx="274.0" cy="81.0" fill="black" r="3" /><circle cx="129.0" cy="270.0" fill="black" r="3" /><circle cx="81.0" cy="270.0" fill="black" r="3" /><circle cx="275.0" cy="270.0" fill="black" r="3" /><circle cx="227.0" cy="270.0" fill="black" r="3" /><circle cx="84.0" cy="128.0" fill="black" r="3" /><circle cx="264.0" cy="132.0" fill="black" r="3" /><circle cx="285.0" cy="209.0" fill="black" r="3" /><circle cx="284.0" cy="138.0" fill="black" r="3" /><circle cx="95.0" cy="209.0" fill="black" r="3" /><circle cx="213.0" cy="281.0" fill="black" r="3" /><circle cx="95.0" cy="114.0" fill="black" r="3" /><circle cx="142.0" cy="282.0" fill="black" r="3" /><circle cx="142.0" cy="92.0" fill="black" r="3" /><circle cx="213.0" cy="92.0" fill="black" r="3" /><circle cx="285.0" cy="114.0" fill="black" r="3" /><circle cx="70.0" cy="138.0" fill="black" r="3" /><circle cx="119.0" cy="92.0" fill="black" r="3" /><circle cx="289.0" cy="83.0" fill="black" r="3" /><circle cx="47.0" cy="162.0" fill="black" r="3" /><circle cx="70.0" cy="115.0" fill="black" r="3" /><circle cx="220.0" cy="254.0" fill="black" r="3" /><circle cx="119.0" cy="256.0" fill="black" r="3" /><circle cx="115.0" cy="131.0" fill="black" r="3" /><circle cx="135.0" cy="254.0" fill="black" r="3" /><circle cx="75.0" cy="65.0" fill="black" r="3" /><circle cx="236.0" cy="256.0" fill="black" r="3" /><circle cx="144.0" cy="213.0" fill="black" r="3" /><circle cx="71.0" cy="210.0" fill="black" r="3" /><circle cx="75.0" cy="284.0" fill="black" r="3" /><circle cx="308.0" cy="186.0" fill="black" r="3" /><circle cx="209.0" cy="131.0" fill="black" r="3" /><circle cx="265.0" cy="65.0" fill="black" r="3" /><circle cx="260.0" cy="210.0" fill="black" r="3" /><circle cx="216.0" cy="116.0" fill="black" r="3" /><circle cx="221.0" cy="64.0" fill="black" r="3" /><circle cx="166.0" cy="258.0" fill="black" r="3" /><circle cx="163.0" cy="128.0" fill="black" r="3" /><circle cx="162.0" cy="216.0" fill="black" r="3" /><line stroke="blue" stroke-width="2" x1="85.0" x2="95.0" y1="81.0" y2="114.0" /><line stroke="blue" stroke-width="2" x1="75.0" x2="119.0" y1="65.0" y2="92.0" /><line stroke="blue" stroke-width="2" x1="162.0" x2="225.0" y1="216.0" y2="129.0" /><line stroke="blue" stroke-width="2" x1="130.0" x2="156.0" y1="199.0" y2="174.0" /><line stroke="blue" stroke-width="2" x1="71.0" x2="131.0" y1="210.0" y2="149.0" /><line stroke="blue" stroke-width="2" x1="268.0" x2="275.0" y1="227.0" y2="270.0" /><line stroke="blue" stroke-width="2" x1="132.0" x2="156.0" y1="223.0" y2="174.0" /><line stroke="blue" stroke-width="2" x1="70.0" x2="144.0" y1="138.0" y2="213.0" /><line stroke="blue" stroke-width="2" x1="115.0" x2="178.0" y1="131.0" y2="218.0" /><line stroke="blue" stroke-width="2" x1="162.0" x2="199.0" y1="216.0" y2="174.0" /><line stroke="blue" stroke-width="2" x1="260.0" x2="320.0" y1="210.0" y2="172.0" /><line stroke="blue" stroke-width="2" x1="57.0" x2="84.0" y1="174.0" y2="128.0" /><line stroke="blue" stroke-width="2" x1="142.0" x2="177.0" y1="92.0" y2="54.0" /><line stroke="blue" stroke-width="2" x1="264.0" x2="289.0" y1="132.0" y2="83.0" /><line stroke="blue" stroke-width="2" x1="115.0" x2="177.0" y1="131.0" y2="199.0" /><line stroke="blue" stroke-width="2" x1="175.0" x2="199.0" y1="30.0" y2="79.0" /><line stroke="blue" stroke-width="2" x1="247.0" x2="285.0" y1="174.0" y2="209.0" /><line stroke="blue" stroke-width="2" x1="221.0" x2="284.0" y1="222.0" y2="138.0" /><line stroke="blue" stroke-width="2" x1="209.0" x2="285.0" y1="131.0" y2="209.0" /><line stroke="blue" stroke-width="2" x1="135.0" x2="177.0" y1="254.0" y2="294.0" /><line stroke="blue" stroke-width="2" x1="199.0" x2="221.0" y1="174.0" y2="222.0" /><line stroke="blue" stroke-width="2" x1="47.0" x2="95.0" y1="162.0" y2="209.0" /><line stroke="blue" stroke-width="2" x1="199.0" x2="224.0" y1="174.0" y2="199.0" /><line stroke="blue" stroke-width="2" x1="177.0" x2="166.0" y1="294.0" y2="258.0" /><line stroke="blue" stroke-width="2" x1="224.0" x2="284.0" y1="199.0" y2="138.0" /><line stroke="blue" stroke-width="2" x1="70.0" x2="126.0" y1="115.0" y2="72.0" /><line stroke="blue" stroke-width="2" x1="71.0" x2="108.0" y1="210.0" y2="269.0" /><line stroke="blue" stroke-width="2" x1="81.0" x2="84.0" y1="270.0" y2="223.0" /><line stroke="blue" stroke-width="2" x1="273.0" x2="272.0" y1="246.0" y2="152.0" /><line stroke="blue" stroke-width="2" x1="213.0" x2="247.0" y1="92.0" y2="79.0" /><line stroke="blue" stroke-width="2" x1="177.0" x2="202.0" y1="294.0" y2="268.0" /><line stroke="blue" stroke-width="2" x1="264.0" x2="308.0" y1="132.0" y2="186.0" /><line stroke="blue" stroke-width="2" x1="179.0" x2="177.0" y1="176.0" y2="152.0" /><line stroke="blue" stroke-width="2" x1="84.0" x2="108.0" y1="223.0" y2="269.0" /><line stroke="blue" stroke-width="2" x1="57.0" x2="95.0" y1="174.0" y2="209.0" /><line stroke="blue" stroke-width="2" x1="226.0" x2="221.0" y1="81.0" y2="64.0" /><line stroke="blue" stroke-width="2" x1="163.0" x2="199.0" y1="128.0" y2="174.0" /><line stroke="blue" stroke-width="2" x1="179.0" x2="227.0" y1="266.0" y2="270.0" /><line stroke="blue" stroke-width="2" x1="247.0" x2="285.0" y1="79.0" y2="114.0" /><line stroke="blue" stroke-width="2" x1="178.0" x2="220.0" y1="316.0" y2="254.0" /><line stroke="blue" stroke-width="2" x1="153.0" x2="202.0" y1="268.0" y2="268.0" /><line stroke="blue" stroke-width="2" x1="177.0" x2="179.0" y1="54.0" y2="81.0" /><line stroke="blue" stroke-width="2" x1="82.0" x2="84.0" y1="243.0" y2="223.0" /><line stroke="blue" stroke-width="2" x1="115.0" x2="178.0" y1="131.0" y2="124.0" /><line stroke="blue" stroke-width="2" x1="227.0" x2="268.0" y1="270.0" y2="227.0" /><line stroke="blue" stroke-width="2" x1="213.0" x2="221.0" y1="92.0" y2="64.0" /><line stroke="blue" stroke-width="2" x1="75.0" x2="119.0" y1="284.0" y2="256.0" /><line stroke="blue" stroke-width="2" x1="226.0" x2="224.0" y1="176.0" y2="199.0" /><line stroke="blue" stroke-width="2" x1="135.0" x2="178.0" y1="254.0" y2="316.0" /><line stroke="blue" stroke-width="2" x1="209.0" x2="247.0" y1="131.0" y2="174.0" /><line stroke="blue" stroke-width="2" x1="71.0" x2="178.0" y1="210.0" y2="218.0" /><line stroke="blue" stroke-width="2" x1="178.0" x2="177.0" y1="316.0" y2="294.0" /><line stroke="blue" stroke-width="2" x1="260.0" x2="285.0" y1="210.0" y2="209.0" /><line stroke="blue" stroke-width="2" x1="236.0" x2="275.0" y1="256.0" y2="270.0" /><line stroke="blue" stroke-width="2" x1="221.0" x2="272.0" y1="64.0" y2="104.0" /><line stroke="blue" stroke-width="2" x1="70.0" x2="95.0" y1="115.0" y2="114.0" /><line stroke="blue" stroke-width="2" x1="226.0" x2="225.0" y1="176.0" y2="129.0" /><line stroke="blue" stroke-width="2" x1="119.0" x2="126.0" y1="92.0" y2="72.0" /><line stroke="blue" stroke-width="2" x1="130.0" x2="131.0" y1="199.0" y2="149.0" /><line stroke="blue" stroke-width="2" x1="95.0" x2="144.0" y1="209.0" y2="213.0" /><line stroke="blue" stroke-width="2" x1="85.0" x2="126.0" y1="81.0" y2="72.0" /><line stroke="blue" stroke-width="2" x1="126.0" x2="179.0" y1="72.0" y2="81.0" /><line stroke="blue" stroke-width="2" x1="202.0" x2="227.0" y1="268.0" y2="270.0" /><line stroke="blue" stroke-width="2" x1="153.0" x2="177.0" y1="268.0" y2="294.0" /><line stroke="blue" stroke-width="2" x1="132.0" x2="144.0" y1="223.0" y2="213.0" /><line stroke="blue" stroke-width="2" x1="75.0" x2="108.0" y1="65.0" y2="79.0" /><line stroke="blue" stroke-width="2" x1="75.0" x2="108.0" y1="284.0" y2="269.0" /><line stroke="blue" stroke-width="2" x1="75.0" x2="175.0" y1="65.0" y2="30.0" /><line stroke="blue" stroke-width="2" x1="175.0" x2="177.0" y1="30.0" y2="54.0" /><line stroke="blue" stroke-width="2" x1="177.0" x2="221.0" y1="54.0" y2="64.0" /><line stroke="blue" stroke-width="2" x1="221.0" x2="265.0" y1="64.0" y2="65.0" /><line stroke="blue" stroke-width="2" x1="75.0" x2="142.0" y1="284.0" y2="282.0" /><line stroke="blue" stroke-width="2" x1="142.0" x2="177.0" y1="282.0" y2="294.0" /><line stroke="blue" stroke-width="2" x1="178.0" x2="213.0" y1="316.0" y2="281.0" /><line stroke="blue" stroke-width="2" x1="70.0" x2="70.0" y1="115.0" y2="138.0" /><line stroke="blue" stroke-width="2" x1="70.0" x2="47.0" y1="138.0" y2="162.0" /><line stroke="blue" stroke-width="2" x1="47.0" x2="57.0" y1="162.0" y2="174.0" /><line stroke="blue" stroke-width="2" x1="57.0" x2="36.0" y1="174.0" y2="175.0" /><line stroke="blue" stroke-width="2" x1="36.0" x2="71.0" y1="175.0" y2="210.0" /><line stroke="blue" stroke-width="2" x1="289.0" x2="285.0" y1="83.0" y2="114.0" /><line stroke="blue" stroke-width="2" x1="285.0" x2="320.0" y1="114.0" y2="172.0" /><line stroke="blue" stroke-width="2" x1="320.0" x2="298.0" y1="172.0" y2="174.0" /><line stroke="blue" stroke-width="2" x1="298.0" x2="308.0" y1="174.0" y2="186.0" /><line stroke="blue" stroke-width="2" x1="308.0" x2="285.0" y1="186.0" y2="209.0" /></svg>