<?xml version="1.0" encoding="utf-8" ?>
<svg baseProfile="tiny" height="100%" version="1.2" viewBox="0,0,500,500" width="100%" xmlns="http://www.w3.org/2000/svg" xmlns:ev="http://www.w3.org/2001/xml-events" xmlns:xlink="http://www.w3.org/1999/xlink"><defs /><circle cx="143.0" cy="57.0" fill="black" r="3" /><circle cx="40.0" cy="95.0" fill="black" r="3" /><circle cx="182.0" cy="133.0" fill="black" r="3" /><circle cx="181.0" cy="96.0" fill="black" r="3" /><circle cx="112.0" cy="200.0" fill="black" r="3" /><circle cx="113.0" cy="23.0" fill="black" r="3" /><circle cx="77.0" cy="166.0" fill="black" r="3" /><circle cx="148.0" cy="169.0" fill="black" r="3" /><circle cx="38.0" cy="130.0" fill="black" r="3" /><circle cx="97.0" cy="131.0" fill="black" r="3" /><circle cx="145.0" cy="149.0" fill="black" r="3" /><circle cx="112.0" cy="78.0" fill="black" r="3" /><circle cx="167.0" cy="90.0" fill="black" r="3" /><circle cx="167.0" cy="127.0" fill="black" r="3" /><circle cx="57.0" cy="91.0" fill="black" r="3" /><circle cx="108.0" cy="112.0" fill="black" r="3" /><circle cx="98.0" cy="167.0" fill="black" r="3" /><circle cx="71.0" cy="112.0" fill="black" r="3" /><circle cx="61.0" cy="130.0" fill="black" r="3" /><circle cx="76.0" cy="79.0" fill="black" r="3" /><circle cx="130.0" cy="164.0" fill="black" r="3" /><circle cx="112.0" cy="42.0" fill="black" r="3" /><circle cx="152.0" cy="75.0" fill="black" r="3" /><circle cx="145.0" cy="112.0" fill="black" r="3" /><circle cx="80.0" cy="59.0" fill="black" r="3" /><circle cx="134.0" cy="93.0" fill="black" r="3" /><circle cx="115.0" cy="59.0" fill="black" r="3" /><circle cx="112.0" cy="146.0" fill="black" r="3" /><circle cx="97.0" cy="93.0" fill="black" r="3" /><circle cx="127.0" cy="131.0" fill="black" r="3" /><circle cx="113.0" cy="163.0" fill="black" r="3" /><circle cx="78.0" cy="94.0" fill="black" r="3" /><circle cx="78.0" cy="128.0" fill="black" r="3" /><circle cx="151.0" cy="94.0" fill="black" r="3" /><circle cx="115.0" cy="94.0" fill="black" r="3" /><circle cx="151.0" cy="130.0" fill="black" r="3" /><circle cx="95.0" cy="60.0" fill="black" r="3" /><circle cx="58.0" cy="212.0" fill="black" r="3" /><circle cx="25.0" cy="213.0" fill="black" r="3" /><circle cx="68.0" cy="49.0" fill="black" r="3" /><line stroke="black" stroke-width="2" x1="61.0" x2="143.0" y1="130.0" y2="57.0" /><line stroke="black" stroke-width="2" x1="57.0" x2="148.0" y1="91.0" y2="169.0" /><line stroke="black" stroke-width="2" x1="80.0" x2="182.0" y1="59.0" y2="133.0" /><line stroke="black" stroke-width="2" x1="113.0" x2="181.0" y1="23.0" y2="96.0" /><line stroke="black" stroke-width="2" x1="68.0" x2="145.0" y1="49.0" y2="149.0" /><line stroke="black" stroke-width="2" x1="112.0" x2="167.0" y1="200.0" y2="127.0" /><line stroke="black" stroke-width="2" x1="40.0" x2="113.0" y1="95.0" y2="23.0" /><line stroke="black" stroke-width="2" x1="77.0" x2="115.0" y1="166.0" y2="94.0" /><line stroke="black" stroke-width="2" x1="98.0" x2="181.0" y1="167.0" y2="96.0" /><line stroke="black" stroke-width="2" x1="77.0" x2="152.0" y1="166.0" y2="75.0" /><line stroke="black" stroke-width="2" x1="68.0" x2="167.0" y1="49.0" y2="127.0" /><line stroke="black" stroke-width="2" x1="97.0" x2="148.0" y1="93.0" y2="169.0" /><line stroke="black" stroke-width="2" x1="77.0" x2="167.0" y1="166.0" y2="90.0" /><line stroke="black" stroke-width="2" x1="38.0" x2="143.0" y1="130.0" y2="57.0" /><line stroke="black" stroke-width="2" x1="40.0" x2="98.0" y1="95.0" y2="167.0" /><line stroke="black" stroke-width="2" x1="40.0" x2="130.0" y1="95.0" y2="164.0" /><line stroke="black" stroke-width="2" x1="112.0" x2="182.0" y1="200.0" y2="133.0" /><line stroke="black" stroke-width="2" x1="38.0" x2="112.0" y1="130.0" y2="42.0" /><line stroke="black" stroke-width="2" x1="77.0" x2="181.0" y1="166.0" y2="96.0" /><line stroke="black" stroke-width="2" x1="38.0" x2="112.0" y1="130.0" y2="200.0" /><line stroke="black" stroke-width="2" x1="38.0" x2="112.0" y1="130.0" y2="78.0" /><line stroke="black" stroke-width="2" x1="68.0" x2="127.0" y1="49.0" y2="131.0" /><line stroke="black" stroke-width="2" x1="108.0" x2="152.0" y1="112.0" y2="75.0" /><line stroke="black" stroke-width="2" x1="98.0" x2="167.0" y1="167.0" y2="90.0" /><line stroke="black" stroke-width="2" x1="68.0" x2="115.0" y1="49.0" y2="94.0" /><line stroke="black" stroke-width="2" x1="77.0" x2="112.0" y1="166.0" y2="200.0" /><line stroke="black" stroke-width="2" x1="57.0" x2="97.0" y1="91.0" y2="131.0" /><line stroke="black" stroke-width="2" x1="143.0" x2="181.0" y1="57.0" y2="96.0" /><line stroke="black" stroke-width="2" x1="130.0" x2="167.0" y1="164.0" y2="127.0" /><line stroke="black" stroke-width="2" x1="167.0" x2="182.0" y1="90.0" y2="133.0" /><line stroke="black" stroke-width="2" x1="148.0" x2="167.0" y1="169.0" y2="127.0" /><line stroke="black" stroke-width="2" x1="112.0" x2="112.0" y1="146.0" y2="200.0" /><line stroke="black" stroke-width="2" x1="25.0" x2="58.0" y1="213.0" y2="212.0" /><line stroke="black" stroke-width="2" x1="76.0" x2="113.0" y1="79.0" y2="23.0" /><line stroke="black" stroke-width="2" x1="77.0" x2="108.0" y1="166.0" y2="112.0" /><line stroke="black" stroke-width="2" x1="76.0" x2="145.0" y1="79.0" y2="149.0" /><line stroke="black" stroke-width="2" x1="167.0" x2="181.0" y1="127.0" y2="96.0" /><line stroke="black" stroke-width="2" x1="115.0" x2="112.0" y1="59.0" y2="42.0" /><line stroke="black" stroke-width="2" x1="76.0" x2="112.0" y1="79.0" y2="42.0" /><line stroke="black" stroke-width="2" x1="38.0" x2="57.0" y1="130.0" y2="91.0" /><line stroke="black" stroke-width="2" x1="152.0" x2="182.0" y1="75.0" y2="133.0" /><line stroke="black" stroke-width="2" x1="38.0" x2="40.0" y1="130.0" y2="95.0" /><line stroke="black" stroke-width="2" x1="57.0" x2="80.0" y1="91.0" y2="59.0" /><line stroke="black" stroke-width="2" x1="112.0" x2="130.0" y1="200.0" y2="164.0" /><line stroke="black" stroke-width="2" x1="152.0" x2="143.0" y1="75.0" y2="57.0" /><line stroke="black" stroke-width="2" x1="112.0" x2="113.0" y1="42.0" y2="23.0" /><line stroke="black" stroke-width="2" x1="58.0" x2="112.0" y1="212.0" y2="200.0" /><line stroke="black" stroke-width="2" x1="38.0" x2="25.0" y1="130.0" y2="213.0" /><line stroke="black" stroke-width="2" x1="167.0" x2="181.0" y1="90.0" y2="96.0" /><line stroke="black" stroke-width="2" x1="167.0" x2="182.0" y1="127.0" y2="133.0" /><path d="M68.0,49.0 Q0.0,224.0 148.0,169.0" fill="none" stroke="black" stroke-width="2" /><path d="M25.0,213.0 Q224.0,224.0 143.0,57.0" fill="none" stroke="black" stroke-width="2" /></svg>