<?xml version="1.0" encoding="utf-8" ?>
<svg baseProfile="tiny" height="100%" version="1.2" viewBox="0,0,500,500" width="100%" xmlns="http://www.w3.org/2000/svg" xmlns:ev="http://www.w3.org/2001/xml-events" xmlns:xlink="http://www.w3.org/1999/xlink"><defs /><circle cx="100.0" cy="100.0" fill="black" r="3" /><circle cx="100.0" cy="80.0" fill="black" r="3" /><circle cx="114.0" cy="86.0" fill="black" r="3" /><circle cx="120.0" cy="100.0" fill="black" r="3" /><circle cx="114.0" cy="114.0" fill="black" r="3" /><circle cx="100.0" cy="120.0" fill="black" r="3" /><circle cx="86.0" cy="114.0" fill="black" r="3" /><circle cx="80.0" cy="100.0" fill="black" r="3" /><circle cx="86.0" cy="86.0" fill="black" r="3" /><circle cx="100.0" cy="40.0" fill="black" r="3" /><circle cx="142.0" cy="58.0" fill="black" r="3" /><circle cx="160.0" cy="100.0" fill="black" r="3" /><circle cx="142.0" cy="142.0" fill="black" r="3" /><circle cx="100.0" cy="160.0" fill="black" r="3" /><circle cx="58.0" cy="142.0" fill="black" r="3" /><circle cx="40.0" cy="100.0" fill="black" r="3" /><circle cx="58.0" cy="58.0" fill="black" r="3" /><line stroke="black" stroke-width="2" x1="100.0" x2="100.0" y1="100.0" y2="80.0" /><line stroke="black" stroke-width="2" x1="100.0" x2="114.0" y1="100.0" y2="86.0" /><line stroke="black" stroke-width="2" x1="100.0" x2="120.0" y1="100.0" y2="100.0" /><line stroke="black" stroke-width="2" x1="100.0" x2="114.0" y1="100.0" y2="114.0" /><line stroke="black" stroke-width="2" x1="100.0" x2="100.0" y1="100.0" y2="120.0" /><line stroke="black" stroke-width="2" x1="100.0" x2="86.0" y1="100.0" y2="114.0" /><line stroke="black" stroke-width="2" x1="100.0" x2="80.0" y1="100.0" y2="100.0" /><line stroke="black" stroke-width="2" x1="100.0" x2="86.0" y1="100.0" y2="86.0" /><path d="M86.0,86.0 Q90.0,30.0 100.0,40.0" fill="none" stroke="black" stroke-width="2" /><path d="M100.0,40.0 Q110.0,30.0 114.0,86.0" fill="none" stroke="black" stroke-width="2" /><path d="M100.0,80.0 Q120.0,50.0 142.0,58.0" fill="none" stroke="black" stroke-width="2" /><path d="M142.0,58.0 Q150.0,80.0 120.0,100.0" fill="none" stroke="black" stroke-width="2" /><path d="M114.0,86.0 Q170.0,90.0 160.0,100.0" fill="none" stroke="black" stroke-width="2" /><path d="M160.0,100.0 Q170.0,110.0 114.0,114.0" fill="none" stroke="black" stroke-width="2" /><path d="M120.0,100.0 Q150.0,120.0 142.0,142.0" fill="none" stroke="black" stroke-width="2" /><path d="M142.0,142.0 Q120.0,150.0 100.0,120.0" fill="none" stroke="black" stroke-width="2" /><path d="M114.0,114.0 Q110.0,170.0 100.0,160.0" fill="none" stroke="black" stroke-width="2" /><path d="M100.0,160.0 Q90.0,170.0 86.0,114.0" fill="none" stroke="black" stroke-width="2" /><path d="M100.0,120.0 Q80.0,150.0 58.0,142.0" fill="none" stroke="black" stroke-width="2" /><path d="M58.0,142.0 Q50.0,120.0 80.0,100.0" fill="none" stroke="black" stroke-width="2" /><path d="M86.0,114.0 Q30.0,110.0 40.0,100.0" fill="none" stroke="black" stroke-width="2" /><path d="M40.0,100.0 Q30.0,90.0 86.0,86.0" fill="none" stroke="black" stroke-width="2" /><path d="M80.0,100.0 Q50.0,80.0 58.0,58.0" fill="none" stroke="black" stroke-width="2" /><path d="M58.0,58.0 Q80.0,50.0 100.0,80.0" fill="none" stroke="black" stroke-width="2" /></svg>