<?xml version="1.0" encoding="utf-8" ?>
<svg baseProfile="tiny" height="100%" version="1.2" viewBox="0,0,500,500" width="100%" xmlns="http://www.w3.org/2000/svg" xmlns:ev="http://www.w3.org/2001/xml-events" xmlns:xlink="http://www.w3.org/1999/xlink"><defs /><circle cx="125.0" cy="125.0" fill="black" r="3" /><circle cx="125.0" cy="105.0" fill="black" r="3" /><circle cx="145.0" cy="125.0" fill="black" r="3" /><circle cx="125.0" cy="145.0" fill="black" r="3" /><circle cx="105.0" cy="125.0" fill="black" r="3" /><circle cx="125.0" cy="85.0" fill="black" r="3" /><circle cx="165.0" cy="125.0" fill="black" r="3" /><circle cx="125.0" cy="165.0" fill="black" r="3" /><circle cx="85.0" cy="125.0" fill="black" r="3" /><circle cx="153.0" cy="97.0" fill="black" r="3" /><circle cx="153.0" cy="153.0" fill="black" r="3" /><circle cx="97.0" cy="153.0" fill="black" r="3" /><circle cx="97.0" cy="97.0" fill="black" r="3" /><circle cx="125.0" cy="55.0" fill="black" r="3" /><circle cx="195.0" cy="125.0" fill="black" r="3" /><circle cx="125.0" cy="195.0" fill="black" r="3" /><circle cx="55.0" cy="125.0" fill="black" r="3" /><circle cx="175.0" cy="75.0" fill="black" r="3" /><circle cx="175.0" cy="175.0" fill="black" r="3" /><circle cx="75.0" cy="175.0" fill="black" r="3" /><circle cx="75.0" cy="75.0" fill="black" r="3" /><line stroke="black" stroke-width="2" x1="125.0" x2="125.0" y1="125.0" y2="105.0" /><line stroke="black" stroke-width="2" x1="125.0" x2="145.0" y1="125.0" y2="125.0" /><line stroke="black" stroke-width="2" x1="125.0" x2="125.0" y1="125.0" y2="145.0" /><line stroke="black" stroke-width="2" x1="125.0" x2="105.0" y1="125.0" y2="125.0" /><line stroke="black" stroke-width="2" x1="125.0" x2="145.0" y1="105.0" y2="125.0" /><line stroke="black" stroke-width="2" x1="145.0" x2="125.0" y1="125.0" y2="145.0" /><line stroke="black" stroke-width="2" x1="125.0" x2="105.0" y1="145.0" y2="125.0" /><line stroke="black" stroke-width="2" x1="105.0" x2="125.0" y1="125.0" y2="105.0" /><path d="M97.0,97.0 Q125.0,85.0 153.0,97.0" fill="none" stroke="black" stroke-width="2" /><path d="M125.0,85.0 Q153.0,97.0 165.0,125.0" fill="none" stroke="black" stroke-width="2" /><path d="M153.0,97.0 Q165.0,125.0 153.0,153.0" fill="none" stroke="black" stroke-width="2" /><path d="M165.0,125.0 Q153.0,153.0 125.0,165.0" fill="none" stroke="black" stroke-width="2" /><path d="M153.0,153.0 Q125.0,165.0 97.0,153.0" fill="none" stroke="black" stroke-width="2" /><path d="M125.0,165.0 Q97.0,153.0 85.0,125.0" fill="none" stroke="black" stroke-width="2" /><path d="M97.0,153.0 Q85.0,125.0 97.0,97.0" fill="none" stroke="black" stroke-width="2" /><path d="M85.0,125.0 Q97.0,97.0 125.0,85.0" fill="none" stroke="black" stroke-width="2" /><path d="M75.0,75.0 Q125.0,55.0 175.0,75.0" fill="none" stroke="black" stroke-width="2" /><path d="M125.0,55.0 Q175.0,75.0 195.0,125.0" fill="none" stroke="black" stroke-width="2" /><path d="M175.0,75.0 Q195.0,125.0 175.0,175.0" fill="none" stroke="black" stroke-width="2" /><path d="M195.0,125.0 Q175.0,175.0 125.0,195.0" fill="none" stroke="black" stroke-width="2" /><path d="M175.0,175.0 Q125.0,195.0 75.0,175.0" fill="none" stroke="black" stroke-width="2" /><path d="M125.0,195.0 Q75.0,175.0 55.0,125.0" fill="none" stroke="black" stroke-width="2" /><path d="M75.0,175.0 Q55.0,125.0 75.0,75.0" fill="none" stroke="black" stroke-width="2" /><path d="M55.0,125.0 Q75.0,75.0 125.0,55.0" fill="none" stroke="black" stroke-width="2" /><line stroke="black" stroke-width="2" x1="125.0" x2="125.0" y1="105.0" y2="85.0" /><line stroke="black" stroke-width="2" x1="145.0" x2="165.0" y1="125.0" y2="125.0" /><line stroke="black" stroke-width="2" x1="125.0" x2="125.0" y1="145.0" y2="165.0" /><line stroke="black" stroke-width="2" x1="105.0" x2="85.0" y1="125.0" y2="125.0" /><line stroke="black" stroke-width="2" x1="125.0" x2="125.0" y1="85.0" y2="55.0" /><line stroke="black" stroke-width="2" x1="165.0" x2="195.0" y1="125.0" y2="125.0" /><line stroke="black" stroke-width="2" x1="125.0" x2="125.0" y1="165.0" y2="195.0" /><line stroke="black" stroke-width="2" x1="85.0" x2="55.0" y1="125.0" y2="125.0" /><line stroke="black" stroke-width="2" x1="97.0" x2="75.0" y1="97.0" y2="75.0" /><line stroke="black" stroke-width="2" x1="153.0" x2="175.0" y1="97.0" y2="75.0" /><line stroke="black" stroke-width="2" x1="153.0" x2="175.0" y1="153.0" y2="175.0" /><line stroke="black" stroke-width="2" x1="97.0" x2="75.0" y1="153.0" y2="175.0" /></svg>