<?xml version="1.0" encoding="utf-8" ?>
<svg baseProfile="tiny" height="100%" version="1.2" viewBox="0,0,500,500" width="100%" xmlns="http://www.w3.org/2000/svg" xmlns:ev="http://www.w3.org/2001/xml-events" xmlns:xlink="http://www.w3.org/1999/xlink"><defs /><circle cx="160.0" cy="160.0" fill="black" r="3" /><circle cx="160.0" cy="140.0" fill="black" r="3" /><circle cx="180.0" cy="160.0" fill="black" r="3" /><circle cx="160.0" cy="180.0" fill="black" r="3" /><circle cx="140.0" cy="160.0" fill="black" r="3" /><circle cx="180.0" cy="140.0" fill="black" r="3" /><circle cx="180.0" cy="180.0" fill="black" r="3" /><circle cx="140.0" cy="180.0" fill="black" r="3" /><circle cx="140.0" cy="140.0" fill="black" r="3" /><circle cx="160.0" cy="100.0" fill="black" r="3" /><circle cx="220.0" cy="160.0" fill="black" r="3" /><circle cx="160.0" cy="220.0" fill="black" r="3" /><circle cx="100.0" cy="160.0" fill="black" r="3" /><circle cx="202.43" cy="117.57" fill="black" r="3" /><circle cx="202.43" cy="202.43" fill="black" r="3" /><circle cx="117.57" cy="202.43" fill="black" r="3" /><circle cx="117.57" cy="117.57" fill="black" r="3" /><circle cx="160.0" cy="60.0" fill="black" r="3" /><circle cx="260.0" cy="160.0" fill="black" r="3" /><circle cx="160.0" cy="260.0" fill="black" r="3" /><circle cx="60.0" cy="160.0" fill="black" r="3" /><circle cx="230.71" cy="89.29" fill="black" r="3" /><circle cx="230.71" cy="230.71" fill="black" r="3" /><circle cx="89.29" cy="230.71" fill="black" r="3" /><circle cx="89.29" cy="89.29" fill="black" r="3" /><line stroke="black" stroke-width="2" x1="160.0" x2="160.0" y1="160.0" y2="140.0" /><line stroke="black" stroke-width="2" x1="160.0" x2="180.0" y1="160.0" y2="160.0" /><line stroke="black" stroke-width="2" x1="160.0" x2="160.0" y1="160.0" y2="180.0" /><line stroke="black" stroke-width="2" x1="160.0" x2="140.0" y1="160.0" y2="160.0" /><line stroke="black" stroke-width="2" x1="160.0" x2="180.0" y1="140.0" y2="160.0" /><line stroke="black" stroke-width="2" x1="180.0" x2="160.0" y1="160.0" y2="180.0" /><line stroke="black" stroke-width="2" x1="160.0" x2="140.0" y1="180.0" y2="160.0" /><line stroke="black" stroke-width="2" x1="140.0" x2="160.0" y1="160.0" y2="140.0" /><line stroke="black" stroke-width="2" x1="140.0" x2="180.0" y1="140.0" y2="140.0" /><line stroke="black" stroke-width="2" x1="180.0" x2="180.0" y1="140.0" y2="180.0" /><line stroke="black" stroke-width="2" x1="180.0" x2="140.0" y1="180.0" y2="180.0" /><line stroke="black" stroke-width="2" x1="140.0" x2="140.0" y1="180.0" y2="140.0" /><line stroke="black" stroke-width="2" x1="160.0" x2="140.0" y1="140.0" y2="140.0" /><line stroke="black" stroke-width="2" x1="160.0" x2="180.0" y1="140.0" y2="140.0" /><line stroke="black" stroke-width="2" x1="180.0" x2="180.0" y1="160.0" y2="140.0" /><line stroke="black" stroke-width="2" x1="180.0" x2="180.0" y1="160.0" y2="180.0" /><line stroke="black" stroke-width="2" x1="160.0" x2="180.0" y1="180.0" y2="180.0" /><line stroke="black" stroke-width="2" x1="160.0" x2="140.0" y1="180.0" y2="180.0" /><line stroke="black" stroke-width="2" x1="140.0" x2="140.0" y1="160.0" y2="180.0" /><line stroke="black" stroke-width="2" x1="140.0" x2="140.0" y1="160.0" y2="140.0" /><line stroke="black" stroke-width="2" x1="160.0" x2="180.0" y1="160.0" y2="140.0" /><line stroke="black" stroke-width="2" x1="160.0" x2="180.0" y1="160.0" y2="180.0" /><line stroke="black" stroke-width="2" x1="160.0" x2="140.0" y1="160.0" y2="180.0" /><line stroke="black" stroke-width="2" x1="160.0" x2="140.0" y1="160.0" y2="140.0" /><path d="M117.57,117.57 Q126.06,46.06 160.0,60.0" fill="none" stroke="black" stroke-width="2" /><path d="M160.0,60.0 Q193.94,46.06 202.43,117.57" fill="none" stroke="black" stroke-width="2" /><path d="M160.0,100.0 Q205.27,68.74 230.71,89.29" fill="none" stroke="black" stroke-width="2" /><path d="M230.71,89.29 Q251.26,110.74 220.0,160.0" fill="none" stroke="black" stroke-width="2" /><path d="M202.43,117.57 Q273.94,126.06 260.0,160.0" fill="none" stroke="black" stroke-width="2" /><path d="M260.0,160.0 Q273.94,193.94 202.43,202.43" fill="none" stroke="black" stroke-width="2" /><path d="M220.0,160.0 Q251.26,210.74 230.71,230.71" fill="none" stroke="black" stroke-width="2" /><path d="M230.71,230.71 Q205.27,251.26 160.0,220.0" fill="none" stroke="black" stroke-width="2" /><path d="M202.43,202.43 Q193.94,273.94 160.0,260.0" fill="none" stroke="black" stroke-width="2" /><path d="M160.0,260.0 Q126.06,273.94 117.57,202.43" fill="none" stroke="black" stroke-width="2" /><path d="M160.0,220.0 Q114.74,251.26 89.29,230.71" fill="none" stroke="black" stroke-width="2" /><path d="M89.29,230.71 Q68.74,205.27 100.0,160.0" fill="none" stroke="black" stroke-width="2" /><path d="M117.57,202.43 Q46.06,193.94 60.0,160.0" fill="none" stroke="black" stroke-width="2" /><path d="M60.0,160.0 Q46.06,126.06 117.57,117.57" fill="none" stroke="black" stroke-width="2" /><path d="M100.0,160.0 Q68.74,114.74 89.29,89.29" fill="none" stroke="black" stroke-width="2" /><path d="M89.29,89.29 Q114.74,68.74 160.0,100.0" fill="none" stroke="black" stroke-width="2" /></svg>