<?xml version="1.0" encoding="utf-8" ?>
<svg baseProfile="tiny" height="100%" version="1.2" viewBox="0,0,500,500" width="100%" xmlns="http://www.w3.org/2000/svg" xmlns:ev="http://www.w3.org/2001/xml-events" xmlns:xlink="http://www.w3.org/1999/xlink"><defs /><circle cx="125.0" cy="125.0" fill="black" r="3" /><circle cx="150.0" cy="125.0" fill="black" r="3" /><circle cx="125.0" cy="100.0" fill="black" r="3" /><circle cx="100.0" cy="125.0" fill="black" r="3" /><circle cx="125.0" cy="150.0" fill="black" r="3" /><circle cx="142.0" cy="108.0" fill="black" r="3" /><circle cx="108.0" cy="108.0" fill="black" r="3" /><circle cx="108.0" cy="142.0" fill="black" r="3" /><circle cx="142.0" cy="142.0" fill="black" r="3" /><circle cx="180.0" cy="125.0" fill="black" r="3" /><circle cx="125.0" cy="70.0" fill="black" r="3" /><circle cx="70.0" cy="125.0" fill="black" r="3" /><circle cx="125.0" cy="180.0" fill="black" r="3" /><circle cx="170.0" cy="80.0" fill="black" r="3" /><circle cx="80.0" cy="80.0" fill="black" r="3" /><circle cx="80.0" cy="170.0" fill="black" r="3" /><circle cx="170.0" cy="170.0" fill="black" r="3" /><circle cx="210.0" cy="125.0" fill="black" r="3" /><circle cx="125.0" cy="40.0" fill="black" r="3" /><circle cx="40.0" cy="125.0" fill="black" r="3" /><circle cx="125.0" cy="210.0" fill="black" r="3" /><circle cx="195.0" cy="55.0" fill="black" r="3" /><circle cx="55.0" cy="55.0" fill="black" r="3" /><circle cx="55.0" cy="195.0" fill="black" r="3" /><circle cx="195.0" cy="195.0" fill="black" r="3" /><line stroke="black" stroke-width="2" x1="125.0" x2="150.0" y1="125.0" y2="125.0" /><line stroke="black" stroke-width="2" x1="125.0" x2="125.0" y1="125.0" y2="100.0" /><line stroke="black" stroke-width="2" x1="125.0" x2="100.0" y1="125.0" y2="125.0" /><line stroke="black" stroke-width="2" x1="125.0" x2="125.0" y1="125.0" y2="150.0" /><line stroke="black" stroke-width="2" x1="125.0" x2="142.0" y1="125.0" y2="108.0" /><line stroke="black" stroke-width="2" x1="125.0" x2="108.0" y1="125.0" y2="108.0" /><line stroke="black" stroke-width="2" x1="125.0" x2="108.0" y1="125.0" y2="142.0" /><line stroke="black" stroke-width="2" x1="125.0" x2="142.0" y1="125.0" y2="142.0" /><line stroke="black" stroke-width="2" x1="150.0" x2="142.0" y1="125.0" y2="108.0" /><line stroke="black" stroke-width="2" x1="142.0" x2="125.0" y1="108.0" y2="100.0" /><line stroke="black" stroke-width="2" x1="125.0" x2="108.0" y1="100.0" y2="108.0" /><line stroke="black" stroke-width="2" x1="108.0" x2="100.0" y1="108.0" y2="125.0" /><line stroke="black" stroke-width="2" x1="100.0" x2="108.0" y1="125.0" y2="142.0" /><line stroke="black" stroke-width="2" x1="108.0" x2="125.0" y1="142.0" y2="150.0" /><line stroke="black" stroke-width="2" x1="125.0" x2="142.0" y1="150.0" y2="142.0" /><line stroke="black" stroke-width="2" x1="142.0" x2="150.0" y1="142.0" y2="125.0" /><path d="M142.0,108.0 Q180.0,108.0 180.0,125.0" fill="none" stroke="black" stroke-width="2" /><path d="M180.0,125.0 Q180.0,142.0 142.0,142.0" fill="none" stroke="black" stroke-width="2" /><path d="M108.0,108.0 Q108.0,70.0 125.0,70.0" fill="none" stroke="black" stroke-width="2" /><path d="M125.0,70.0 Q142.0,70.0 142.0,108.0" fill="none" stroke="black" stroke-width="2" /><path d="M108.0,142.0 Q70.0,142.0 70.0,125.0" fill="none" stroke="black" stroke-width="2" /><path d="M70.0,125.0 Q70.0,108.0 108.0,108.0" fill="none" stroke="black" stroke-width="2" /><path d="M142.0,142.0 Q142.0,180.0 125.0,180.0" fill="none" stroke="black" stroke-width="2" /><path d="M125.0,180.0 Q108.0,180.0 108.0,142.0" fill="none" stroke="black" stroke-width="2" /><path d="M150.0,125.0 Q170.0,110.0 170.0,80.0" fill="none" stroke="black" stroke-width="2" /><path d="M170.0,80.0 Q135.0,80.0 125.0,100.0" fill="none" stroke="black" stroke-width="2" /><path d="M125.0,100.0 Q110.0,80.0 80.0,80.0" fill="none" stroke="black" stroke-width="2" /><path d="M80.0,80.0 Q95.0,110.0 100.0,125.0" fill="none" stroke="black" stroke-width="2" /><path d="M100.0,125.0 Q80.0,140.0 80.0,170.0" fill="none" stroke="black" stroke-width="2" /><path d="M80.0,170.0 Q110.0,170.0 125.0,150.0" fill="none" stroke="black" stroke-width="2" /><path d="M125.0,150.0 Q140.0,170.0 170.0,170.0" fill="none" stroke="black" stroke-width="2" /><path d="M170.0,170.0 Q170.0,140.0 150.0,125.0" fill="none" stroke="black" stroke-width="2" /><path d="M170.0,80.0 Q190.0,80.0 210.0,125.0" fill="none" stroke="black" stroke-width="2" /><path d="M210.0,125.0 Q190.0,170.0 170.0,170.0" fill="none" stroke="black" stroke-width="2" /><path d="M80.0,80.0 Q80.0,60.0 125.0,40.0" fill="none" stroke="black" stroke-width="2" /><path d="M125.0,40.0 Q170.0,60.0 170.0,80.0" fill="none" stroke="black" stroke-width="2" /><path d="M80.0,170.0 Q60.0,170.0 40.0,125.0" fill="none" stroke="black" stroke-width="2" /><path d="M40.0,125.0 Q60.0,80.0 80.0,80.0" fill="none" stroke="black" stroke-width="2" /><path d="M170.0,170.0 Q170.0,190.0 125.0,210.0" fill="none" stroke="black" stroke-width="2" /><path d="M125.0,210.0 Q80.0,190.0 80.0,170.0" fill="none" stroke="black" stroke-width="2" /><path d="M180.0,125.0 Q195.0,80.0 195.0,55.0" fill="none" stroke="black" stroke-width="2" /><path d="M195.0,55.0 Q135.0,55.0 125.0,70.0" fill="none" stroke="black" stroke-width="2" /><path d="M125.0,70.0 Q90.0,55.0 55.0,55.0" fill="none" stroke="black" stroke-width="2" /><path d="M55.0,55.0 Q55.0,90.0 70.0,125.0" fill="none" stroke="black" stroke-width="2" /><path d="M70.0,125.0 Q55.0,170.0 55.0,195.0" fill="none" stroke="black" stroke-width="2" /><path d="M55.0,195.0 Q115.0,195.0 125.0,180.0" fill="none" stroke="black" stroke-width="2" /><path d="M125.0,180.0 Q160.0,195.0 195.0,195.0" fill="none" stroke="black" stroke-width="2" /><path d="M195.0,195.0 Q195.0,160.0 180.0,125.0" fill="none" stroke="black" stroke-width="2" /></svg>