<?xml version="1.0" encoding="utf-8" ?>
<svg baseProfile="tiny" height="100%" version="1.2" viewBox="0,0,500,500" width="100%" xmlns="http://www.w3.org/2000/svg" xmlns:ev="http://www.w3.org/2001/xml-events" xmlns:xlink="http://www.w3.org/1999/xlink"><defs /><circle cx="600.0" cy="400.0" fill="black" r="3" /><circle cx="620.0" cy="400.0" fill="black" r="3" /><circle cx="614.14" cy="385.86" fill="black" r="3" /><circle cx="600.0" cy="380.0" fill="black" r="3" /><circle cx="585.86" cy="385.86" fill="black" r="3" /><circle cx="580.0" cy="400.0" fill="black" r="3" /><circle cx="585.86" cy="414.14" fill="black" r="3" /><circle cx="600.0" cy="420.0" fill="black" r="3" /><circle cx="614.14" cy="414.14" fill="black" r="3" /><circle cx="660.0" cy="400.0" fill="black" r="3" /><circle cx="642.43" cy="357.57" fill="black" r="3" /><circle cx="600.0" cy="340.0" fill="black" r="3" /><circle cx="557.57" cy="357.57" fill="black" r="3" /><circle cx="540.0" cy="400.0" fill="black" r="3" /><circle cx="557.57" cy="442.43" fill="black" r="3" /><circle cx="600.0" cy="460.0" fill="black" r="3" /><circle cx="642.43" cy="442.43" fill="black" r="3" /><circle cx="700.0" cy="400.0" fill="black" r="3" /><circle cx="670.71" cy="329.29" fill="black" r="3" /><circle cx="600.0" cy="300.0" fill="black" r="3" /><circle cx="529.29" cy="329.29" fill="black" r="3" /><circle cx="500.0" cy="400.0" fill="black" r="3" /><circle cx="529.29" cy="470.71" fill="black" r="3" /><circle cx="600.0" cy="500.0" fill="black" r="3" /><circle cx="670.71" cy="470.71" fill="black" r="3" /><line stroke="black" stroke-width="2" x1="600.0" x2="660.0" y1="400.0" y2="400.0" /><line stroke="black" stroke-width="2" x1="600.0" x2="642.43" y1="400.0" y2="357.57" /><line stroke="black" stroke-width="2" x1="600.0" x2="600.0" y1="400.0" y2="340.0" /><line stroke="black" stroke-width="2" x1="600.0" x2="557.57" y1="400.0" y2="357.57" /><line stroke="black" stroke-width="2" x1="600.0" x2="540.0" y1="400.0" y2="400.0" /><line stroke="black" stroke-width="2" x1="600.0" x2="557.57" y1="400.0" y2="442.43" /><line stroke="black" stroke-width="2" x1="600.0" x2="600.0" y1="400.0" y2="460.0" /><line stroke="black" stroke-width="2" x1="600.0" x2="642.43" y1="400.0" y2="442.43" /><line stroke="black" stroke-width="2" x1="620.0" x2="614.14" y1="400.0" y2="385.86" /><line stroke="black" stroke-width="2" x1="614.14" x2="600.0" y1="385.86" y2="380.0" /><line stroke="black" stroke-width="2" x1="600.0" x2="585.86" y1="380.0" y2="385.86" /><line stroke="black" stroke-width="2" x1="585.86" x2="580.0" y1="385.86" y2="400.0" /><line stroke="black" stroke-width="2" x1="580.0" x2="585.86" y1="400.0" y2="414.14" /><line stroke="black" stroke-width="2" x1="585.86" x2="600.0" y1="414.14" y2="420.0" /><line stroke="black" stroke-width="2" x1="600.0" x2="614.14" y1="420.0" y2="414.14" /><line stroke="black" stroke-width="2" x1="614.14" x2="620.0" y1="414.14" y2="400.0" /><line stroke="black" stroke-width="2" x1="620.0" x2="660.0" y1="400.0" y2="400.0" /><line stroke="black" stroke-width="2" x1="614.14" x2="642.43" y1="385.86" y2="357.57" /><line stroke="black" stroke-width="2" x1="600.0" x2="600.0" y1="380.0" y2="340.0" /><line stroke="black" stroke-width="2" x1="585.86" x2="557.57" y1="385.86" y2="357.57" /><line stroke="black" stroke-width="2" x1="580.0" x2="540.0" y1="400.0" y2="400.0" /><line stroke="black" stroke-width="2" x1="585.86" x2="557.57" y1="414.14" y2="442.43" /><line stroke="black" stroke-width="2" x1="600.0" x2="600.0" y1="420.0" y2="460.0" /><line stroke="black" stroke-width="2" x1="614.14" x2="642.43" y1="414.14" y2="442.43" /><path d="M642.43,442.43 Q670.71,470.71 600.0,460.0" fill="none" stroke="black" stroke-width="2" /><path d="M600.0,460.0 Q600.0,500.0 557.57,442.43" fill="none" stroke="black" stroke-width="2" /><path d="M557.57,442.43 Q529.29,470.71 540.0,400.0" fill="none" stroke="black" stroke-width="2" /><path d="M540.0,400.0 Q500.0,400.0 557.57,357.57" fill="none" stroke="black" stroke-width="2" /><path d="M557.57,357.57 Q529.29,329.29 600.0,340.0" fill="none" stroke="black" stroke-width="2" /><path d="M600.0,340.0 Q600.0,300.0 642.43,357.57" fill="none" stroke="black" stroke-width="2" /><path d="M642.43,357.57 Q670.71,329.29 660.0,400.0" fill="none" stroke="black" stroke-width="2" /><path d="M660.0,400.0 Q700.0,400.0 642.43,442.43" fill="none" stroke="black" stroke-width="2" /><path d="M620.0,400.0 Q660.0,400.0 614.14,385.86" fill="none" stroke="black" stroke-width="2" /><path d="M614.14,385.86 Q642.43,357.57 600.0,380.0" fill="none" stroke="black" stroke-width="2" /><path d="M600.0,380.0 Q600.0,340.0 585.86,385.86" fill="none" stroke="black" stroke-width="2" /><path d="M585.86,385.86 Q557.57,357.57 580.0,400.0" fill="none" stroke="black" stroke-width="2" /><path d="M580.0,400.0 Q540.0,400.0 585.86,414.14" fill="none" stroke="black" stroke-width="2" /><path d="M585.86,414.14 Q557.57,442.43 600.0,420.0" fill="none" stroke="black" stroke-width="2" /><path d="M600.0,420.0 Q600.0,460.0 614.14,414.14" fill="none" stroke="black" stroke-width="2" /><path d="M614.14,414.14 Q642.43,442.43 620.0,400.0" fill="none" stroke="black" stroke-width="2" /></svg>