<?xml version="1.0" encoding="utf-8" ?>
<svg baseProfile="tiny" height="100%" version="1.2" viewBox="0,0,500,500" width="100%" xmlns="http://www.w3.org/2000/svg" xmlns:ev="http://www.w3.org/2001/xml-events" xmlns:xlink="http://www.w3.org/1999/xlink"><defs /><circle cx="450.0" cy="350.0" fill="black" r="3" /><circle cx="500.0" cy="350.0" fill="black" r="3" /><circle cx="485.355" cy="385.355" fill="black" r="3" /><circle cx="450.0" cy="400.0" fill="black" r="3" /><circle cx="414.645" cy="385.355" fill="black" r="3" /><circle cx="400.0" cy="350.0" fill="black" r="3" /><circle cx="414.645" cy="314.645" fill="black" r="3" /><circle cx="450.0" cy="300.0" fill="black" r="3" /><circle cx="485.355" cy="314.645" fill="black" r="3" /><circle cx="550.0" cy="350.0" fill="black" r="3" /><circle cx="520.71" cy="420.71" fill="black" r="3" /><circle cx="450.0" cy="450.0" fill="black" r="3" /><circle cx="379.29" cy="420.71" fill="black" r="3" /><circle cx="350.0" cy="350.0" fill="black" r="3" /><circle cx="379.29" cy="279.29" fill="black" r="3" /><circle cx="450.0" cy="250.0" fill="black" r="3" /><circle cx="520.71" cy="279.29" fill="black" r="3" /><circle cx="630.0" cy="350.0" fill="black" r="3" /><circle cx="577.28" cy="477.28" fill="black" r="3" /><circle cx="450.0" cy="530.0" fill="black" r="3" /><circle cx="322.72" cy="477.28" fill="black" r="3" /><circle cx="270.0" cy="350.0" fill="black" r="3" /><circle cx="322.72" cy="222.72" fill="black" r="3" /><circle cx="450.0" cy="170.0" fill="black" r="3" /><circle cx="577.28" cy="222.72" fill="black" r="3" /><circle cx="700.0" cy="350.0" fill="black" r="3" /><circle cx="626.78" cy="526.78" fill="black" r="3" /><circle cx="450.0" cy="600.0" fill="black" r="3" /><circle cx="273.22" cy="526.78" fill="black" r="3" /><circle cx="200.0" cy="350.0" fill="black" r="3" /><circle cx="273.22" cy="173.22" fill="black" r="3" /><circle cx="450.0" cy="100.0" fill="black" r="3" /><circle cx="626.78" cy="173.22" fill="black" r="3" /><line stroke="black" stroke-width="2" x1="450.0" x2="500.0" y1="350.0" y2="350.0" /><line stroke="black" stroke-width="2" x1="450.0" x2="485.355" y1="350.0" y2="385.355" /><line stroke="black" stroke-width="2" x1="450.0" x2="450.0" y1="350.0" y2="400.0" /><line stroke="black" stroke-width="2" x1="450.0" x2="414.645" y1="350.0" y2="385.355" /><line stroke="black" stroke-width="2" x1="450.0" x2="400.0" y1="350.0" y2="350.0" /><line stroke="black" stroke-width="2" x1="450.0" x2="414.645" y1="350.0" y2="314.645" /><line stroke="black" stroke-width="2" x1="450.0" x2="450.0" y1="350.0" y2="300.0" /><line stroke="black" stroke-width="2" x1="450.0" x2="485.355" y1="350.0" y2="314.645" /><line stroke="black" stroke-width="2" x1="500.0" x2="485.355" y1="350.0" y2="385.355" /><line stroke="black" stroke-width="2" x1="485.355" x2="450.0" y1="385.355" y2="400.0" /><line stroke="black" stroke-width="2" x1="450.0" x2="414.645" y1="400.0" y2="385.355" /><line stroke="black" stroke-width="2" x1="414.645" x2="400.0" y1="385.355" y2="350.0" /><line stroke="black" stroke-width="2" x1="400.0" x2="414.645" y1="350.0" y2="314.645" /><line stroke="black" stroke-width="2" x1="414.645" x2="450.0" y1="314.645" y2="300.0" /><line stroke="black" stroke-width="2" x1="450.0" x2="485.355" y1="300.0" y2="314.645" /><line stroke="black" stroke-width="2" x1="485.355" x2="500.0" y1="314.645" y2="350.0" /><line stroke="black" stroke-width="2" x1="550.0" x2="520.71" y1="350.0" y2="420.71" /><line stroke="black" stroke-width="2" x1="520.71" x2="450.0" y1="420.71" y2="450.0" /><line stroke="black" stroke-width="2" x1="450.0" x2="379.29" y1="450.0" y2="420.71" /><line stroke="black" stroke-width="2" x1="379.29" x2="350.0" y1="420.71" y2="350.0" /><line stroke="black" stroke-width="2" x1="350.0" x2="379.29" y1="350.0" y2="279.29" /><line stroke="black" stroke-width="2" x1="379.29" x2="450.0" y1="279.29" y2="250.0" /><line stroke="black" stroke-width="2" x1="450.0" x2="520.71" y1="250.0" y2="279.29" /><line stroke="black" stroke-width="2" x1="520.71" x2="550.0" y1="279.29" y2="350.0" /><path d="M500.0,350.0 Q539.02,382.492 485.355,385.355" fill="none" stroke="black" stroke-width="2" /><path d="M485.355,385.355 Q497.81,411.23 450.0,400.0" fill="none" stroke="black" stroke-width="2" /><path d="M450.0,400.0 Q417.508,402.19 414.645,385.355" fill="none" stroke="black" stroke-width="2" /><path d="M414.645,385.355 Q388.77,393.287 400.0,350.0" fill="none" stroke="black" stroke-width="2" /><path d="M400.0,350.0 Q388.77,306.713 414.645,314.645" fill="none" stroke="black" stroke-width="2" /><path d="M414.645,314.645 Q417.508,297.81 450.0,300.0" fill="none" stroke="black" stroke-width="2" /><path d="M450.0,300.0 Q497.81,288.77 485.355,314.645" fill="none" stroke="black" stroke-width="2" /><path d="M485.355,314.645 Q539.02,317.508 500.0,350.0" fill="none" stroke="black" stroke-width="2" /><path d="M550.0,350.0 Q597.81,411.23 520.71,420.71" fill="none" stroke="black" stroke-width="2" /><path d="M520.71,420.71 Q560.0,460.0 450.0,450.0" fill="none" stroke="black" stroke-width="2" /><path d="M450.0,450.0 Q382.492,497.81 379.29,420.71" fill="none" stroke="black" stroke-width="2" /><path d="M379.29,420.71 Q338.77,460.0 350.0,350.0" fill="none" stroke="black" stroke-width="2" /><path d="M350.0,350.0 Q338.77,240.0 379.29,279.29" fill="none" stroke="black" stroke-width="2" /><path d="M379.29,279.29 Q382.492,202.19 450.0,250.0" fill="none" stroke="black" stroke-width="2" /><path d="M450.0,250.0 Q560.0,240.0 520.71,279.29" fill="none" stroke="black" stroke-width="2" /><path d="M520.71,279.29 Q597.81,288.77 550.0,350.0" fill="none" stroke="black" stroke-width="2" /><line stroke="black" stroke-width="2" x1="550.0" x2="630.0" y1="350.0" y2="350.0" /><line stroke="black" stroke-width="2" x1="520.71" x2="577.28" y1="420.71" y2="477.28" /><line stroke="black" stroke-width="2" x1="450.0" x2="450.0" y1="450.0" y2="530.0" /><line stroke="black" stroke-width="2" x1="379.29" x2="322.72" y1="420.71" y2="477.28" /><line stroke="black" stroke-width="2" x1="350.0" x2="270.0" y1="350.0" y2="350.0" /><line stroke="black" stroke-width="2" x1="379.29" x2="322.72" y1="279.29" y2="222.72" /><line stroke="black" stroke-width="2" x1="450.0" x2="450.0" y1="250.0" y2="170.0" /><line stroke="black" stroke-width="2" x1="520.71" x2="577.28" y1="279.29" y2="222.72" /><line stroke="black" stroke-width="2" x1="630.0" x2="577.28" y1="350.0" y2="477.28" /><line stroke="black" stroke-width="2" x1="577.28" x2="450.0" y1="477.28" y2="530.0" /><line stroke="black" stroke-width="2" x1="450.0" x2="322.72" y1="530.0" y2="477.28" /><line stroke="black" stroke-width="2" x1="322.72" x2="270.0" y1="477.28" y2="350.0" /><line stroke="black" stroke-width="2" x1="270.0" x2="322.72" y1="350.0" y2="222.72" /><line stroke="black" stroke-width="2" x1="322.72" x2="450.0" y1="222.72" y2="170.0" /><line stroke="black" stroke-width="2" x1="450.0" x2="577.28" y1="170.0" y2="222.72" /><line stroke="black" stroke-width="2" x1="577.28" x2="630.0" y1="222.72" y2="350.0" /><line stroke="black" stroke-width="2" x1="630.0" x2="700.0" y1="350.0" y2="350.0" /><line stroke="black" stroke-width="2" x1="577.28" x2="626.78" y1="477.28" y2="526.78" /><line stroke="black" stroke-width="2" x1="450.0" x2="450.0" y1="530.0" y2="600.0" /><line stroke="black" stroke-width="2" x1="322.72" x2="273.22" y1="477.28" y2="526.78" /><line stroke="black" stroke-width="2" x1="270.0" x2="200.0" y1="350.0" y2="350.0" /><line stroke="black" stroke-width="2" x1="322.72" x2="273.22" y1="222.72" y2="173.22" /><line stroke="black" stroke-width="2" x1="450.0" x2="450.0" y1="170.0" y2="100.0" /><line stroke="black" stroke-width="2" x1="577.28" x2="626.78" y1="222.72" y2="173.22" /><path d="M700.0,350.0 Q723.47,407.411 626.78,526.78" fill="none" stroke="black" stroke-width="2" /><path d="M626.78,526.78 Q547.81,607.411 450.0,600.0" fill="none" stroke="black" stroke-width="2" /><path d="M450.0,600.0 Q352.19,607.411 273.22,526.78" fill="none" stroke="black" stroke-width="2" /><path d="M273.22,526.78 Q226.53,407.411 200.0,350.0" fill="none" stroke="black" stroke-width="2" /><path d="M200.0,350.0 Q226.53,292.589 273.22,173.22" fill="none" stroke="black" stroke-width="2" /><path d="M273.22,173.22 Q352.19,92.589 450.0,100.0" fill="none" stroke="black" stroke-width="2" /><path d="M450.0,100.0 Q547.81,92.589 626.78,173.22" fill="none" stroke="black" stroke-width="2" /><path d="M626.78,173.22 Q723.47,292.589 700.0,350.0" fill="none" stroke="black" stroke-width="2" /><line stroke="black" stroke-width="2" x1="500.0" x2="350.0" y1="350.0" y2="350.0" /><line stroke="black" stroke-width="2" x1="485.355" x2="414.645" y1="385.355" y2="314.645" /><line stroke="black" stroke-width="2" x1="450.0" x2="450.0" y1="400.0" y2="300.0" /><line stroke="black" stroke-width="2" x1="414.645" x2="485.355" y1="385.355" y2="314.645" /><line stroke="black" stroke-width="2" x1="500.0" x2="630.0" y1="350.0" y2="350.0" /><line stroke="black" stroke-width="2" x1="485.355" x2="577.28" y1="385.355" y2="477.28" /><line stroke="black" stroke-width="2" x1="450.0" x2="450.0" y1="400.0" y2="530.0" /><line stroke="black" stroke-width="2" x1="414.645" x2="322.72" y1="385.355" y2="477.28" /><line stroke="black" stroke-width="2" x1="400.0" x2="270.0" y1="350.0" y2="350.0" /><line stroke="black" stroke-width="2" x1="414.645" x2="322.72" y1="314.645" y2="222.72" /><line stroke="black" stroke-width="2" x1="450.0" x2="450.0" y1="300.0" y2="170.0" /><line stroke="black" stroke-width="2" x1="485.355" x2="577.28" y1="314.645" y2="222.72" /><line stroke="black" stroke-width="2" x1="550.0" x2="700.0" y1="350.0" y2="350.0" /><line stroke="black" stroke-width="2" x1="520.71" x2="626.78" y1="420.71" y2="526.78" /><line stroke="black" stroke-width="2" x1="450.0" x2="450.0" y1="450.0" y2="600.0" /><line stroke="black" stroke-width="2" x1="379.29" x2="273.22" y1="420.71" y2="526.78" /><line stroke="black" stroke-width="2" x1="350.0" x2="200.0" y1="350.0" y2="350.0" /><line stroke="black" stroke-width="2" x1="379.29" x2="273.22" y1="279.29" y2="173.22" /><line stroke="black" stroke-width="2" x1="450.0" x2="450.0" y1="250.0" y2="100.0" /><line stroke="black" stroke-width="2" x1="520.71" x2="626.78" y1="279.29" y2="173.22" /><line stroke="black" stroke-width="2" x1="500.0" x2="400.0" y1="350.0" y2="350.0" /><line stroke="black" stroke-width="2" x1="485.355" x2="414.645" y1="385.355" y2="314.645" /><line stroke="black" stroke-width="2" x1="450.0" x2="450.0" y1="400.0" y2="300.0" /><line stroke="black" stroke-width="2" x1="414.645" x2="485.355" y1="385.355" y2="314.645" /><line stroke="black" stroke-width="2" x1="550.0" x2="350.0" y1="350.0" y2="350.0" /><line stroke="black" stroke-width="2" x1="520.71" x2="379.29" y1="420.71" y2="279.29" /><line stroke="black" stroke-width="2" x1="450.0" x2="450.0" y1="450.0" y2="250.0" /><line stroke="black" stroke-width="2" x1="379.29" x2="520.71" y1="420.71" y2="279.29" /><line stroke="black" stroke-width="2" x1="630.0" x2="270.0" y1="350.0" y2="350.0" /><line stroke="black" stroke-width="2" x1="577.28" x2="322.72" y1="477.28" y2="222.72" /><line stroke="black" stroke-width="2" x1="450.0" x2="450.0" y1="530.0" y2="170.0" /><line stroke="black" stroke-width="2" x1="322.72" x2="577.28" y1="477.28" y2="222.72" /><line stroke="black" stroke-width="2" x1="700.0" x2="200.0" y1="350.0" y2="350.0" /><line stroke="black" stroke-width="2" x1="626.78" x2="273.22" y1="526.78" y2="173.22" /><line stroke="black" stroke-width="2" x1="450.0" x2="450.0" y1="600.0" y2="100.0" /><line stroke="black" stroke-width="2" x1="273.22" x2="626.78" y1="526.78" y2="173.22" /></svg>