<?xml version="1.0" encoding="utf-8" ?>
<svg baseProfile="tiny" height="100%" version="1.2" viewBox="0,0,500,500" width="100%" xmlns="http://www.w3.org/2000/svg" xmlns:ev="http://www.w3.org/2001/xml-events" xmlns:xlink="http://www.w3.org/1999/xlink"><defs /><circle cx="175.0" cy="175.0" fill="black" r="3" /><circle cx="175.0" cy="145.0" fill="black" r="3" /><circle cx="205.0" cy="175.0" fill="black" r="3" /><circle cx="175.0" cy="205.0" fill="black" r="3" /><circle cx="145.0" cy="175.0" fill="black" r="3" /><circle cx="175.0" cy="115.0" fill="black" r="3" /><circle cx="235.0" cy="175.0" fill="black" r="3" /><circle cx="175.0" cy="235.0" fill="black" r="3" /><circle cx="115.0" cy="175.0" fill="black" r="3" /><circle cx="132.57" cy="132.57" fill="black" r="3" /><circle cx="217.43" cy="132.57" fill="black" r="3" /><circle cx="217.43" cy="217.43" fill="black" r="3" /><circle cx="132.57" cy="217.43" fill="black" r="3" /><circle cx="175.0" cy="75.0" fill="black" r="3" /><circle cx="275.0" cy="175.0" fill="black" r="3" /><circle cx="175.0" cy="275.0" fill="black" r="3" /><circle cx="75.0" cy="175.0" fill="black" r="3" /><line stroke="black" stroke-width="2" x1="175.0" x2="175.0" y1="175.0" y2="145.0" /><line stroke="black" stroke-width="2" x1="175.0" x2="205.0" y1="175.0" y2="175.0" /><line stroke="black" stroke-width="2" x1="175.0" x2="175.0" y1="175.0" y2="205.0" /><line stroke="black" stroke-width="2" x1="175.0" x2="145.0" y1="175.0" y2="175.0" /><line stroke="black" stroke-width="2" x1="175.0" x2="205.0" y1="145.0" y2="175.0" /><line stroke="black" stroke-width="2" x1="205.0" x2="175.0" y1="175.0" y2="205.0" /><line stroke="black" stroke-width="2" x1="175.0" x2="145.0" y1="205.0" y2="175.0" /><line stroke="black" stroke-width="2" x1="145.0" x2="175.0" y1="175.0" y2="145.0" /><path d="M115.0,175.0 Q132.57,132.57 175.0,75.0" fill="none" stroke="black" stroke-width="2" /><path d="M175.0,75.0 Q217.43,132.57 235.0,175.0" fill="none" stroke="black" stroke-width="2" /><path d="M175.0,115.0 Q217.43,132.57 275.0,175.0" fill="none" stroke="black" stroke-width="2" /><path d="M275.0,175.0 Q217.43,217.43 175.0,235.0" fill="none" stroke="black" stroke-width="2" /><path d="M235.0,175.0 Q217.43,217.43 175.0,275.0" fill="none" stroke="black" stroke-width="2" /><path d="M175.0,275.0 Q132.57,217.43 115.0,175.0" fill="none" stroke="black" stroke-width="2" /><path d="M175.0,235.0 Q132.57,217.43 75.0,175.0" fill="none" stroke="black" stroke-width="2" /><path d="M75.0,175.0 Q132.57,132.57 175.0,115.0" fill="none" stroke="black" stroke-width="2" /><line stroke="black" stroke-width="2" x1="175.0" x2="235.0" y1="115.0" y2="175.0" /><line stroke="black" stroke-width="2" x1="235.0" x2="175.0" y1="175.0" y2="235.0" /><line stroke="black" stroke-width="2" x1="175.0" x2="115.0" y1="235.0" y2="175.0" /><line stroke="black" stroke-width="2" x1="115.0" x2="175.0" y1="175.0" y2="115.0" /><line stroke="black" stroke-width="2" x1="175.0" x2="132.57" y1="145.0" y2="132.57" /><line stroke="black" stroke-width="2" x1="175.0" x2="217.43" y1="145.0" y2="132.57" /><line stroke="black" stroke-width="2" x1="205.0" x2="217.43" y1="175.0" y2="132.57" /><line stroke="black" stroke-width="2" x1="205.0" x2="217.43" y1="175.0" y2="217.43" /><line stroke="black" stroke-width="2" x1="175.0" x2="217.43" y1="205.0" y2="217.43" /><line stroke="black" stroke-width="2" x1="175.0" x2="132.57" y1="205.0" y2="217.43" /><line stroke="black" stroke-width="2" x1="145.0" x2="132.57" y1="175.0" y2="217.43" /><line stroke="black" stroke-width="2" x1="145.0" x2="132.57" y1="175.0" y2="132.57" /></svg>