<?xml version="1.0" encoding="utf-8" ?>
<svg baseProfile="tiny" height="100%" version="1.2" viewBox="0,0,500,500" width="100%" xmlns="http://www.w3.org/2000/svg" xmlns:ev="http://www.w3.org/2001/xml-events" xmlns:xlink="http://www.w3.org/1999/xlink"><defs /><circle cx="179.0" cy="176.0" fill="black" r="3" /><circle cx="204.0" cy="176.0" fill="black" r="3" /><circle cx="196.8" cy="193.7" fill="black" r="3" /><circle cx="179.0" cy="201.0" fill="black" r="3" /><circle cx="161.2" cy="193.7" fill="black" r="3" /><circle cx="154.0" cy="176.0" fill="black" r="3" /><circle cx="161.2" cy="158.3" fill="black" r="3" /><circle cx="179.0" cy="151.0" fill="black" r="3" /><circle cx="196.8" cy="158.3" fill="black" r="3" /><circle cx="249.0" cy="176.0" fill="black" r="3" /><circle cx="228.5" cy="225.5" fill="black" r="3" /><circle cx="179.0" cy="246.0" fill="black" r="3" /><circle cx="129.5" cy="225.5" fill="black" r="3" /><circle cx="109.0" cy="176.0" fill="black" r="3" /><circle cx="129.5" cy="126.5" fill="black" r="3" /><circle cx="179.0" cy="106.0" fill="black" r="3" /><circle cx="228.5" cy="126.5" fill="black" r="3" /><circle cx="215.9" cy="191.3" fill="black" r="3" /><circle cx="194.3" cy="212.9" fill="black" r="3" /><circle cx="163.7" cy="212.9" fill="black" r="3" /><circle cx="142.1" cy="191.3" fill="black" r="3" /><circle cx="142.1" cy="160.7" fill="black" r="3" /><circle cx="163.7" cy="139.1" fill="black" r="3" /><circle cx="194.3" cy="139.1" fill="black" r="3" /><circle cx="215.9" cy="160.7" fill="black" r="3" /><line stroke="black" stroke-width="2" x1="179.0" x2="204.0" y1="176.0" y2="176.0" /><line stroke="black" stroke-width="2" x1="179.0" x2="196.8" y1="176.0" y2="193.7" /><line stroke="black" stroke-width="2" x1="179.0" x2="179.0" y1="176.0" y2="201.0" /><line stroke="black" stroke-width="2" x1="179.0" x2="161.2" y1="176.0" y2="193.7" /><line stroke="black" stroke-width="2" x1="179.0" x2="154.0" y1="176.0" y2="176.0" /><line stroke="black" stroke-width="2" x1="179.0" x2="161.2" y1="176.0" y2="158.3" /><line stroke="black" stroke-width="2" x1="179.0" x2="179.0" y1="176.0" y2="151.0" /><line stroke="black" stroke-width="2" x1="179.0" x2="196.8" y1="176.0" y2="158.3" /><path d="M204.0,176.0 Q211.3,190.4 196.8,193.7" fill="none" stroke="black" stroke-width="2" /><path d="M196.8,193.7 Q192.4,208.4 179.0,201.0" fill="none" stroke="black" stroke-width="2" /><path d="M179.0,201.0 Q165.6,208.4 161.2,193.7" fill="none" stroke="black" stroke-width="2" /><path d="M161.2,193.7 Q151.7,190.4 154.0,176.0" fill="none" stroke="black" stroke-width="2" /><path d="M154.0,176.0 Q151.7,161.6 161.2,158.3" fill="none" stroke="black" stroke-width="2" /><path d="M161.2,158.3 Q165.6,143.6 179.0,151.0" fill="none" stroke="black" stroke-width="2" /><path d="M179.0,151.0 Q192.4,143.6 196.8,158.3" fill="none" stroke="black" stroke-width="2" /><path d="M196.8,158.3 Q211.3,161.6 204.0,176.0" fill="none" stroke="black" stroke-width="2" /><path d="M215.9,191.3 Q249.0,176.0 215.9,160.7" fill="none" stroke="black" stroke-width="2" /><path d="M194.3,212.9 Q228.5,225.5 215.9,191.3" fill="none" stroke="black" stroke-width="2" /><path d="M163.7,212.9 Q179.0,246.0 194.3,212.9" fill="none" stroke="black" stroke-width="2" /><path d="M142.1,191.3 Q129.5,225.5 163.7,212.9" fill="none" stroke="black" stroke-width="2" /><path d="M142.1,160.7 Q109.0,176.0 142.1,191.3" fill="none" stroke="black" stroke-width="2" /><path d="M163.7,139.1 Q129.5,126.5 142.1,160.7" fill="none" stroke="black" stroke-width="2" /><path d="M194.3,139.1 Q179.0,106.0 163.7,139.1" fill="none" stroke="black" stroke-width="2" /><path d="M215.9,160.7 Q228.5,126.5 194.3,139.1" fill="none" stroke="black" stroke-width="2" /><line stroke="black" stroke-width="2" x1="179.0" x2="215.9" y1="176.0" y2="191.3" /><line stroke="black" stroke-width="2" x1="179.0" x2="194.3" y1="176.0" y2="212.9" /><line stroke="black" stroke-width="2" x1="179.0" x2="163.7" y1="176.0" y2="212.9" /><line stroke="black" stroke-width="2" x1="179.0" x2="142.1" y1="176.0" y2="191.3" /><line stroke="black" stroke-width="2" x1="179.0" x2="142.1" y1="176.0" y2="160.7" /><line stroke="black" stroke-width="2" x1="179.0" x2="163.7" y1="176.0" y2="139.1" /><line stroke="black" stroke-width="2" x1="179.0" x2="194.3" y1="176.0" y2="139.1" /><line stroke="black" stroke-width="2" x1="179.0" x2="215.9" y1="176.0" y2="160.7" /><line stroke="black" stroke-width="2" x1="204.0" x2="179.0" y1="176.0" y2="201.0" /><line stroke="black" stroke-width="2" x1="179.0" x2="154.0" y1="201.0" y2="176.0" /><line stroke="black" stroke-width="2" x1="154.0" x2="179.0" y1="176.0" y2="151.0" /><line stroke="black" stroke-width="2" x1="179.0" x2="204.0" y1="151.0" y2="176.0" /><line stroke="black" stroke-width="2" x1="196.8" x2="161.2" y1="193.7" y2="193.7" /><line stroke="black" stroke-width="2" x1="161.2" x2="161.2" y1="193.7" y2="158.3" /><line stroke="black" stroke-width="2" x1="161.2" x2="196.8" y1="158.3" y2="158.3" /><line stroke="black" stroke-width="2" x1="196.8" x2="196.8" y1="158.3" y2="193.7" /></svg>