<?xml version="1.0" encoding="utf-8" ?>
<svg baseProfile="tiny" height="100%" version="1.2" viewBox="0,0,500,500" width="100%" xmlns="http://www.w3.org/2000/svg" xmlns:ev="http://www.w3.org/2001/xml-events" xmlns:xlink="http://www.w3.org/1999/xlink"><defs /><circle cx="112.0" cy="112.0" fill="black" r="3" /><circle cx="112.0" cy="92.0" fill="black" r="3" /><circle cx="132.0" cy="112.0" fill="black" r="3" /><circle cx="112.0" cy="132.0" fill="black" r="3" /><circle cx="92.0" cy="112.0" fill="black" r="3" /><circle cx="112.0" cy="72.0" fill="black" r="3" /><circle cx="152.0" cy="112.0" fill="black" r="3" /><circle cx="112.0" cy="152.0" fill="black" r="3" /><circle cx="72.0" cy="112.0" fill="black" r="3" /><circle cx="140.28" cy="83.72" fill="black" r="3" /><circle cx="140.28" cy="140.28" fill="black" r="3" /><circle cx="83.72" cy="140.28" fill="black" r="3" /><circle cx="83.72" cy="83.72" fill="black" r="3" /><circle cx="154.42" cy="69.58" fill="black" r="3" /><circle cx="154.42" cy="154.42" fill="black" r="3" /><circle cx="69.58" cy="154.42" fill="black" r="3" /><circle cx="69.58" cy="69.58" fill="black" r="3" /><line stroke="black" stroke-width="2" x1="112.0" x2="112.0" y1="112.0" y2="92.0" /><line stroke="black" stroke-width="2" x1="112.0" x2="132.0" y1="112.0" y2="112.0" /><line stroke="black" stroke-width="2" x1="112.0" x2="112.0" y1="112.0" y2="132.0" /><line stroke="black" stroke-width="2" x1="112.0" x2="92.0" y1="112.0" y2="112.0" /><line stroke="black" stroke-width="2" x1="112.0" x2="140.28" y1="112.0" y2="83.72" /><line stroke="black" stroke-width="2" x1="112.0" x2="140.28" y1="112.0" y2="140.28" /><line stroke="black" stroke-width="2" x1="112.0" x2="83.72" y1="112.0" y2="140.28" /><line stroke="black" stroke-width="2" x1="112.0" x2="83.72" y1="112.0" y2="83.72" /><line stroke="black" stroke-width="2" x1="112.0" x2="132.0" y1="92.0" y2="112.0" /><line stroke="black" stroke-width="2" x1="132.0" x2="112.0" y1="112.0" y2="132.0" /><line stroke="black" stroke-width="2" x1="112.0" x2="92.0" y1="132.0" y2="112.0" /><line stroke="black" stroke-width="2" x1="92.0" x2="112.0" y1="112.0" y2="92.0" /><line stroke="black" stroke-width="2" x1="140.28" x2="140.28" y1="83.72" y2="140.28" /><line stroke="black" stroke-width="2" x1="140.28" x2="83.72" y1="140.28" y2="140.28" /><line stroke="black" stroke-width="2" x1="83.72" x2="83.72" y1="140.28" y2="83.72" /><line stroke="black" stroke-width="2" x1="83.72" x2="140.28" y1="83.72" y2="83.72" /><path d="M112.0,92.0 Q133.21,75.79 140.28,83.72" fill="none" stroke="black" stroke-width="2" /><path d="M140.28,83.72 Q148.21,90.79 132.0,112.0" fill="none" stroke="black" stroke-width="2" /><path d="M132.0,112.0 Q148.21,133.21 140.28,140.28" fill="none" stroke="black" stroke-width="2" /><path d="M140.28,140.28 Q133.21,148.21 112.0,132.0" fill="none" stroke="black" stroke-width="2" /><path d="M112.0,132.0 Q90.79,148.21 83.72,140.28" fill="none" stroke="black" stroke-width="2" /><path d="M83.72,140.28 Q75.79,133.21 92.0,112.0" fill="none" stroke="black" stroke-width="2" /><path d="M92.0,112.0 Q75.79,90.79 83.72,83.72" fill="none" stroke="black" stroke-width="2" /><path d="M83.72,83.72 Q90.79,75.79 112.0,92.0" fill="none" stroke="black" stroke-width="2" /><path d="M112.0,72.0 Q143.82,50.19 154.42,69.58" fill="none" stroke="black" stroke-width="2" /><path d="M154.42,69.58 Q173.82,80.19 152.0,112.0" fill="none" stroke="black" stroke-width="2" /><path d="M152.0,112.0 Q173.82,143.82 154.42,154.42" fill="none" stroke="black" stroke-width="2" /><path d="M154.42,154.42 Q143.82,173.82 112.0,152.0" fill="none" stroke="black" stroke-width="2" /><path d="M112.0,152.0 Q80.19,173.82 69.58,154.42" fill="none" stroke="black" stroke-width="2" /><path d="M69.58,154.42 Q50.19,143.82 72.0,112.0" fill="none" stroke="black" stroke-width="2" /><path d="M72.0,112.0 Q50.19,80.19 69.58,69.58" fill="none" stroke="black" stroke-width="2" /><path d="M69.58,69.58 Q80.19,50.19 112.0,72.0" fill="none" stroke="black" stroke-width="2" /><line stroke="black" stroke-width="2" x1="112.0" x2="83.72" y1="92.0" y2="83.72" /><line stroke="black" stroke-width="2" x1="112.0" x2="140.28" y1="92.0" y2="83.72" /><line stroke="black" stroke-width="2" x1="132.0" x2="140.28" y1="112.0" y2="83.72" /><line stroke="black" stroke-width="2" x1="132.0" x2="140.28" y1="112.0" y2="140.28" /><line stroke="black" stroke-width="2" x1="112.0" x2="140.28" y1="132.0" y2="140.28" /><line stroke="black" stroke-width="2" x1="112.0" x2="83.72" y1="132.0" y2="140.28" /><line stroke="black" stroke-width="2" x1="92.0" x2="83.72" y1="112.0" y2="140.28" /><line stroke="black" stroke-width="2" x1="92.0" x2="83.72" y1="112.0" y2="83.72" /></svg>