<?xml version="1.0" encoding="utf-8" ?>
<svg baseProfile="tiny" height="100%" version="1.2" viewBox="0,0,500,500" width="100%" xmlns="http://www.w3.org/2000/svg" xmlns:ev="http://www.w3.org/2001/xml-events" xmlns:xlink="http://www.w3.org/1999/xlink"><defs /><circle cx="300.0" cy="300.0" fill="black" r="3" /><circle cx="500.0" cy="300.0" fill="black" r="3" /><circle cx="441.42" cy="441.42" fill="black" r="3" /><circle cx="300.0" cy="500.0" fill="black" r="3" /><circle cx="158.58" cy="441.42" fill="black" r="3" /><circle cx="100.0" cy="300.0" fill="black" r="3" /><circle cx="158.58" cy="158.58" fill="black" r="3" /><circle cx="300.0" cy="100.0" fill="black" r="3" /><circle cx="441.42" cy="158.58" fill="black" r="3" /><circle cx="392.39" cy="338.27" fill="black" r="3" /><circle cx="338.27" cy="392.39" fill="black" r="3" /><circle cx="261.73" cy="392.39" fill="black" r="3" /><circle cx="207.61" cy="338.27" fill="black" r="3" /><circle cx="207.61" cy="261.73" fill="black" r="3" /><circle cx="261.73" cy="207.61" fill="black" r="3" /><circle cx="338.27" cy="207.61" fill="black" r="3" /><circle cx="392.39" cy="261.73" fill="black" r="3" /><circle cx="350.0" cy="300.0" fill="black" r="3" /><circle cx="335.35" cy="335.35" fill="black" r="3" /><circle cx="300.0" cy="350.0" fill="black" r="3" /><circle cx="264.65" cy="335.35" fill="black" r="3" /><circle cx="250.0" cy="300.0" fill="black" r="3" /><circle cx="264.65" cy="264.65" fill="black" r="3" /><circle cx="300.0" cy="250.0" fill="black" r="3" /><circle cx="335.35" cy="264.65" fill="black" r="3" /><line stroke="black" stroke-width="2" x1="300.0" x2="350.0" y1="300.0" y2="300.0" /><line stroke="black" stroke-width="2" x1="300.0" x2="335.35" y1="300.0" y2="335.35" /><line stroke="black" stroke-width="2" x1="300.0" x2="300.0" y1="300.0" y2="350.0" /><line stroke="black" stroke-width="2" x1="300.0" x2="264.65" y1="300.0" y2="335.35" /><line stroke="black" stroke-width="2" x1="300.0" x2="250.0" y1="300.0" y2="300.0" /><line stroke="black" stroke-width="2" x1="300.0" x2="264.65" y1="300.0" y2="264.65" /><line stroke="black" stroke-width="2" x1="300.0" x2="300.0" y1="300.0" y2="250.0" /><line stroke="black" stroke-width="2" x1="300.0" x2="335.35" y1="300.0" y2="264.65" /><line stroke="black" stroke-width="2" x1="350.0" x2="335.35" y1="300.0" y2="335.35" /><line stroke="black" stroke-width="2" x1="335.35" x2="300.0" y1="335.35" y2="350.0" /><line stroke="black" stroke-width="2" x1="300.0" x2="264.65" y1="350.0" y2="335.35" /><line stroke="black" stroke-width="2" x1="264.65" x2="250.0" y1="335.35" y2="300.0" /><line stroke="black" stroke-width="2" x1="250.0" x2="264.65" y1="300.0" y2="264.65" /><line stroke="black" stroke-width="2" x1="264.65" x2="300.0" y1="264.65" y2="250.0" /><line stroke="black" stroke-width="2" x1="300.0" x2="335.35" y1="250.0" y2="264.65" /><line stroke="black" stroke-width="2" x1="335.35" x2="350.0" y1="264.65" y2="300.0" /><line stroke="black" stroke-width="2" x1="350.0" x2="392.39" y1="300.0" y2="338.27" /><line stroke="black" stroke-width="2" x1="335.35" x2="338.27" y1="335.35" y2="392.39" /><line stroke="black" stroke-width="2" x1="300.0" x2="261.73" y1="350.0" y2="392.39" /><line stroke="black" stroke-width="2" x1="264.65" x2="207.61" y1="335.35" y2="338.27" /><line stroke="black" stroke-width="2" x1="250.0" x2="207.61" y1="300.0" y2="261.73" /><line stroke="black" stroke-width="2" x1="264.65" x2="261.73" y1="264.65" y2="207.61" /><line stroke="black" stroke-width="2" x1="300.0" x2="338.27" y1="250.0" y2="207.61" /><line stroke="black" stroke-width="2" x1="335.35" x2="392.39" y1="264.65" y2="261.73" /><path d="M392.39,338.27 Q500.0,300.0 338.27,392.39" fill="none" stroke="black" stroke-width="2" /><path d="M338.27,392.39 Q441.42,441.42 261.73,392.39" fill="none" stroke="black" stroke-width="2" /><path d="M261.73,392.39 Q300.0,500.0 207.61,338.27" fill="none" stroke="black" stroke-width="2" /><path d="M207.61,338.27 Q158.58,441.42 207.61,261.73" fill="none" stroke="black" stroke-width="2" /><path d="M207.61,261.73 Q100.0,300.0 261.73,207.61" fill="none" stroke="black" stroke-width="2" /><path d="M261.73,207.61 Q158.58,158.58 338.27,207.61" fill="none" stroke="black" stroke-width="2" /><path d="M338.27,207.61 Q300.0,100.0 392.39,261.73" fill="none" stroke="black" stroke-width="2" /><path d="M392.39,261.73 Q441.42,158.58 392.39,338.27" fill="none" stroke="black" stroke-width="2" /><line stroke="black" stroke-width="2" x1="392.39" x2="500.0" y1="338.27" y2="300.0" /><line stroke="black" stroke-width="2" x1="338.27" x2="441.42" y1="392.39" y2="441.42" /><line stroke="black" stroke-width="2" x1="261.73" x2="300.0" y1="392.39" y2="500.0" /><line stroke="black" stroke-width="2" x1="207.61" x2="158.58" y1="338.27" y2="441.42" /><line stroke="black" stroke-width="2" x1="207.61" x2="100.0" y1="261.73" y2="300.0" /><line stroke="black" stroke-width="2" x1="261.73" x2="158.58" y1="207.61" y2="158.58" /><line stroke="black" stroke-width="2" x1="338.27" x2="300.0" y1="207.61" y2="100.0" /><line stroke="black" stroke-width="2" x1="392.39" x2="441.42" y1="261.73" y2="158.58" /></svg>