<?xml version="1.0" encoding="utf-8" ?>
<svg baseProfile="tiny" height="100%" version="1.2" viewBox="0,0,500,500" width="100%" xmlns="http://www.w3.org/2000/svg" xmlns:ev="http://www.w3.org/2001/xml-events" xmlns:xlink="http://www.w3.org/1999/xlink"><defs /><circle cx="100.0" cy="100.0" fill="black" r="3" /><circle cx="100.0" cy="80.0" fill="black" r="3" /><circle cx="120.0" cy="100.0" fill="black" r="3" /><circle cx="100.0" cy="120.0" fill="black" r="3" /><circle cx="80.0" cy="100.0" fill="black" r="3" /><circle cx="100.0" cy="40.0" fill="black" r="3" /><circle cx="160.0" cy="100.0" fill="black" r="3" /><circle cx="100.0" cy="160.0" fill="black" r="3" /><circle cx="40.0" cy="100.0" fill="black" r="3" /><circle cx="130.0" cy="70.0" fill="black" r="3" /><circle cx="130.0" cy="130.0" fill="black" r="3" /><circle cx="70.0" cy="130.0" fill="black" r="3" /><circle cx="70.0" cy="70.0" fill="black" r="3" /><circle cx="140.0" cy="60.0" fill="black" r="3" /><circle cx="140.0" cy="140.0" fill="black" r="3" /><circle cx="60.0" cy="140.0" fill="black" r="3" /><circle cx="60.0" cy="60.0" fill="black" r="3" /><line stroke="black" stroke-width="2" x1="100.0" x2="100.0" y1="100.0" y2="80.0" /><line stroke="black" stroke-width="2" x1="100.0" x2="120.0" y1="100.0" y2="100.0" /><line stroke="black" stroke-width="2" x1="100.0" x2="100.0" y1="100.0" y2="120.0" /><line stroke="black" stroke-width="2" x1="100.0" x2="80.0" y1="100.0" y2="100.0" /><line stroke="black" stroke-width="2" x1="100.0" x2="130.0" y1="100.0" y2="70.0" /><line stroke="black" stroke-width="2" x1="100.0" x2="130.0" y1="100.0" y2="130.0" /><line stroke="black" stroke-width="2" x1="100.0" x2="70.0" y1="100.0" y2="130.0" /><line stroke="black" stroke-width="2" x1="100.0" x2="70.0" y1="100.0" y2="70.0" /><line stroke="black" stroke-width="2" x1="100.0" x2="130.0" y1="80.0" y2="70.0" /><line stroke="black" stroke-width="2" x1="100.0" x2="70.0" y1="80.0" y2="70.0" /><line stroke="black" stroke-width="2" x1="120.0" x2="130.0" y1="100.0" y2="70.0" /><line stroke="black" stroke-width="2" x1="120.0" x2="130.0" y1="100.0" y2="130.0" /><line stroke="black" stroke-width="2" x1="100.0" x2="130.0" y1="120.0" y2="130.0" /><line stroke="black" stroke-width="2" x1="100.0" x2="70.0" y1="120.0" y2="130.0" /><line stroke="black" stroke-width="2" x1="80.0" x2="70.0" y1="100.0" y2="130.0" /><line stroke="black" stroke-width="2" x1="80.0" x2="70.0" y1="100.0" y2="70.0" /><line stroke="black" stroke-width="2" x1="100.0" x2="60.0" y1="40.0" y2="60.0" /><line stroke="black" stroke-width="2" x1="100.0" x2="140.0" y1="40.0" y2="60.0" /><line stroke="black" stroke-width="2" x1="160.0" x2="140.0" y1="100.0" y2="60.0" /><line stroke="black" stroke-width="2" x1="160.0" x2="140.0" y1="100.0" y2="140.0" /><line stroke="black" stroke-width="2" x1="100.0" x2="140.0" y1="160.0" y2="140.0" /><line stroke="black" stroke-width="2" x1="100.0" x2="60.0" y1="160.0" y2="140.0" /><line stroke="black" stroke-width="2" x1="40.0" x2="60.0" y1="100.0" y2="140.0" /><line stroke="black" stroke-width="2" x1="40.0" x2="60.0" y1="100.0" y2="60.0" /><path d="M100.0,40.0 Q130.0,70.0 160.0,100.0" fill="none" stroke="black" stroke-width="2" /><path d="M160.0,100.0 Q130.0,130.0 100.0,160.0" fill="none" stroke="black" stroke-width="2" /><path d="M100.0,160.0 Q70.0,130.0 40.0,100.0" fill="none" stroke="black" stroke-width="2" /><path d="M40.0,100.0 Q70.0,70.0 100.0,40.0" fill="none" stroke="black" stroke-width="2" /><path d="M100.0,80.0 Q110.0,70.0 120.0,100.0" fill="none" stroke="black" stroke-width="2" /><path d="M120.0,100.0 Q130.0,110.0 100.0,120.0" fill="none" stroke="black" stroke-width="2" /><path d="M100.0,120.0 Q90.0,130.0 80.0,100.0" fill="none" stroke="black" stroke-width="2" /><path d="M80.0,100.0 Q70.0,90.0 100.0,80.0" fill="none" stroke="black" stroke-width="2" /></svg>