<?xml version="1.0" encoding="utf-8" ?>
<svg baseProfile="tiny" height="100%" version="1.2" viewBox="0,0,500,500" width="100%" xmlns="http://www.w3.org/2000/svg" xmlns:ev="http://www.w3.org/2001/xml-events" xmlns:xlink="http://www.w3.org/1999/xlink"><defs /><circle cx="115.0" cy="115.0" fill="black" r="3" /><circle cx="140.0" cy="115.0" fill="black" r="3" /><circle cx="132.7" cy="132.7" fill="black" r="3" /><circle cx="115.0" cy="140.0" fill="black" r="3" /><circle cx="97.3" cy="132.7" fill="black" r="3" /><circle cx="90.0" cy="115.0" fill="black" r="3" /><circle cx="97.3" cy="97.3" fill="black" r="3" /><circle cx="115.0" cy="90.0" fill="black" r="3" /><circle cx="132.7" cy="97.3" fill="black" r="3" /><circle cx="175.0" cy="115.0" fill="black" r="3" /><circle cx="157.4" cy="157.4" fill="black" r="3" /><circle cx="115.0" cy="175.0" fill="black" r="3" /><circle cx="72.6" cy="157.4" fill="black" r="3" /><circle cx="55.0" cy="115.0" fill="black" r="3" /><circle cx="72.6" cy="72.6" fill="black" r="3" /><circle cx="115.0" cy="55.0" fill="black" r="3" /><circle cx="157.4" cy="72.6" fill="black" r="3" /><circle cx="205.0" cy="115.0" fill="black" r="3" /><circle cx="178.6" cy="178.6" fill="black" r="3" /><circle cx="115.0" cy="205.0" fill="black" r="3" /><circle cx="51.4" cy="178.6" fill="black" r="3" /><circle cx="25.0" cy="115.0" fill="black" r="3" /><circle cx="51.4" cy="51.4" fill="black" r="3" /><circle cx="115.0" cy="25.0" fill="black" r="3" /><circle cx="178.6" cy="51.4" fill="black" r="3" /><line stroke="black" stroke-width="2" x1="115.0" x2="140.0" y1="115.0" y2="115.0" /><line stroke="black" stroke-width="2" x1="115.0" x2="132.7" y1="115.0" y2="132.7" /><line stroke="black" stroke-width="2" x1="115.0" x2="115.0" y1="115.0" y2="140.0" /><line stroke="black" stroke-width="2" x1="115.0" x2="97.3" y1="115.0" y2="132.7" /><line stroke="black" stroke-width="2" x1="115.0" x2="90.0" y1="115.0" y2="115.0" /><line stroke="black" stroke-width="2" x1="115.0" x2="97.3" y1="115.0" y2="97.3" /><line stroke="black" stroke-width="2" x1="115.0" x2="115.0" y1="115.0" y2="90.0" /><line stroke="black" stroke-width="2" x1="115.0" x2="132.7" y1="115.0" y2="97.3" /><path d="M140.0,115.0 Q147.3,128.4 132.7,132.7" fill="none" stroke="black" stroke-width="2" /><path d="M132.7,132.7 Q128.4,147.3 115.0,140.0" fill="none" stroke="black" stroke-width="2" /><path d="M115.0,140.0 Q101.7,147.3 97.3,132.7" fill="none" stroke="black" stroke-width="2" /><path d="M97.3,132.7 Q86.7,128.4 90.0,115.0" fill="none" stroke="black" stroke-width="2" /><path d="M90.0,115.0 Q86.7,101.7 97.3,97.3" fill="none" stroke="black" stroke-width="2" /><path d="M97.3,97.3 Q101.7,86.7 115.0,90.0" fill="none" stroke="black" stroke-width="2" /><path d="M115.0,90.0 Q128.4,86.7 132.7,97.3" fill="none" stroke="black" stroke-width="2" /><path d="M132.7,97.3 Q147.3,101.7 140.0,115.0" fill="none" stroke="black" stroke-width="2" /><line stroke="black" stroke-width="2" x1="140.0" x2="175.0" y1="115.0" y2="115.0" /><line stroke="black" stroke-width="2" x1="132.7" x2="157.4" y1="132.7" y2="157.4" /><line stroke="black" stroke-width="2" x1="115.0" x2="115.0" y1="140.0" y2="175.0" /><line stroke="black" stroke-width="2" x1="97.3" x2="72.6" y1="132.7" y2="157.4" /><line stroke="black" stroke-width="2" x1="90.0" x2="55.0" y1="115.0" y2="115.0" /><line stroke="black" stroke-width="2" x1="97.3" x2="72.6" y1="97.3" y2="72.6" /><line stroke="black" stroke-width="2" x1="115.0" x2="115.0" y1="90.0" y2="55.0" /><line stroke="black" stroke-width="2" x1="132.7" x2="157.4" y1="97.3" y2="72.6" /><line stroke="black" stroke-width="2" x1="175.0" x2="157.4" y1="115.0" y2="157.4" /><line stroke="black" stroke-width="2" x1="157.4" x2="115.0" y1="157.4" y2="175.0" /><line stroke="black" stroke-width="2" x1="115.0" x2="72.6" y1="175.0" y2="157.4" /><line stroke="black" stroke-width="2" x1="72.6" x2="55.0" y1="157.4" y2="115.0" /><line stroke="black" stroke-width="2" x1="55.0" x2="72.6" y1="115.0" y2="72.6" /><line stroke="black" stroke-width="2" x1="72.6" x2="115.0" y1="72.6" y2="55.0" /><line stroke="black" stroke-width="2" x1="115.0" x2="157.4" y1="55.0" y2="72.6" /><line stroke="black" stroke-width="2" x1="157.4" x2="175.0" y1="72.6" y2="115.0" /><path d="M157.4,72.6 Q230.9,84.0 205.0,115.0" fill="none" stroke="black" stroke-width="2" /><path d="M205.0,115.0 Q230.9,146.1 175.0,115.0" fill="none" stroke="black" stroke-width="2" /><path d="M175.0,115.0 Q196.1,205.9 178.6,178.6" fill="none" stroke="black" stroke-width="2" /><path d="M178.6,178.6 Q146.1,230.9 157.4,157.4" fill="none" stroke="black" stroke-width="2" /><path d="M157.4,157.4 Q84.0,230.9 115.0,205.0" fill="none" stroke="black" stroke-width="2" /><path d="M115.0,205.0 Q31.0,230.9 115.0,175.0" fill="none" stroke="black" stroke-width="2" /><path d="M115.0,175.0 Q-0.9,196.1 51.4,178.6" fill="none" stroke="black" stroke-width="2" /><path d="M51.4,178.6 Q-0.9,146.1 72.6,157.4" fill="none" stroke="black" stroke-width="2" /><path d="M72.6,157.4 Q-0.9,84.0 25.0,115.0" fill="none" stroke="black" stroke-width="2" /><path d="M25.0,115.0 Q-0.9,31.0 55.0,115.0" fill="none" stroke="black" stroke-width="2" /><path d="M55.0,115.0 Q31.0,-0.9 51.4,51.4" fill="none" stroke="black" stroke-width="2" /><path d="M51.4,51.4 Q84.0,-0.9 72.6,72.6" fill="none" stroke="black" stroke-width="2" /><path d="M72.6,72.6 Q146.1,-0.9 115.0,25.0" fill="none" stroke="black" stroke-width="2" /><path d="M115.0,25.0 Q196.1,-0.9 115.0,55.0" fill="none" stroke="black" stroke-width="2" /><path d="M115.0,55.0 Q230.9,31.0 178.6,51.4" fill="none" stroke="black" stroke-width="2" /><path d="M178.6,51.4 Q230.9,84.0 157.4,72.6" fill="none" stroke="black" stroke-width="2" /></svg>