<?xml version="1.0" encoding="utf-8" ?>
<svg baseProfile="tiny" height="100%" version="1.2" viewBox="0,0,500,500" width="100%" xmlns="http://www.w3.org/2000/svg" xmlns:ev="http://www.w3.org/2001/xml-events" xmlns:xlink="http://www.w3.org/1999/xlink"><defs /><circle cx="125.0" cy="125.0" fill="black" r="3" /><circle cx="150.0" cy="125.0" fill="black" r="3" /><circle cx="142.6777" cy="142.6777" fill="black" r="3" /><circle cx="125.0" cy="150.0" fill="black" r="3" /><circle cx="107.3223" cy="142.6777" fill="black" r="3" /><circle cx="100.0" cy="125.0" fill="black" r="3" /><circle cx="107.3223" cy="107.3223" fill="black" r="3" /><circle cx="125.0" cy="100.0" fill="black" r="3" /><circle cx="142.6777" cy="107.3223" fill="black" r="3" /><circle cx="184.9522" cy="149.8744" fill="black" r="3" /><circle cx="149.8744" cy="184.9522" fill="black" r="3" /><circle cx="100.1256" cy="184.9522" fill="black" r="3" /><circle cx="65.0478" cy="149.8744" fill="black" r="3" /><circle cx="65.0478" cy="100.1256" fill="black" r="3" /><circle cx="100.1256" cy="65.0478" fill="black" r="3" /><circle cx="149.8744" cy="65.0478" fill="black" r="3" /><circle cx="184.9522" cy="100.1256" fill="black" r="3" /><circle cx="225.0" cy="125.0" fill="black" r="3" /><circle cx="195.7107" cy="195.7107" fill="black" r="3" /><circle cx="125.0" cy="225.0" fill="black" r="3" /><circle cx="54.2893" cy="195.7107" fill="black" r="3" /><circle cx="25.0" cy="125.0" fill="black" r="3" /><circle cx="54.2893" cy="54.2893" fill="black" r="3" /><circle cx="125.0" cy="25.0" fill="black" r="3" /><circle cx="195.7107" cy="54.2893" fill="black" r="3" /><line stroke="black" stroke-width="2" x1="125.0" x2="150.0" y1="125.0" y2="125.0" /><line stroke="black" stroke-width="2" x1="125.0" x2="142.6777" y1="125.0" y2="142.6777" /><line stroke="black" stroke-width="2" x1="125.0" x2="125.0" y1="125.0" y2="150.0" /><line stroke="black" stroke-width="2" x1="125.0" x2="107.3223" y1="125.0" y2="142.6777" /><line stroke="black" stroke-width="2" x1="125.0" x2="100.0" y1="125.0" y2="125.0" /><line stroke="black" stroke-width="2" x1="125.0" x2="107.3223" y1="125.0" y2="107.3223" /><line stroke="black" stroke-width="2" x1="125.0" x2="125.0" y1="125.0" y2="100.0" /><line stroke="black" stroke-width="2" x1="125.0" x2="142.6777" y1="125.0" y2="107.3223" /><line stroke="black" stroke-width="2" x1="150.0" x2="125.0" y1="125.0" y2="150.0" /><line stroke="black" stroke-width="2" x1="125.0" x2="100.0" y1="150.0" y2="125.0" /><line stroke="black" stroke-width="2" x1="100.0" x2="125.0" y1="125.0" y2="100.0" /><line stroke="black" stroke-width="2" x1="125.0" x2="150.0" y1="100.0" y2="125.0" /><line stroke="black" stroke-width="2" x1="142.6777" x2="107.3223" y1="142.6777" y2="142.6777" /><line stroke="black" stroke-width="2" x1="107.3223" x2="107.3223" y1="142.6777" y2="107.3223" /><line stroke="black" stroke-width="2" x1="107.3223" x2="142.6777" y1="107.3223" y2="107.3223" /><line stroke="black" stroke-width="2" x1="142.6777" x2="142.6777" y1="107.3223" y2="142.6777" /><path d="M150.0,125.0 Q203.0673428,157.327827 184.9521696,149.8744231" fill="none" stroke="black" stroke-width="2" /><path d="M184.9521696,149.8744231 Q203.0673428,157.327827 142.6776695,142.6776695" fill="none" stroke="black" stroke-width="2" /><path d="M142.6776695,142.6776695 Q157.327827,203.0673428 149.8744231,184.9521696" fill="none" stroke="black" stroke-width="2" /><path d="M149.8744231,184.9521696 Q157.327827,203.0673428 125.0,150.0" fill="none" stroke="black" stroke-width="2" /><path d="M125.0,150.0 Q92.672173,203.0673428 100.1255769,184.9521696" fill="none" stroke="black" stroke-width="2" /><path d="M100.1255769,184.9521696 Q92.672173,203.0673428 107.3223305,142.6776695" fill="none" stroke="black" stroke-width="2" /><path d="M107.3223305,142.6776695 Q46.9326572,157.327827 65.0478304,149.8744231" fill="none" stroke="black" stroke-width="2" /><path d="M65.0478304,149.8744231 Q46.9326572,157.327827 100.0,125.0" fill="none" stroke="black" stroke-width="2" /><path d="M100.0,125.0 Q46.9326572,92.672173 65.0478304,100.1255769" fill="none" stroke="black" stroke-width="2" /><path d="M65.0478304,100.1255769 Q46.9326572,92.672173 107.3223305,107.3223305" fill="none" stroke="black" stroke-width="2" /><path d="M107.3223305,107.3223305 Q92.672173,46.9326572 100.1255769,65.0478304" fill="none" stroke="black" stroke-width="2" /><path d="M100.1255769,65.0478304 Q92.672173,46.9326572 125.0,100.0" fill="none" stroke="black" stroke-width="2" /><path d="M125.0,100.0 Q157.327827,46.9326572 149.8744231,65.0478304" fill="none" stroke="black" stroke-width="2" /><path d="M149.8744231,65.0478304 Q157.327827,46.9326572 142.6776695,107.3223305" fill="none" stroke="black" stroke-width="2" /><path d="M142.6776695,107.3223305 Q203.0673428,92.672173 184.9521696,100.1255769" fill="none" stroke="black" stroke-width="2" /><path d="M184.9521696,100.1255769 Q203.0673428,92.672173 150.0,125.0" fill="none" stroke="black" stroke-width="2" /><line stroke="black" stroke-width="2" x1="184.9522" x2="195.7107" y1="149.8744" y2="195.7107" /><line stroke="black" stroke-width="2" x1="149.8744" x2="125.0" y1="184.9522" y2="225.0" /><line stroke="black" stroke-width="2" x1="100.1256" x2="54.2893" y1="184.9522" y2="195.7107" /><line stroke="black" stroke-width="2" x1="65.0478" x2="25.0" y1="149.8744" y2="125.0" /><line stroke="black" stroke-width="2" x1="65.0478" x2="54.2893" y1="100.1256" y2="54.2893" /><line stroke="black" stroke-width="2" x1="100.1256" x2="125.0" y1="65.0478" y2="25.0" /><line stroke="black" stroke-width="2" x1="149.8744" x2="195.7107" y1="65.0478" y2="54.2893" /><line stroke="black" stroke-width="2" x1="184.9522" x2="225.0" y1="100.1256" y2="125.0" /><line stroke="black" stroke-width="2" x1="225.0" x2="195.7107" y1="125.0" y2="195.7107" /><line stroke="black" stroke-width="2" x1="195.7107" x2="125.0" y1="195.7107" y2="225.0" /><line stroke="black" stroke-width="2" x1="125.0" x2="54.2893" y1="225.0" y2="195.7107" /><line stroke="black" stroke-width="2" x1="54.2893" x2="25.0" y1="195.7107" y2="125.0" /><line stroke="black" stroke-width="2" x1="25.0" x2="54.2893" y1="125.0" y2="54.2893" /><line stroke="black" stroke-width="2" x1="54.2893" x2="125.0" y1="54.2893" y2="25.0" /><line stroke="black" stroke-width="2" x1="125.0" x2="195.7107" y1="25.0" y2="54.2893" /><line stroke="black" stroke-width="2" x1="195.7107" x2="225.0" y1="54.2893" y2="125.0" /></svg>