<?xml version="1.0" encoding="utf-8" ?>
<svg baseProfile="tiny" height="100%" version="1.2" viewBox="0,0,500,500" width="100%" xmlns="http://www.w3.org/2000/svg" xmlns:ev="http://www.w3.org/2001/xml-events" xmlns:xlink="http://www.w3.org/1999/xlink"><defs /><circle cx="160.0" cy="134.0" fill="black" r="3" /><circle cx="58.0" cy="163.0" fill="black" r="3" /><circle cx="124.0" cy="164.0" fill="black" r="3" /><circle cx="107.0" cy="30.0" fill="black" r="3" /><circle cx="149.0" cy="86.0" fill="black" r="3" /><circle cx="115.0" cy="46.0" fill="black" r="3" /><circle cx="118.0" cy="195.0" fill="black" r="3" /><circle cx="79.0" cy="148.0" fill="black" r="3" /><circle cx="185.0" cy="22.0" fill="black" r="3" /><circle cx="77.0" cy="201.0" fill="black" r="3" /><circle cx="183.0" cy="82.0" fill="black" r="3" /><circle cx="110.0" cy="77.0" fill="black" r="3" /><circle cx="167.0" cy="181.0" fill="black" r="3" /><circle cx="155.0" cy="33.0" fill="black" r="3" /><circle cx="113.0" cy="120.0" fill="black" r="3" /><circle cx="70.0" cy="101.0" fill="black" r="3" /><circle cx="47.0" cy="117.0" fill="black" r="3" /><circle cx="204.0" cy="111.0" fill="black" r="3" /><circle cx="61.0" cy="191.0" fill="black" r="3" /><circle cx="64.0" cy="44.0" fill="black" r="3" /><circle cx="57.0" cy="73.0" fill="black" r="3" /><circle cx="27.0" cy="104.0" fill="black" r="3" /><circle cx="111.0" cy="180.0" fill="black" r="3" /><circle cx="179.0" cy="152.0" fill="black" r="3" /><circle cx="26.0" cy="126.0" fill="black" r="3" /><circle cx="149.0" cy="203.0" fill="black" r="3" /><circle cx="97.0" cy="151.0" fill="black" r="3" /><circle cx="202.0" cy="134.0" fill="black" r="3" /><circle cx="172.0" cy="49.0" fill="black" r="3" /><circle cx="188.0" cy="58.0" fill="black" r="3" /><circle cx="131.0" cy="214.0" fill="black" r="3" /><circle cx="170.0" cy="66.0" fill="black" r="3" /><circle cx="228.0" cy="19.0" fill="black" r="3" /><circle cx="134.0" cy="131.0" fill="black" r="3" /><circle cx="148.0" cy="183.0" fill="black" r="3" /><circle cx="205.0" cy="90.0" fill="black" r="3" /><circle cx="136.0" cy="108.0" fill="black" r="3" /><circle cx="44.0" cy="96.0" fill="black" r="3" /><circle cx="186.0" cy="120.0" fill="black" r="3" /><circle cx="150.0" cy="57.0" fill="black" r="3" /><circle cx="207.0" cy="20.0" fill="black" r="3" /><circle cx="81.0" cy="118.0" fill="black" r="3" /><circle cx="185.0" cy="183.0" fill="black" r="3" /><circle cx="116.0" cy="143.0" fill="black" r="3" /><circle cx="150.0" cy="162.0" fill="black" r="3" /><circle cx="62.0" cy="128.0" fill="black" r="3" /><circle cx="134.0" cy="195.0" fill="black" r="3" /><circle cx="202.0" cy="152.0" fill="black" r="3" /><circle cx="25.0" cy="147.0" fill="black" r="3" /><circle cx="96.0" cy="213.0" fill="black" r="3" /><circle cx="46.0" cy="54.0" fill="black" r="3" /><circle cx="98.0" cy="65.0" fill="black" r="3" /><circle cx="187.0" cy="101.0" fill="black" r="3" /><circle cx="87.0" cy="181.0" fill="black" r="3" /><circle cx="95.0" cy="131.0" fill="black" r="3" /><circle cx="82.0" cy="77.0" fill="black" r="3" /><circle cx="151.0" cy="121.0" fill="black" r="3" /><circle cx="42.0" cy="180.0" fill="black" r="3" /><circle cx="135.0" cy="66.0" fill="black" r="3" /><circle cx="135.0" cy="47.0" fill="black" r="3" /><circle cx="27.0" cy="84.0" fill="black" r="3" /><circle cx="117.0" cy="63.0" fill="black" r="3" /><circle cx="25.0" cy="167.0" fill="black" r="3" /><circle cx="168.0" cy="110.0" fill="black" r="3" /><circle cx="27.0" cy="64.0" fill="black" r="3" /><circle cx="205.0" cy="68.0" fill="black" r="3" /><circle cx="115.0" cy="97.0" fill="black" r="3" /><circle cx="44.0" cy="138.0" fill="black" r="3" /><circle cx="112.0" cy="224.0" fill="black" r="3" /><circle cx="97.0" cy="88.0" fill="black" r="3" /><circle cx="97.0" cy="109.0" fill="black" r="3" /><circle cx="203.0" cy="172.0" fill="black" r="3" /><circle cx="163.0" cy="92.0" fill="black" r="3" /><line stroke="black" stroke-width="2" x1="107.0" x2="228.0" y1="30.0" y2="19.0" /><line stroke="black" stroke-width="2" x1="149.0" x2="150.0" y1="203.0" y2="162.0" /><line stroke="black" stroke-width="2" x1="115.0" x2="118.0" y1="97.0" y2="195.0" /><line stroke="black" stroke-width="2" x1="27.0" x2="79.0" y1="104.0" y2="148.0" /><line stroke="black" stroke-width="2" x1="44.0" x2="134.0" y1="96.0" y2="131.0" /><line stroke="black" stroke-width="2" x1="107.0" x2="179.0" y1="30.0" y2="152.0" /><line stroke="black" stroke-width="2" x1="70.0" x2="107.0" y1="101.0" y2="30.0" /><line stroke="black" stroke-width="2" x1="64.0" x2="70.0" y1="44.0" y2="101.0" /><line stroke="black" stroke-width="2" x1="26.0" x2="79.0" y1="126.0" y2="148.0" /><line stroke="black" stroke-width="2" x1="95.0" x2="183.0" y1="131.0" y2="82.0" /><line stroke="black" stroke-width="2" x1="149.0" x2="187.0" y1="86.0" y2="101.0" /><line stroke="black" stroke-width="2" x1="58.0" x2="134.0" y1="163.0" y2="195.0" /><line stroke="black" stroke-width="2" x1="168.0" x2="170.0" y1="110.0" y2="66.0" /><line stroke="black" stroke-width="2" x1="57.0" x2="179.0" y1="73.0" y2="152.0" /><line stroke="black" stroke-width="2" x1="155.0" x2="150.0" y1="33.0" y2="57.0" /><line stroke="black" stroke-width="2" x1="163.0" x2="150.0" y1="92.0" y2="57.0" /><line stroke="black" stroke-width="2" x1="107.0" x2="117.0" y1="30.0" y2="63.0" /><line stroke="black" stroke-width="2" x1="97.0" x2="155.0" y1="88.0" y2="33.0" /><line stroke="black" stroke-width="2" x1="64.0" x2="81.0" y1="44.0" y2="118.0" /><line stroke="black" stroke-width="2" x1="44.0" x2="87.0" y1="138.0" y2="181.0" /><line stroke="black" stroke-width="2" x1="27.0" x2="79.0" y1="84.0" y2="148.0" /><line stroke="black" stroke-width="2" x1="167.0" x2="160.0" y1="181.0" y2="134.0" /><line stroke="black" stroke-width="2" x1="115.0" x2="107.0" y1="97.0" y2="30.0" /><line stroke="black" stroke-width="2" x1="87.0" x2="79.0" y1="181.0" y2="148.0" /><line stroke="black" stroke-width="2" x1="27.0" x2="27.0" y1="104.0" y2="64.0" /><line stroke="black" stroke-width="2" x1="160.0" x2="185.0" y1="134.0" y2="183.0" /><line stroke="black" stroke-width="2" x1="118.0" x2="163.0" y1="195.0" y2="92.0" /><line stroke="black" stroke-width="2" x1="149.0" x2="167.0" y1="86.0" y2="181.0" /><line stroke="black" stroke-width="2" x1="112.0" x2="149.0" y1="224.0" y2="203.0" /><line stroke="black" stroke-width="2" x1="115.0" x2="204.0" y1="97.0" y2="111.0" /><line stroke="black" stroke-width="2" x1="148.0" x2="185.0" y1="183.0" y2="183.0" /><line stroke="black" stroke-width="2" x1="134.0" x2="179.0" y1="131.0" y2="152.0" /><line stroke="black" stroke-width="2" x1="98.0" x2="107.0" y1="65.0" y2="30.0" /><line stroke="black" stroke-width="2" x1="97.0" x2="134.0" y1="151.0" y2="131.0" /><line stroke="black" stroke-width="2" x1="116.0" x2="118.0" y1="143.0" y2="195.0" /><line stroke="black" stroke-width="2" x1="58.0" x2="62.0" y1="163.0" y2="128.0" /><line stroke="black" stroke-width="2" x1="25.0" x2="95.0" y1="167.0" y2="131.0" /><line stroke="black" stroke-width="2" x1="183.0" x2="179.0" y1="82.0" y2="152.0" /><line stroke="black" stroke-width="2" x1="61.0" x2="87.0" y1="191.0" y2="181.0" /><line stroke="black" stroke-width="2" x1="151.0" x2="203.0" y1="121.0" y2="172.0" /><line stroke="black" stroke-width="2" x1="25.0" x2="70.0" y1="147.0" y2="101.0" /><line stroke="black" stroke-width="2" x1="27.0" x2="113.0" y1="64.0" y2="120.0" /><line stroke="black" stroke-width="2" x1="61.0" x2="62.0" y1="191.0" y2="128.0" /><line stroke="black" stroke-width="2" x1="149.0" x2="160.0" y1="203.0" y2="134.0" /><line stroke="black" stroke-width="2" x1="47.0" x2="64.0" y1="117.0" y2="44.0" /><line stroke="black" stroke-width="2" x1="111.0" x2="118.0" y1="180.0" y2="195.0" /><line stroke="black" stroke-width="2" x1="82.0" x2="64.0" y1="77.0" y2="44.0" /><line stroke="black" stroke-width="2" x1="64.0" x2="135.0" y1="44.0" y2="47.0" /><line stroke="black" stroke-width="2" x1="87.0" x2="151.0" y1="181.0" y2="121.0" /><line stroke="black" stroke-width="2" x1="116.0" x2="160.0" y1="143.0" y2="134.0" /><line stroke="black" stroke-width="2" x1="118.0" x2="113.0" y1="195.0" y2="120.0" /><line stroke="black" stroke-width="2" x1="87.0" x2="124.0" y1="181.0" y2="164.0" /><line stroke="black" stroke-width="2" x1="97.0" x2="115.0" y1="88.0" y2="97.0" /><line stroke="black" stroke-width="2" x1="113.0" x2="179.0" y1="120.0" y2="152.0" /><line stroke="black" stroke-width="2" x1="107.0" x2="110.0" y1="30.0" y2="77.0" /><line stroke="black" stroke-width="2" x1="25.0" x2="112.0" y1="167.0" y2="224.0" /><line stroke="black" stroke-width="2" x1="183.0" x2="202.0" y1="82.0" y2="134.0" /><line stroke="black" stroke-width="2" x1="110.0" x2="172.0" y1="77.0" y2="49.0" /><line stroke="black" stroke-width="2" x1="81.0" x2="97.0" y1="118.0" y2="151.0" /><line stroke="black" stroke-width="2" x1="46.0" x2="135.0" y1="54.0" y2="66.0" /><line stroke="black" stroke-width="2" x1="203.0" x2="202.0" y1="172.0" y2="134.0" /><line stroke="black" stroke-width="2" x1="42.0" x2="124.0" y1="180.0" y2="164.0" /><line stroke="black" stroke-width="2" x1="82.0" x2="107.0" y1="77.0" y2="30.0" /><line stroke="black" stroke-width="2" x1="25.0" x2="58.0" y1="167.0" y2="163.0" /><line stroke="black" stroke-width="2" x1="117.0" x2="155.0" y1="63.0" y2="33.0" /><line stroke="black" stroke-width="2" x1="27.0" x2="70.0" y1="84.0" y2="101.0" /><line stroke="black" stroke-width="2" x1="107.0" x2="185.0" y1="30.0" y2="22.0" /><line stroke="black" stroke-width="2" x1="97.0" x2="113.0" y1="109.0" y2="120.0" /><line stroke="black" stroke-width="2" x1="58.0" x2="95.0" y1="163.0" y2="131.0" /><line stroke="black" stroke-width="2" x1="107.0" x2="183.0" y1="30.0" y2="82.0" /><line stroke="black" stroke-width="2" x1="204.0" x2="205.0" y1="111.0" y2="68.0" /><line stroke="black" stroke-width="2" x1="25.0" x2="26.0" y1="167.0" y2="126.0" /><line stroke="black" stroke-width="2" x1="25.0" x2="150.0" y1="167.0" y2="57.0" /><line stroke="black" stroke-width="2" x1="98.0" x2="135.0" y1="65.0" y2="47.0" /><line stroke="black" stroke-width="2" x1="27.0" x2="70.0" y1="104.0" y2="101.0" /><line stroke="black" stroke-width="2" x1="124.0" x2="185.0" y1="164.0" y2="183.0" /><line stroke="black" stroke-width="2" x1="87.0" x2="134.0" y1="181.0" y2="195.0" /><line stroke="black" stroke-width="2" x1="124.0" x2="186.0" y1="164.0" y2="120.0" /><line stroke="black" stroke-width="2" x1="124.0" x2="160.0" y1="164.0" y2="134.0" /><line stroke="black" stroke-width="2" x1="179.0" x2="160.0" y1="152.0" y2="134.0" /><line stroke="black" stroke-width="2" x1="136.0" x2="183.0" y1="108.0" y2="82.0" /><line stroke="black" stroke-width="2" x1="111.0" x2="151.0" y1="180.0" y2="121.0" /><line stroke="black" stroke-width="2" x1="172.0" x2="183.0" y1="49.0" y2="82.0" /><line stroke="black" stroke-width="2" x1="149.0" x2="183.0" y1="86.0" y2="82.0" /><line stroke="black" stroke-width="2" x1="115.0" x2="149.0" y1="97.0" y2="86.0" /><line stroke="black" stroke-width="2" x1="124.0" x2="118.0" y1="164.0" y2="195.0" /><line stroke="black" stroke-width="2" x1="149.0" x2="202.0" y1="86.0" y2="152.0" /><line stroke="black" stroke-width="2" x1="44.0" x2="97.0" y1="96.0" y2="88.0" /><line stroke="black" stroke-width="2" x1="170.0" x2="186.0" y1="66.0" y2="120.0" /><line stroke="black" stroke-width="2" x1="87.0" x2="96.0" y1="181.0" y2="213.0" /><line stroke="black" stroke-width="2" x1="149.0" x2="150.0" y1="86.0" y2="57.0" /><line stroke="black" stroke-width="2" x1="81.0" x2="135.0" y1="118.0" y2="66.0" /><line stroke="black" stroke-width="2" x1="27.0" x2="64.0" y1="64.0" y2="44.0" /><line stroke="black" stroke-width="2" x1="44.0" x2="57.0" y1="138.0" y2="73.0" /><line stroke="black" stroke-width="2" x1="57.0" x2="113.0" y1="73.0" y2="120.0" /><line stroke="black" stroke-width="2" x1="46.0" x2="82.0" y1="54.0" y2="77.0" /><line stroke="black" stroke-width="2" x1="170.0" x2="187.0" y1="66.0" y2="101.0" /><line stroke="black" stroke-width="2" x1="150.0" x2="185.0" y1="162.0" y2="183.0" /><line stroke="black" stroke-width="2" x1="58.0" x2="131.0" y1="163.0" y2="214.0" /><line stroke="black" stroke-width="2" x1="134.0" x2="187.0" y1="131.0" y2="101.0" /><line stroke="black" stroke-width="2" x1="25.0" x2="61.0" y1="167.0" y2="191.0" /><line stroke="black" stroke-width="2" x1="107.0" x2="155.0" y1="30.0" y2="33.0" /><line stroke="black" stroke-width="2" x1="163.0" x2="202.0" y1="92.0" y2="152.0" /><line stroke="black" stroke-width="2" x1="57.0" x2="70.0" y1="73.0" y2="101.0" /><line stroke="black" stroke-width="2" x1="150.0" x2="188.0" y1="57.0" y2="58.0" /><line stroke="black" stroke-width="2" x1="172.0" x2="205.0" y1="49.0" y2="68.0" /><line stroke="black" stroke-width="2" x1="47.0" x2="58.0" y1="117.0" y2="163.0" /><line stroke="black" stroke-width="2" x1="167.0" x2="203.0" y1="181.0" y2="172.0" /><line stroke="black" stroke-width="2" x1="44.0" x2="70.0" y1="96.0" y2="101.0" /><line stroke="black" stroke-width="2" x1="58.0" x2="70.0" y1="163.0" y2="101.0" /><line stroke="black" stroke-width="2" x1="118.0" x2="148.0" y1="195.0" y2="183.0" /><line stroke="black" stroke-width="2" x1="44.0" x2="61.0" y1="138.0" y2="191.0" /><line stroke="black" stroke-width="2" x1="136.0" x2="151.0" y1="108.0" y2="121.0" /><line stroke="black" stroke-width="2" x1="111.0" x2="149.0" y1="180.0" y2="203.0" /><line stroke="black" stroke-width="2" x1="107.0" x2="207.0" y1="30.0" y2="20.0" /><line stroke="black" stroke-width="2" x1="25.0" x2="79.0" y1="167.0" y2="148.0" /><line stroke="black" stroke-width="2" x1="115.0" x2="110.0" y1="46.0" y2="77.0" /><line stroke="black" stroke-width="2" x1="136.0" x2="163.0" y1="108.0" y2="92.0" /><line stroke="black" stroke-width="2" x1="47.0" x2="150.0" y1="117.0" y2="57.0" /><line stroke="black" stroke-width="2" x1="131.0" x2="148.0" y1="214.0" y2="183.0" /><line stroke="black" stroke-width="2" x1="58.0" x2="79.0" y1="163.0" y2="148.0" /><line stroke="black" stroke-width="2" x1="82.0" x2="97.0" y1="77.0" y2="151.0" /><line stroke="black" stroke-width="2" x1="170.0" x2="172.0" y1="66.0" y2="49.0" /><line stroke="black" stroke-width="2" x1="27.0" x2="64.0" y1="104.0" y2="44.0" /><line stroke="black" stroke-width="2" x1="155.0" x2="185.0" y1="33.0" y2="22.0" /><line stroke="black" stroke-width="2" x1="185.0" x2="207.0" y1="22.0" y2="20.0" /><line stroke="black" stroke-width="2" x1="207.0" x2="228.0" y1="20.0" y2="19.0" /><line stroke="black" stroke-width="2" x1="77.0" x2="96.0" y1="201.0" y2="213.0" /><line stroke="black" stroke-width="2" x1="96.0" x2="112.0" y1="213.0" y2="224.0" /><line stroke="black" stroke-width="2" x1="112.0" x2="131.0" y1="224.0" y2="214.0" /><line stroke="black" stroke-width="2" x1="131.0" x2="149.0" y1="214.0" y2="203.0" /><line stroke="black" stroke-width="2" x1="46.0" x2="27.0" y1="54.0" y2="64.0" /><line stroke="black" stroke-width="2" x1="27.0" x2="27.0" y1="64.0" y2="84.0" /><line stroke="black" stroke-width="2" x1="27.0" x2="44.0" y1="84.0" y2="96.0" /><line stroke="black" stroke-width="2" x1="44.0" x2="27.0" y1="96.0" y2="104.0" /><line stroke="black" stroke-width="2" x1="27.0" x2="47.0" y1="104.0" y2="117.0" /><line stroke="black" stroke-width="2" x1="47.0" x2="26.0" y1="117.0" y2="126.0" /><line stroke="black" stroke-width="2" x1="26.0" x2="44.0" y1="126.0" y2="138.0" /><line stroke="black" stroke-width="2" x1="44.0" x2="25.0" y1="138.0" y2="147.0" /><line stroke="black" stroke-width="2" x1="25.0" x2="25.0" y1="147.0" y2="167.0" /><line stroke="black" stroke-width="2" x1="25.0" x2="42.0" y1="167.0" y2="180.0" /><line stroke="black" stroke-width="2" x1="207.0" x2="205.0" y1="20.0" y2="68.0" /><line stroke="black" stroke-width="2" x1="205.0" x2="205.0" y1="68.0" y2="90.0" /><path d="M207.0,20.0 Q216.0,27.0 228.0,19.0" fill="none" stroke="black" stroke-width="2" /><path d="M207.0,20.0 Q224.0,27.0 228.0,19.0" fill="none" stroke="black" stroke-width="2" /><path d="M228.0,19.0 Q226.0,25.0 228.0,19.0" fill="none" stroke="black" stroke-width="2" /><path d="M228.0,19.0 Q234.0,26.0 228.0,19.0" fill="none" stroke="black" stroke-width="2" /><path d="M228.0,19.0 Q234.0,21.0 228.0,19.0" fill="none" stroke="black" stroke-width="2" /><path d="M228.0,19.0 Q228.0,19.0 228.0,19.0" fill="none" stroke="black" stroke-width="2" /><path d="M228.0,19.0 Q221.0,21.0 228.0,19.0" fill="none" stroke="black" stroke-width="2" /><path d="M185.0,22.0 Q181.0,27.0 207.0,20.0" fill="none" stroke="black" stroke-width="2" /><path d="M185.0,22.0 Q212.0,26.0 207.0,20.0" fill="none" stroke="black" stroke-width="2" /><path d="M207.0,20.0 Q212.0,22.0 207.0,20.0" fill="none" stroke="black" stroke-width="2" /><path d="M207.0,20.0 Q207.0,22.0 207.0,20.0" fill="none" stroke="black" stroke-width="2" /><path d="M207.0,20.0 Q198.0,22.0 207.0,20.0" fill="none" stroke="black" stroke-width="2" /><path d="M207.0,20.0 Q197.0,19.0 185.0,22.0" fill="none" stroke="black" stroke-width="2" /><path d="M207.0,20.0 Q192.0,22.0 185.0,22.0" fill="none" stroke="black" stroke-width="2" /><path d="M185.0,22.0 Q176.0,19.0 185.0,22.0" fill="none" stroke="black" stroke-width="2" /><path d="M185.0,22.0 Q171.0,22.0 155.0,33.0" fill="none" stroke="black" stroke-width="2" /><path d="M155.0,33.0 Q165.0,25.0 155.0,33.0" fill="none" stroke="black" stroke-width="2" /><path d="M155.0,33.0 Q164.0,20.0 155.0,33.0" fill="none" stroke="black" stroke-width="2" /><path d="M155.0,33.0 Q158.0,24.0 155.0,33.0" fill="none" stroke="black" stroke-width="2" /><path d="M155.0,33.0 Q166.0,24.0 185.0,22.0" fill="none" stroke="black" stroke-width="2" /><path d="M107.0,30.0 Q23.0,91.0 25.0,167.0" fill="none" stroke="black" stroke-width="2" /><path d="M27.0,84.0 Q24.0,169.0 112.0,224.0" fill="none" stroke="black" stroke-width="2" /><path d="M25.0,167.0 Q112.0,226.0 203.0,172.0" fill="none" stroke="black" stroke-width="2" /><path d="M112.0,224.0 Q206.0,173.0 205.0,68.0" fill="none" stroke="black" stroke-width="2" /></svg>