<?xml version="1.0" encoding="utf-8" ?>
<svg baseProfile="tiny" height="100%" version="1.2" viewBox="0,0,500,500" width="100%" xmlns="http://www.w3.org/2000/svg" xmlns:ev="http://www.w3.org/2001/xml-events" xmlns:xlink="http://www.w3.org/1999/xlink"><defs /><circle cx="45.0" cy="40.0" fill="black" r="3" /><circle cx="45.0" cy="60.0" fill="black" r="3" /><circle cx="45.0" cy="80.0" fill="black" r="3" /><circle cx="45.0" cy="100.0" fill="black" r="3" /><circle cx="45.0" cy="120.0" fill="black" r="3" /><circle cx="45.0" cy="140.0" fill="black" r="3" /><circle cx="45.0" cy="160.0" fill="black" r="3" /><circle cx="45.0" cy="180.0" fill="black" r="3" /><circle cx="45.0" cy="200.0" fill="black" r="3" /><circle cx="65.0" cy="40.0" fill="black" r="3" /><circle cx="65.0" cy="60.0" fill="black" r="3" /><circle cx="65.0" cy="80.0" fill="black" r="3" /><circle cx="65.0" cy="100.0" fill="black" r="3" /><circle cx="65.0" cy="120.0" fill="black" r="3" /><circle cx="65.0" cy="140.0" fill="black" r="3" /><circle cx="65.0" cy="160.0" fill="black" r="3" /><circle cx="65.0" cy="180.0" fill="black" r="3" /><circle cx="65.0" cy="200.0" fill="black" r="3" /><circle cx="85.0" cy="40.0" fill="black" r="3" /><circle cx="85.0" cy="60.0" fill="black" r="3" /><circle cx="85.0" cy="80.0" fill="black" r="3" /><circle cx="85.0" cy="100.0" fill="black" r="3" /><circle cx="85.0" cy="120.0" fill="black" r="3" /><circle cx="85.0" cy="140.0" fill="black" r="3" /><circle cx="85.0" cy="160.0" fill="black" r="3" /><circle cx="85.0" cy="180.0" fill="black" r="3" /><circle cx="85.0" cy="200.0" fill="black" r="3" /><circle cx="105.0" cy="40.0" fill="black" r="3" /><circle cx="105.0" cy="60.0" fill="black" r="3" /><circle cx="105.0" cy="80.0" fill="black" r="3" /><circle cx="105.0" cy="100.0" fill="black" r="3" /><circle cx="105.0" cy="120.0" fill="black" r="3" /><circle cx="105.0" cy="140.0" fill="black" r="3" /><circle cx="105.0" cy="160.0" fill="black" r="3" /><circle cx="105.0" cy="180.0" fill="black" r="3" /><circle cx="105.0" cy="200.0" fill="black" r="3" /><circle cx="125.0" cy="40.0" fill="black" r="3" /><circle cx="125.0" cy="60.0" fill="black" r="3" /><circle cx="125.0" cy="80.0" fill="black" r="3" /><circle cx="125.0" cy="100.0" fill="black" r="3" /><circle cx="125.0" cy="120.0" fill="black" r="3" /><circle cx="125.0" cy="140.0" fill="black" r="3" /><circle cx="125.0" cy="160.0" fill="black" r="3" /><circle cx="125.0" cy="180.0" fill="black" r="3" /><circle cx="125.0" cy="200.0" fill="black" r="3" /><circle cx="145.0" cy="40.0" fill="black" r="3" /><circle cx="145.0" cy="60.0" fill="black" r="3" /><circle cx="145.0" cy="80.0" fill="black" r="3" /><circle cx="145.0" cy="100.0" fill="black" r="3" /><circle cx="145.0" cy="120.0" fill="black" r="3" /><circle cx="145.0" cy="140.0" fill="black" r="3" /><circle cx="145.0" cy="160.0" fill="black" r="3" /><circle cx="145.0" cy="180.0" fill="black" r="3" /><circle cx="145.0" cy="200.0" fill="black" r="3" /><circle cx="165.0" cy="40.0" fill="black" r="3" /><circle cx="165.0" cy="60.0" fill="black" r="3" /><circle cx="165.0" cy="80.0" fill="black" r="3" /><circle cx="165.0" cy="100.0" fill="black" r="3" /><circle cx="165.0" cy="120.0" fill="black" r="3" /><circle cx="165.0" cy="140.0" fill="black" r="3" /><circle cx="165.0" cy="160.0" fill="black" r="3" /><circle cx="165.0" cy="180.0" fill="black" r="3" /><circle cx="165.0" cy="200.0" fill="black" r="3" /><circle cx="185.0" cy="40.0" fill="black" r="3" /><circle cx="185.0" cy="60.0" fill="black" r="3" /><circle cx="185.0" cy="80.0" fill="black" r="3" /><circle cx="185.0" cy="100.0" fill="black" r="3" /><circle cx="185.0" cy="120.0" fill="black" r="3" /><circle cx="185.0" cy="140.0" fill="black" r="3" /><circle cx="185.0" cy="160.0" fill="black" r="3" /><circle cx="185.0" cy="180.0" fill="black" r="3" /><circle cx="185.0" cy="200.0" fill="black" r="3" /><circle cx="205.0" cy="40.0" fill="black" r="3" /><circle cx="205.0" cy="60.0" fill="black" r="3" /><circle cx="205.0" cy="80.0" fill="black" r="3" /><circle cx="205.0" cy="100.0" fill="black" r="3" /><circle cx="205.0" cy="120.0" fill="black" r="3" /><circle cx="205.0" cy="140.0" fill="black" r="3" /><circle cx="205.0" cy="160.0" fill="black" r="3" /><circle cx="205.0" cy="180.0" fill="black" r="3" /><circle cx="205.0" cy="200.0" fill="black" r="3" /><path d="M125.0,140.0 Q125.0,120.0 105.0,120.0" fill="none" stroke="black" stroke-width="2" /><path d="M105.0,120.0 Q125.0,120.0 125.0,100.0" fill="none" stroke="black" stroke-width="2" /><path d="M125.0,100.0 Q125.0,120.0 145.0,120.0" fill="none" stroke="black" stroke-width="2" /><path d="M145.0,120.0 Q125.0,120.0 125.0,140.0" fill="none" stroke="black" stroke-width="2" /><line stroke="black" stroke-width="2" x1="85.0" x2="125.0" y1="120.0" y2="80.0" /><line stroke="black" stroke-width="2" x1="125.0" x2="165.0" y1="80.0" y2="120.0" /><line stroke="black" stroke-width="2" x1="165.0" x2="125.0" y1="120.0" y2="160.0" /><line stroke="black" stroke-width="2" x1="125.0" x2="85.0" y1="160.0" y2="120.0" /><path d="M45.0,120.0 Q85.0,80.0 125.0,40.0" fill="none" stroke="black" stroke-width="2" /><path d="M125.0,40.0 Q165.0,80.0 205.0,120.0" fill="none" stroke="black" stroke-width="2" /><path d="M205.0,120.0 Q165.0,160.0 125.0,200.0" fill="none" stroke="black" stroke-width="2" /><path d="M125.0,200.0 Q85.0,160.0 45.0,120.0" fill="none" stroke="black" stroke-width="2" /><line stroke="black" stroke-width="2" x1="45.0" x2="205.0" y1="40.0" y2="200.0" /><line stroke="black" stroke-width="2" x1="45.0" x2="205.0" y1="200.0" y2="40.0" /><line stroke="black" stroke-width="2" x1="45.0" x2="205.0" y1="40.0" y2="40.0" /><line stroke="black" stroke-width="2" x1="205.0" x2="205.0" y1="40.0" y2="200.0" /><line stroke="black" stroke-width="2" x1="205.0" x2="45.0" y1="200.0" y2="200.0" /><line stroke="black" stroke-width="2" x1="45.0" x2="45.0" y1="200.0" y2="40.0" /></svg>