<?xml version="1.0" encoding="utf-8" ?>
<svg baseProfile="tiny" height="100%" version="1.2" viewBox="0,0,500,500" width="100%" xmlns="http://www.w3.org/2000/svg" xmlns:ev="http://www.w3.org/2001/xml-events" xmlns:xlink="http://www.w3.org/1999/xlink"><defs /><circle cx="328.0" cy="422.0" fill="black" r="3" /><circle cx="580.0" cy="407.0" fill="black" r="3" /><circle cx="571.0" cy="211.0" fill="black" r="3" /><circle cx="704.0" cy="400.0" fill="black" r="3" /><circle cx="906.0" cy="280.0" fill="black" r="3" /><circle cx="824.0" cy="315.0" fill="black" r="3" /><circle cx="700.0" cy="304.0" fill="black" r="3" /><circle cx="633.0" cy="350.0" fill="black" r="3" /><circle cx="803.0" cy="329.0" fill="black" r="3" /><circle cx="469.0" cy="405.0" fill="black" r="3" /><circle cx="585.0" cy="505.0" fill="black" r="3" /><circle cx="697.0" cy="196.0" fill="black" r="3" /><circle cx="652.0" cy="606.0" fill="black" r="3" /><circle cx="822.0" cy="300.0" fill="black" r="3" /><circle cx="548.0" cy="600.0" fill="black" r="3" /><circle cx="891.0" cy="441.0" fill="black" r="3" /><circle cx="820.0" cy="410.0" fill="black" r="3" /><circle cx="704.0" cy="522.0" fill="black" r="3" /><circle cx="452.0" cy="339.0" fill="black" r="3" /><circle cx="574.0" cy="321.0" fill="black" r="3" /><circle cx="885.0" cy="275.0" fill="black" r="3" /><circle cx="732.0" cy="312.0" fill="black" r="3" /><circle cx="499.0" cy="375.0" fill="black" r="3" /><circle cx="707.0" cy="506.0" fill="black" r="3" /><circle cx="619.0" cy="420.0" fill="black" r="3" /><circle cx="581.0" cy="520.0" fill="black" r="3" /><circle cx="313.0" cy="404.0" fill="black" r="3" /><circle cx="677.0" cy="261.0" fill="black" r="3" /><circle cx="420.0" cy="360.0" fill="black" r="3" /><circle cx="607.0" cy="603.0" fill="black" r="3" /><circle cx="701.0" cy="574.0" fill="black" r="3" /><circle cx="984.0" cy="376.0" fill="black" r="3" /><circle cx="754.0" cy="294.0" fill="black" r="3" /><circle cx="734.0" cy="340.0" fill="black" r="3" /><circle cx="634.0" cy="605.0" fill="black" r="3" /><circle cx="920.0" cy="395.0" fill="black" r="3" /><circle cx="386.0" cy="389.0" fill="black" r="3" /><circle cx="547.0" cy="152.0" fill="black" r="3" /><circle cx="641.0" cy="66.0" fill="black" r="3" /><circle cx="456.0" cy="455.0" fill="black" r="3" /><circle cx="707.0" cy="353.0" fill="black" r="3" /><circle cx="273.0" cy="378.0" fill="black" r="3" /><circle cx="602.0" cy="400.0" fill="black" r="3" /><circle cx="783.0" cy="505.0" fill="black" r="3" /><circle cx="685.0" cy="355.0" fill="black" r="3" /><circle cx="817.0" cy="381.0" fill="black" r="3" /><circle cx="584.0" cy="482.0" fill="black" r="3" /><circle cx="691.0" cy="231.0" fill="black" r="3" /><circle cx="634.0" cy="370.0" fill="black" r="3" /><circle cx="704.0" cy="487.0" fill="black" r="3" /><circle cx="484.0" cy="354.0" fill="black" r="3" /><circle cx="462.0" cy="301.0" fill="black" r="3" /><circle cx="733.0" cy="183.0" fill="black" r="3" /><circle cx="612.0" cy="551.0" fill="black" r="3" /><circle cx="504.0" cy="304.0" fill="black" r="3" /><circle cx="565.0" cy="368.0" fill="black" r="3" /><circle cx="756.0" cy="415.0" fill="black" r="3" /><circle cx="530.0" cy="531.0" fill="black" r="3" /><circle cx="514.0" cy="406.0" fill="black" r="3" /><circle cx="688.0" cy="534.0" fill="black" r="3" /><circle cx="639.0" cy="115.0" fill="black" r="3" /><circle cx="650.0" cy="324.0" fill="black" r="3" /><circle cx="835.0" cy="435.0" fill="black" r="3" /><circle cx="379.0" cy="373.0" fill="black" r="3" /><circle cx="596.0" cy="136.0" fill="black" r="3" /><circle cx="639.0" cy="623.0" fill="black" r="3" /><circle cx="669.0" cy="391.0" fill="black" r="3" /><circle cx="701.0" cy="415.0" fill="black" r="3" /><circle cx="362.0" cy="372.0" fill="black" r="3" /><circle cx="666.0" cy="627.0" fill="black" r="3" /><circle cx="650.0" cy="229.0" fill="black" r="3" /><circle cx="750.0" cy="559.0" fill="black" r="3" /><circle cx="376.0" cy="445.0" fill="black" r="3" /><circle cx="724.0" cy="464.0" fill="black" r="3" /><circle cx="530.0" cy="332.0" fill="black" r="3" /><circle cx="541.0" cy="343.0" fill="black" r="3" /><circle cx="669.0" cy="459.0" fill="black" r="3" /><circle cx="646.0" cy="210.0" fill="black" r="3" /><circle cx="830.0" cy="351.0" fill="black" r="3" /><circle cx="775.0" cy="327.0" fill="black" r="3" /><circle cx="578.0" cy="356.0" fill="black" r="3" /><circle cx="722.0" cy="156.0" fill="black" r="3" /><circle cx="767.0" cy="403.0" fill="black" r="3" /><circle cx="376.0" cy="342.0" fill="black" r="3" /><circle cx="909.0" cy="332.0" fill="black" r="3" /><circle cx="678.0" cy="592.0" fill="black" r="3" /><circle cx="794.0" cy="360.0" fill="black" r="3" /><circle cx="645.0" cy="582.0" fill="black" r="3" /><circle cx="655.0" cy="556.0" fill="black" r="3" /><circle cx="470.0" cy="319.0" fill="black" r="3" /><circle cx="603.0" cy="512.0" fill="black" r="3" /><circle cx="560.0" cy="162.0" fill="black" r="3" /><circle cx="703.0" cy="466.0" fill="black" r="3" /><circle cx="497.0" cy="334.0" fill="black" r="3" /><circle cx="800.0" cy="375.0" fill="black" r="3" /><circle cx="698.0" cy="211.0" fill="black" r="3" /><circle cx="969.0" cy="392.0" fill="black" r="3" /><circle cx="639.0" cy="642.0" fill="black" r="3" /><circle cx="408.0" cy="469.0" fill="black" r="3" /><circle cx="928.0" cy="366.0" fill="black" r="3" /><circle cx="635.0" cy="157.0" fill="black" r="3" /><circle cx="567.0" cy="252.0" fill="black" r="3" /><circle cx="643.0" cy="135.0" fill="black" r="3" /><line stroke="black" stroke-width="2" x1="619.0" x2="704.0" y1="420.0" y2="487.0" /><line stroke="black" stroke-width="2" x1="541.0" x2="602.0" y1="343.0" y2="400.0" /><line stroke="black" stroke-width="2" x1="619.0" x2="669.0" y1="420.0" y2="391.0" /><line stroke="black" stroke-width="2" x1="650.0" x2="820.0" y1="324.0" y2="410.0" /><line stroke="black" stroke-width="2" x1="677.0" x2="775.0" y1="261.0" y2="327.0" /><line stroke="black" stroke-width="2" x1="580.0" x2="578.0" y1="407.0" y2="356.0" /><line stroke="black" stroke-width="2" x1="541.0" x2="619.0" y1="343.0" y2="420.0" /><line stroke="black" stroke-width="2" x1="703.0" x2="756.0" y1="466.0" y2="415.0" /><line stroke="black" stroke-width="2" x1="677.0" x2="732.0" y1="261.0" y2="312.0" /><line stroke="black" stroke-width="2" x1="578.0" x2="677.0" y1="356.0" y2="261.0" /><line stroke="black" stroke-width="2" x1="756.0" x2="817.0" y1="415.0" y2="381.0" /><line stroke="black" stroke-width="2" x1="707.0" x2="756.0" y1="353.0" y2="415.0" /><line stroke="black" stroke-width="2" x1="560.0" x2="596.0" y1="162.0" y2="136.0" /><line stroke="black" stroke-width="2" x1="619.0" x2="685.0" y1="420.0" y2="355.0" /><line stroke="black" stroke-width="2" x1="567.0" x2="650.0" y1="252.0" y2="324.0" /><line stroke="black" stroke-width="2" x1="470.0" x2="567.0" y1="319.0" y2="252.0" /><line stroke="black" stroke-width="2" x1="376.0" x2="408.0" y1="445.0" y2="469.0" /><line stroke="black" stroke-width="2" x1="619.0" x2="724.0" y1="420.0" y2="464.0" /><line stroke="black" stroke-width="2" x1="514.0" x2="578.0" y1="406.0" y2="356.0" /><line stroke="black" stroke-width="2" x1="514.0" x2="584.0" y1="406.0" y2="482.0" /><line stroke="black" stroke-width="2" x1="560.0" x2="639.0" y1="162.0" y2="115.0" /><line stroke="black" stroke-width="2" x1="909.0" x2="984.0" y1="332.0" y2="376.0" /><line stroke="black" stroke-width="2" x1="650.0" x2="685.0" y1="324.0" y2="355.0" /><line stroke="black" stroke-width="2" x1="462.0" x2="504.0" y1="301.0" y2="304.0" /><line stroke="black" stroke-width="2" x1="707.0" x2="732.0" y1="353.0" y2="312.0" /><line stroke="black" stroke-width="2" x1="607.0" x2="639.0" y1="603.0" y2="642.0" /><line stroke="black" stroke-width="2" x1="703.0" x2="800.0" y1="466.0" y2="375.0" /><line stroke="black" stroke-width="2" x1="584.0" x2="585.0" y1="482.0" y2="505.0" /><line stroke="black" stroke-width="2" x1="560.0" x2="641.0" y1="162.0" y2="66.0" /><line stroke="black" stroke-width="2" x1="634.0" x2="639.0" y1="605.0" y2="623.0" /><line stroke="black" stroke-width="2" x1="724.0" x2="756.0" y1="464.0" y2="415.0" /><line stroke="black" stroke-width="2" x1="650.0" x2="677.0" y1="229.0" y2="261.0" /><line stroke="black" stroke-width="2" x1="641.0" x2="639.0" y1="66.0" y2="115.0" /><line stroke="black" stroke-width="2" x1="666.0" x2="678.0" y1="627.0" y2="592.0" /><line stroke="black" stroke-width="2" x1="639.0" x2="635.0" y1="115.0" y2="157.0" /><line stroke="black" stroke-width="2" x1="704.0" x2="750.0" y1="522.0" y2="559.0" /><line stroke="black" stroke-width="2" x1="499.0" x2="514.0" y1="375.0" y2="406.0" /><line stroke="black" stroke-width="2" x1="273.0" x2="328.0" y1="378.0" y2="422.0" /><line stroke="black" stroke-width="2" x1="754.0" x2="822.0" y1="294.0" y2="300.0" /><line stroke="black" stroke-width="2" x1="313.0" x2="328.0" y1="404.0" y2="422.0" /><line stroke="black" stroke-width="2" x1="732.0" x2="794.0" y1="312.0" y2="360.0" /><line stroke="black" stroke-width="2" x1="362.0" x2="379.0" y1="372.0" y2="373.0" /><line stroke="black" stroke-width="2" x1="580.0" x2="603.0" y1="407.0" y2="512.0" /><line stroke="black" stroke-width="2" x1="639.0" x2="643.0" y1="115.0" y2="135.0" /><line stroke="black" stroke-width="2" x1="497.0" x2="504.0" y1="334.0" y2="304.0" /><line stroke="black" stroke-width="2" x1="328.0" x2="386.0" y1="422.0" y2="389.0" /><line stroke="black" stroke-width="2" x1="920.0" x2="984.0" y1="395.0" y2="376.0" /><line stroke="black" stroke-width="2" x1="567.0" x2="571.0" y1="252.0" y2="211.0" /><line stroke="black" stroke-width="2" x1="362.0" x2="386.0" y1="372.0" y2="389.0" /><line stroke="black" stroke-width="2" x1="707.0" x2="724.0" y1="506.0" y2="464.0" /><line stroke="black" stroke-width="2" x1="504.0" x2="567.0" y1="304.0" y2="252.0" /><line stroke="black" stroke-width="2" x1="800.0" x2="817.0" y1="375.0" y2="381.0" /><line stroke="black" stroke-width="2" x1="420.0" x2="470.0" y1="360.0" y2="319.0" /><line stroke="black" stroke-width="2" x1="530.0" x2="578.0" y1="332.0" y2="356.0" /><line stroke="black" stroke-width="2" x1="514.0" x2="565.0" y1="406.0" y2="368.0" /><line stroke="black" stroke-width="2" x1="724.0" x2="783.0" y1="464.0" y2="505.0" /><line stroke="black" stroke-width="2" x1="969.0" x2="984.0" y1="392.0" y2="376.0" /><line stroke="black" stroke-width="2" x1="698.0" x2="697.0" y1="211.0" y2="196.0" /><line stroke="black" stroke-width="2" x1="386.0" x2="420.0" y1="389.0" y2="360.0" /><line stroke="black" stroke-width="2" x1="376.0" x2="420.0" y1="342.0" y2="360.0" /><line stroke="black" stroke-width="2" x1="499.0" x2="580.0" y1="375.0" y2="407.0" /><line stroke="black" stroke-width="2" x1="650.0" x2="677.0" y1="324.0" y2="261.0" /><line stroke="black" stroke-width="2" x1="820.0" x2="909.0" y1="410.0" y2="332.0" /><line stroke="black" stroke-width="2" x1="669.0" x2="685.0" y1="391.0" y2="355.0" /><line stroke="black" stroke-width="2" x1="655.0" x2="678.0" y1="556.0" y2="592.0" /><line stroke="black" stroke-width="2" x1="685.0" x2="707.0" y1="355.0" y2="353.0" /><line stroke="black" stroke-width="2" x1="578.0" x2="650.0" y1="356.0" y2="324.0" /><line stroke="black" stroke-width="2" x1="530.0" x2="584.0" y1="531.0" y2="482.0" /><line stroke="black" stroke-width="2" x1="652.0" x2="701.0" y1="606.0" y2="574.0" /><line stroke="black" stroke-width="2" x1="650.0" x2="691.0" y1="324.0" y2="231.0" /><line stroke="black" stroke-width="2" x1="707.0" x2="820.0" y1="353.0" y2="410.0" /><line stroke="black" stroke-width="2" x1="581.0" x2="584.0" y1="520.0" y2="482.0" /><line stroke="black" stroke-width="2" x1="800.0" x2="830.0" y1="375.0" y2="351.0" /><line stroke="black" stroke-width="2" x1="820.0" x2="835.0" y1="410.0" y2="435.0" /><line stroke="black" stroke-width="2" x1="707.0" x2="704.0" y1="353.0" y2="400.0" /><line stroke="black" stroke-width="2" x1="376.0" x2="379.0" y1="342.0" y2="373.0" /><line stroke="black" stroke-width="2" x1="909.0" x2="906.0" y1="332.0" y2="280.0" /><line stroke="black" stroke-width="2" x1="688.0" x2="701.0" y1="534.0" y2="574.0" /><line stroke="black" stroke-width="2" x1="504.0" x2="565.0" y1="304.0" y2="368.0" /><line stroke="black" stroke-width="2" x1="639.0" x2="639.0" y1="623.0" y2="642.0" /><line stroke="black" stroke-width="2" x1="822.0" x2="824.0" y1="300.0" y2="315.0" /><line stroke="black" stroke-width="2" x1="273.0" x2="362.0" y1="378.0" y2="372.0" /><line stroke="black" stroke-width="2" x1="698.0" x2="733.0" y1="211.0" y2="183.0" /><line stroke="black" stroke-width="2" x1="484.0" x2="514.0" y1="354.0" y2="406.0" /><line stroke="black" stroke-width="2" x1="920.0" x2="969.0" y1="395.0" y2="392.0" /><line stroke="black" stroke-width="2" x1="920.0" x2="928.0" y1="395.0" y2="366.0" /><line stroke="black" stroke-width="2" x1="677.0" x2="691.0" y1="261.0" y2="231.0" /><line stroke="black" stroke-width="2" x1="820.0" x2="817.0" y1="410.0" y2="381.0" /><line stroke="black" stroke-width="2" x1="635.0" x2="646.0" y1="157.0" y2="210.0" /><line stroke="black" stroke-width="2" x1="701.0" x2="750.0" y1="574.0" y2="559.0" /><line stroke="black" stroke-width="2" x1="578.0" x2="633.0" y1="356.0" y2="350.0" /><line stroke="black" stroke-width="2" x1="655.0" x2="701.0" y1="556.0" y2="574.0" /><line stroke="black" stroke-width="2" x1="688.0" x2="707.0" y1="534.0" y2="506.0" /><line stroke="black" stroke-width="2" x1="678.0" x2="701.0" y1="592.0" y2="574.0" /><line stroke="black" stroke-width="2" x1="456.0" x2="514.0" y1="455.0" y2="406.0" /><line stroke="black" stroke-width="2" x1="596.0" x2="641.0" y1="136.0" y2="66.0" /><line stroke="black" stroke-width="2" x1="273.0" x2="313.0" y1="378.0" y2="404.0" /><line stroke="black" stroke-width="2" x1="580.0" x2="584.0" y1="407.0" y2="482.0" /><line stroke="black" stroke-width="2" x1="704.0" x2="707.0" y1="487.0" y2="506.0" /><line stroke="black" stroke-width="2" x1="376.0" x2="386.0" y1="445.0" y2="389.0" /><line stroke="black" stroke-width="2" x1="688.0" x2="704.0" y1="534.0" y2="487.0" /><line stroke="black" stroke-width="2" x1="634.0" x2="685.0" y1="370.0" y2="355.0" /><line stroke="black" stroke-width="2" x1="547.0" x2="560.0" y1="152.0" y2="162.0" /><line stroke="black" stroke-width="2" x1="565.0" x2="619.0" y1="368.0" y2="420.0" /><line stroke="black" stroke-width="2" x1="530.0" x2="612.0" y1="531.0" y2="551.0" /><line stroke="black" stroke-width="2" x1="578.0" x2="619.0" y1="356.0" y2="420.0" /><line stroke="black" stroke-width="2" x1="596.0" x2="639.0" y1="136.0" y2="115.0" /><line stroke="black" stroke-width="2" x1="641.0" x2="643.0" y1="66.0" y2="135.0" /><line stroke="black" stroke-width="2" x1="548.0" x2="607.0" y1="600.0" y2="603.0" /><line stroke="black" stroke-width="2" x1="607.0" x2="634.0" y1="603.0" y2="605.0" /><line stroke="black" stroke-width="2" x1="639.0" x2="645.0" y1="642.0" y2="582.0" /><line stroke="black" stroke-width="2" x1="645.0" x2="652.0" y1="582.0" y2="606.0" /><line stroke="black" stroke-width="2" x1="652.0" x2="666.0" y1="606.0" y2="627.0" /><line stroke="black" stroke-width="2" x1="376.0" x2="362.0" y1="342.0" y2="372.0" /><line stroke="black" stroke-width="2" x1="379.0" x2="273.0" y1="373.0" y2="378.0" /><line stroke="black" stroke-width="2" x1="273.0" x2="386.0" y1="378.0" y2="389.0" /><line stroke="black" stroke-width="2" x1="386.0" x2="313.0" y1="389.0" y2="404.0" /><line stroke="black" stroke-width="2" x1="328.0" x2="376.0" y1="422.0" y2="445.0" /><line stroke="black" stroke-width="2" x1="885.0" x2="906.0" y1="275.0" y2="280.0" /><line stroke="black" stroke-width="2" x1="909.0" x2="928.0" y1="332.0" y2="366.0" /><line stroke="black" stroke-width="2" x1="928.0" x2="984.0" y1="366.0" y2="376.0" /><line stroke="black" stroke-width="2" x1="920.0" x2="891.0" y1="395.0" y2="441.0" /><path d="M273.0,378.0 Q0.0,719.0 969.0,392.0" fill="none" stroke="black" stroke-width="2" /><path d="M273.0,378.0 Q1279.0,719.0 906.0,280.0" fill="none" stroke="black" stroke-width="2" /></svg>