<?xml version="1.0" encoding="utf-8" ?>
<svg baseProfile="tiny" height="100%" version="1.2" viewBox="0,0,500,500" width="100%" xmlns="http://www.w3.org/2000/svg" xmlns:ev="http://www.w3.org/2001/xml-events" xmlns:xlink="http://www.w3.org/1999/xlink"><defs /><circle cx="84.0" cy="196.0" fill="black" r="3" /><circle cx="57.0" cy="52.0" fill="black" r="3" /><circle cx="160.0" cy="197.0" fill="black" r="3" /><circle cx="90.0" cy="32.0" fill="black" r="3" /><circle cx="138.0" cy="174.0" fill="black" r="3" /><circle cx="58.0" cy="178.0" fill="black" r="3" /><circle cx="35.0" cy="84.0" fill="black" r="3" /><circle cx="197.0" cy="136.0" fill="black" r="3" /><circle cx="193.0" cy="85.0" fill="black" r="3" /><circle cx="35.0" cy="142.0" fill="black" r="3" /><circle cx="75.0" cy="155.0" fill="black" r="3" /><circle cx="97.0" cy="171.0" fill="black" r="3" /><circle cx="142.0" cy="29.0" fill="black" r="3" /><circle cx="167.0" cy="53.0" fill="black" r="3" /><circle cx="183.0" cy="128.0" fill="black" r="3" /><circle cx="130.0" cy="54.0" fill="black" r="3" /><circle cx="94.0" cy="123.0" fill="black" r="3" /><circle cx="123.0" cy="130.0" fill="black" r="3" /><circle cx="167.0" cy="145.0" fill="black" r="3" /><circle cx="56.0" cy="89.0" fill="black" r="3" /><circle cx="168.0" cy="100.0" fill="black" r="3" /><circle cx="154.0" cy="157.0" fill="black" r="3" /><circle cx="60.0" cy="127.0" fill="black" r="3" /><circle cx="89.0" cy="147.0" fill="black" r="3" /><circle cx="133.0" cy="144.0" fill="black" r="3" /><circle cx="106.0" cy="98.0" fill="black" r="3" /><circle cx="142.0" cy="74.0" fill="black" r="3" /><circle cx="43.0" cy="129.0" fill="black" r="3" /><circle cx="125.0" cy="97.0" fill="black" r="3" /><circle cx="73.0" cy="70.0" fill="black" r="3" /><circle cx="119.0" cy="211.0" fill="black" r="3" /><circle cx="211.0" cy="210.0" fill="black" r="3" /><circle cx="80.0" cy="87.0" fill="black" r="3" /><circle cx="189.0" cy="208.0" fill="black" r="3" /><circle cx="120.0" cy="71.0" fill="black" r="3" /><circle cx="62.0" cy="144.0" fill="black" r="3" /><circle cx="166.0" cy="83.0" fill="black" r="3" /><circle cx="113.0" cy="48.0" fill="black" r="3" /><circle cx="27.0" cy="99.0" fill="black" r="3" /><circle cx="201.0" cy="101.0" fill="black" r="3" /><circle cx="88.0" cy="67.0" fill="black" r="3" /><circle cx="27.0" cy="126.0" fill="black" r="3" /><circle cx="52.0" cy="114.0" fill="black" r="3" /><circle cx="67.0" cy="113.0" fill="black" r="3" /><circle cx="91.0" cy="100.0" fill="black" r="3" /><circle cx="193.0" cy="115.0" fill="black" r="3" /><circle cx="63.0" cy="27.0" fill="black" r="3" /><circle cx="166.0" cy="123.0" fill="black" r="3" /><circle cx="147.0" cy="101.0" fill="black" r="3" /><circle cx="97.0" cy="82.0" fill="black" r="3" /><circle cx="19.0" cy="113.0" fill="black" r="3" /><line stroke="black" stroke-width="2" x1="62.0" x2="167.0" y1="144.0" y2="145.0" /><line stroke="black" stroke-width="2" x1="84.0" x2="130.0" y1="196.0" y2="54.0" /><line stroke="black" stroke-width="2" x1="35.0" x2="35.0" y1="84.0" y2="142.0" /><line stroke="black" stroke-width="2" x1="57.0" x2="97.0" y1="52.0" y2="171.0" /><line stroke="black" stroke-width="2" x1="130.0" x2="142.0" y1="54.0" y2="29.0" /><line stroke="black" stroke-width="2" x1="119.0" x2="142.0" y1="211.0" y2="29.0" /><line stroke="black" stroke-width="2" x1="57.0" x2="97.0" y1="52.0" y2="82.0" /><line stroke="black" stroke-width="2" x1="130.0" x2="166.0" y1="54.0" y2="123.0" /><line stroke="black" stroke-width="2" x1="58.0" x2="142.0" y1="178.0" y2="29.0" /><line stroke="black" stroke-width="2" x1="123.0" x2="160.0" y1="130.0" y2="197.0" /><line stroke="black" stroke-width="2" x1="166.0" x2="167.0" y1="83.0" y2="53.0" /><line stroke="black" stroke-width="2" x1="160.0" x2="166.0" y1="197.0" y2="123.0" /><line stroke="black" stroke-width="2" x1="119.0" x2="211.0" y1="211.0" y2="210.0" /><line stroke="black" stroke-width="2" x1="89.0" x2="167.0" y1="147.0" y2="53.0" /><line stroke="black" stroke-width="2" x1="88.0" x2="90.0" y1="67.0" y2="32.0" /><line stroke="black" stroke-width="2" x1="35.0" x2="160.0" y1="84.0" y2="197.0" /><line stroke="black" stroke-width="2" x1="90.0" x2="113.0" y1="32.0" y2="48.0" /><line stroke="black" stroke-width="2" x1="166.0" x2="201.0" y1="83.0" y2="101.0" /><line stroke="black" stroke-width="2" x1="160.0" x2="211.0" y1="197.0" y2="210.0" /><line stroke="black" stroke-width="2" x1="56.0" x2="97.0" y1="89.0" y2="82.0" /><line stroke="black" stroke-width="2" x1="57.0" x2="90.0" y1="52.0" y2="32.0" /><line stroke="black" stroke-width="2" x1="57.0" x2="166.0" y1="52.0" y2="123.0" /><line stroke="black" stroke-width="2" x1="84.0" x2="97.0" y1="196.0" y2="171.0" /><line stroke="black" stroke-width="2" x1="138.0" x2="147.0" y1="174.0" y2="101.0" /><line stroke="black" stroke-width="2" x1="27.0" x2="56.0" y1="99.0" y2="89.0" /><line stroke="black" stroke-width="2" x1="58.0" x2="142.0" y1="178.0" y2="74.0" /><line stroke="black" stroke-width="2" x1="133.0" x2="167.0" y1="144.0" y2="145.0" /><line stroke="black" stroke-width="2" x1="197.0" x2="193.0" y1="136.0" y2="85.0" /><line stroke="black" stroke-width="2" x1="75.0" x2="106.0" y1="155.0" y2="98.0" /><line stroke="black" stroke-width="2" x1="43.0" x2="120.0" y1="129.0" y2="71.0" /><line stroke="black" stroke-width="2" x1="97.0" x2="106.0" y1="171.0" y2="98.0" /><line stroke="black" stroke-width="2" x1="58.0" x2="75.0" y1="178.0" y2="155.0" /><line stroke="black" stroke-width="2" x1="147.0" x2="167.0" y1="101.0" y2="145.0" /><line stroke="black" stroke-width="2" x1="88.0" x2="142.0" y1="67.0" y2="29.0" /><line stroke="black" stroke-width="2" x1="57.0" x2="125.0" y1="52.0" y2="97.0" /><line stroke="black" stroke-width="2" x1="84.0" x2="183.0" y1="196.0" y2="128.0" /><line stroke="black" stroke-width="2" x1="130.0" x2="123.0" y1="54.0" y2="130.0" /><line stroke="black" stroke-width="2" x1="106.0" x2="160.0" y1="98.0" y2="197.0" /><line stroke="black" stroke-width="2" x1="142.0" x2="167.0" y1="29.0" y2="53.0" /><line stroke="black" stroke-width="2" x1="60.0" x2="58.0" y1="127.0" y2="178.0" /><line stroke="black" stroke-width="2" x1="27.0" x2="94.0" y1="99.0" y2="123.0" /><line stroke="black" stroke-width="2" x1="63.0" x2="56.0" y1="27.0" y2="89.0" /><line stroke="black" stroke-width="2" x1="56.0" x2="113.0" y1="89.0" y2="48.0" /><line stroke="black" stroke-width="2" x1="62.0" x2="113.0" y1="144.0" y2="48.0" /><line stroke="black" stroke-width="2" x1="167.0" x2="168.0" y1="53.0" y2="100.0" /><line stroke="black" stroke-width="2" x1="123.0" x2="166.0" y1="130.0" y2="123.0" /><line stroke="black" stroke-width="2" x1="91.0" x2="90.0" y1="100.0" y2="32.0" /><line stroke="black" stroke-width="2" x1="67.0" x2="73.0" y1="113.0" y2="70.0" /><line stroke="black" stroke-width="2" x1="35.0" x2="97.0" y1="142.0" y2="82.0" /><line stroke="black" stroke-width="2" x1="123.0" x2="167.0" y1="130.0" y2="145.0" /><line stroke="black" stroke-width="2" x1="58.0" x2="84.0" y1="178.0" y2="196.0" /><line stroke="black" stroke-width="2" x1="56.0" x2="97.0" y1="89.0" y2="171.0" /><line stroke="black" stroke-width="2" x1="43.0" x2="106.0" y1="129.0" y2="98.0" /><line stroke="black" stroke-width="2" x1="138.0" x2="168.0" y1="174.0" y2="100.0" /><line stroke="black" stroke-width="2" x1="119.0" x2="160.0" y1="211.0" y2="197.0" /><line stroke="black" stroke-width="2" x1="97.0" x2="94.0" y1="171.0" y2="123.0" /><line stroke="black" stroke-width="2" x1="35.0" x2="43.0" y1="84.0" y2="129.0" /><line stroke="black" stroke-width="2" x1="97.0" x2="154.0" y1="171.0" y2="157.0" /><line stroke="black" stroke-width="2" x1="57.0" x2="167.0" y1="52.0" y2="53.0" /><line stroke="black" stroke-width="2" x1="166.0" x2="197.0" y1="83.0" y2="136.0" /><line stroke="black" stroke-width="2" x1="142.0" x2="168.0" y1="29.0" y2="100.0" /><line stroke="black" stroke-width="2" x1="113.0" x2="183.0" y1="48.0" y2="128.0" /><line stroke="black" stroke-width="2" x1="193.0" x2="193.0" y1="85.0" y2="115.0" /><line stroke="black" stroke-width="2" x1="119.0" x2="133.0" y1="211.0" y2="144.0" /><line stroke="black" stroke-width="2" x1="106.0" x2="166.0" y1="98.0" y2="123.0" /><line stroke="black" stroke-width="2" x1="97.0" x2="113.0" y1="82.0" y2="48.0" /><line stroke="black" stroke-width="2" x1="123.0" x2="166.0" y1="130.0" y2="83.0" /><line stroke="black" stroke-width="2" x1="62.0" x2="94.0" y1="144.0" y2="123.0" /><line stroke="black" stroke-width="2" x1="91.0" x2="142.0" y1="100.0" y2="74.0" /><line stroke="black" stroke-width="2" x1="119.0" x2="154.0" y1="211.0" y2="157.0" /><line stroke="black" stroke-width="2" x1="97.0" x2="166.0" y1="171.0" y2="123.0" /><line stroke="black" stroke-width="2" x1="120.0" x2="183.0" y1="71.0" y2="128.0" /><line stroke="black" stroke-width="2" x1="52.0" x2="88.0" y1="114.0" y2="67.0" /><line stroke="black" stroke-width="2" x1="160.0" x2="154.0" y1="197.0" y2="157.0" /><line stroke="black" stroke-width="2" x1="142.0" x2="183.0" y1="74.0" y2="128.0" /><line stroke="black" stroke-width="2" x1="97.0" x2="147.0" y1="171.0" y2="101.0" /><line stroke="black" stroke-width="2" x1="147.0" x2="183.0" y1="101.0" y2="128.0" /><line stroke="black" stroke-width="2" x1="88.0" x2="120.0" y1="67.0" y2="71.0" /><line stroke="black" stroke-width="2" x1="35.0" x2="60.0" y1="84.0" y2="127.0" /><line stroke="black" stroke-width="2" x1="67.0" x2="88.0" y1="113.0" y2="67.0" /><line stroke="black" stroke-width="2" x1="120.0" x2="167.0" y1="71.0" y2="145.0" /><line stroke="black" stroke-width="2" x1="19.0" x2="62.0" y1="113.0" y2="144.0" /><line stroke="black" stroke-width="2" x1="97.0" x2="160.0" y1="171.0" y2="197.0" /><line stroke="black" stroke-width="2" x1="80.0" x2="97.0" y1="87.0" y2="171.0" /><line stroke="black" stroke-width="2" x1="57.0" x2="88.0" y1="52.0" y2="67.0" /><line stroke="black" stroke-width="2" x1="119.0" x2="167.0" y1="211.0" y2="145.0" /><line stroke="black" stroke-width="2" x1="75.0" x2="154.0" y1="155.0" y2="157.0" /><line stroke="black" stroke-width="2" x1="189.0" x2="211.0" y1="208.0" y2="210.0" /><line stroke="black" stroke-width="2" x1="84.0" x2="123.0" y1="196.0" y2="130.0" /><line stroke="black" stroke-width="2" x1="63.0" x2="90.0" y1="27.0" y2="32.0" /><line stroke="black" stroke-width="2" x1="113.0" x2="142.0" y1="48.0" y2="29.0" /><line stroke="black" stroke-width="2" x1="84.0" x2="119.0" y1="196.0" y2="211.0" /><line stroke="black" stroke-width="2" x1="160.0" x2="189.0" y1="197.0" y2="208.0" /><line stroke="black" stroke-width="2" x1="35.0" x2="27.0" y1="84.0" y2="99.0" /><line stroke="black" stroke-width="2" x1="27.0" x2="19.0" y1="99.0" y2="113.0" /><line stroke="black" stroke-width="2" x1="19.0" x2="27.0" y1="113.0" y2="126.0" /><line stroke="black" stroke-width="2" x1="27.0" x2="35.0" y1="126.0" y2="142.0" /><line stroke="black" stroke-width="2" x1="193.0" x2="201.0" y1="85.0" y2="101.0" /><line stroke="black" stroke-width="2" x1="201.0" x2="193.0" y1="101.0" y2="115.0" /><line stroke="black" stroke-width="2" x1="193.0" x2="197.0" y1="115.0" y2="136.0" /><line stroke="black" stroke-width="2" x1="197.0" x2="189.0" y1="136.0" y2="208.0" /><path d="M63.0,27.0 Q62.0,82.0 19.0,113.0" fill="none" stroke="black" stroke-width="2" /><path d="M56.0,89.0 Q19.0,109.0 62.0,144.0" fill="none" stroke="black" stroke-width="2" /><path d="M19.0,113.0 Q65.0,143.0 58.0,178.0" fill="none" stroke="black" stroke-width="2" /><path d="M62.0,144.0 Q58.0,192.0 97.0,171.0" fill="none" stroke="black" stroke-width="2" /><path d="M58.0,178.0 Q115.0,174.0 160.0,197.0" fill="none" stroke="black" stroke-width="2" /><path d="M97.0,171.0 Q166.0,198.0 167.0,145.0" fill="none" stroke="black" stroke-width="2" /><path d="M160.0,197.0 Q165.0,144.0 193.0,115.0" fill="none" stroke="black" stroke-width="2" /><path d="M167.0,145.0 Q209.0,117.0 166.0,83.0" fill="none" stroke="black" stroke-width="2" /><path d="M193.0,115.0 Q162.0,83.0 167.0,53.0" fill="none" stroke="black" stroke-width="2" /><path d="M166.0,83.0 Q169.0,33.0 113.0,48.0" fill="none" stroke="black" stroke-width="2" /></svg>