<?xml version="1.0" encoding="utf-8" ?>
<svg baseProfile="tiny" height="100%" version="1.2" viewBox="0,0,500,500" width="100%" xmlns="http://www.w3.org/2000/svg" xmlns:ev="http://www.w3.org/2001/xml-events" xmlns:xlink="http://www.w3.org/1999/xlink"><defs /><circle cx="120.0" cy="120.0" fill="black" r="3" /><circle cx="150.0" cy="120.0" fill="black" r="3" /><circle cx="141.21" cy="141.21" fill="black" r="3" /><circle cx="120.0" cy="150.0" fill="black" r="3" /><circle cx="98.79" cy="141.21" fill="black" r="3" /><circle cx="90.0" cy="120.0" fill="black" r="3" /><circle cx="98.79" cy="98.79" fill="black" r="3" /><circle cx="120.0" cy="90.0" fill="black" r="3" /><circle cx="141.21" cy="98.79" fill="black" r="3" /><circle cx="190.0" cy="120.0" fill="black" r="3" /><circle cx="169.5" cy="169.5" fill="black" r="3" /><circle cx="120.0" cy="190.0" fill="black" r="3" /><circle cx="70.5" cy="169.5" fill="black" r="3" /><circle cx="50.0" cy="120.0" fill="black" r="3" /><circle cx="70.5" cy="70.5" fill="black" r="3" /><circle cx="120.0" cy="50.0" fill="black" r="3" /><circle cx="169.5" cy="70.5" fill="black" r="3" /><circle cx="203.11" cy="154.41" fill="black" r="3" /><circle cx="154.41" cy="203.11" fill="black" r="3" /><circle cx="85.59" cy="203.11" fill="black" r="3" /><circle cx="36.89" cy="154.41" fill="black" r="3" /><circle cx="36.89" cy="85.59" fill="black" r="3" /><circle cx="85.59" cy="36.89" fill="black" r="3" /><circle cx="154.41" cy="36.89" fill="black" r="3" /><circle cx="203.11" cy="85.59" fill="black" r="3" /><circle cx="10.0" cy="10.0" fill="black" r="3" /><circle cx="230.0" cy="10.0" fill="black" r="3" /><circle cx="230.0" cy="230.0" fill="black" r="3" /><circle cx="10.0" cy="230.0" fill="black" r="3" /><line stroke="black" stroke-width="2" x1="120.0" x2="150.0" y1="120.0" y2="120.0" /><line stroke="black" stroke-width="2" x1="120.0" x2="120.0" y1="120.0" y2="150.0" /><line stroke="black" stroke-width="2" x1="120.0" x2="90.0" y1="120.0" y2="120.0" /><line stroke="black" stroke-width="2" x1="120.0" x2="120.0" y1="120.0" y2="90.0" /><path d="M150.0,120.0 Q208.5,120.0 141.21,141.21" fill="none" stroke="black" stroke-width="2" /><path d="M141.21,141.21 Q185.09,185.09 120.0,150.0" fill="none" stroke="black" stroke-width="2" /><path d="M120.0,150.0 Q120.0,208.5 98.79,141.21" fill="none" stroke="black" stroke-width="2" /><path d="M98.79,141.21 Q54.91,185.09 90.0,120.0" fill="none" stroke="black" stroke-width="2" /><path d="M90.0,120.0 Q31.5,120.0 98.79,98.79" fill="none" stroke="black" stroke-width="2" /><path d="M98.79,98.79 Q54.91,54.91 120.0,90.0" fill="none" stroke="black" stroke-width="2" /><path d="M120.0,90.0 Q120.0,31.5 141.21,98.79" fill="none" stroke="black" stroke-width="2" /><path d="M141.21,98.79 Q185.09,54.91 150.0,120.0" fill="none" stroke="black" stroke-width="2" /><line stroke="black" stroke-width="2" x1="150.0" x2="190.0" y1="120.0" y2="120.0" /><line stroke="black" stroke-width="2" x1="141.21" x2="169.5" y1="141.21" y2="169.5" /><line stroke="black" stroke-width="2" x1="120.0" x2="120.0" y1="150.0" y2="190.0" /><line stroke="black" stroke-width="2" x1="98.79" x2="70.5" y1="141.21" y2="169.5" /><line stroke="black" stroke-width="2" x1="90.0" x2="50.0" y1="120.0" y2="120.0" /><line stroke="black" stroke-width="2" x1="98.79" x2="70.5" y1="98.79" y2="70.5" /><line stroke="black" stroke-width="2" x1="120.0" x2="120.0" y1="90.0" y2="50.0" /><line stroke="black" stroke-width="2" x1="141.21" x2="169.5" y1="98.79" y2="70.5" /><path d="M190.0,120.0 Q203.11,154.41 169.5,169.5" fill="none" stroke="black" stroke-width="2" /><path d="M169.5,169.5 Q154.41,203.11 120.0,190.0" fill="none" stroke="black" stroke-width="2" /><path d="M120.0,190.0 Q85.59,203.11 70.5,169.5" fill="none" stroke="black" stroke-width="2" /><path d="M70.5,169.5 Q36.89,154.41 50.0,120.0" fill="none" stroke="black" stroke-width="2" /><path d="M50.0,120.0 Q36.89,85.59 70.5,70.5" fill="none" stroke="black" stroke-width="2" /><path d="M70.5,70.5 Q85.59,36.89 120.0,50.0" fill="none" stroke="black" stroke-width="2" /><path d="M120.0,50.0 Q154.41,36.89 169.5,70.5" fill="none" stroke="black" stroke-width="2" /><path d="M169.5,70.5 Q203.11,85.59 190.0,120.0" fill="none" stroke="black" stroke-width="2" /><line stroke="black" stroke-width="2" x1="203.11" x2="230.0" y1="154.41" y2="230.0" /><line stroke="black" stroke-width="2" x1="154.41" x2="230.0" y1="203.11" y2="230.0" /><line stroke="black" stroke-width="2" x1="85.59" x2="10.0" y1="203.11" y2="230.0" /><line stroke="black" stroke-width="2" x1="36.89" x2="10.0" y1="154.41" y2="230.0" /><line stroke="black" stroke-width="2" x1="36.89" x2="10.0" y1="85.59" y2="10.0" /><line stroke="black" stroke-width="2" x1="85.59" x2="10.0" y1="36.89" y2="10.0" /><line stroke="black" stroke-width="2" x1="154.41" x2="230.0" y1="36.89" y2="10.0" /><line stroke="black" stroke-width="2" x1="203.11" x2="230.0" y1="85.59" y2="10.0" /><line stroke="black" stroke-width="2" x1="10.0" x2="230.0" y1="10.0" y2="10.0" /><line stroke="black" stroke-width="2" x1="230.0" x2="230.0" y1="10.0" y2="230.0" /><line stroke="black" stroke-width="2" x1="230.0" x2="10.0" y1="230.0" y2="230.0" /><line stroke="black" stroke-width="2" x1="10.0" x2="10.0" y1="230.0" y2="10.0" /></svg>