<?xml version="1.0" encoding="utf-8" ?>
<svg baseProfile="tiny" height="100%" version="1.2" viewBox="0,0,500,500" width="100%" xmlns="http://www.w3.org/2000/svg" xmlns:ev="http://www.w3.org/2001/xml-events" xmlns:xlink="http://www.w3.org/1999/xlink"><defs /><circle cx="125.0" cy="125.0" fill="black" r="3" /><circle cx="145.0" cy="125.0" fill="black" r="3" /><circle cx="142.3" cy="135.0" fill="black" r="3" /><circle cx="135.0" cy="142.3" fill="black" r="3" /><circle cx="125.0" cy="145.0" fill="black" r="3" /><circle cx="115.0" cy="142.3" fill="black" r="3" /><circle cx="107.7" cy="135.0" fill="black" r="3" /><circle cx="105.0" cy="125.0" fill="black" r="3" /><circle cx="107.7" cy="115.0" fill="black" r="3" /><circle cx="115.0" cy="107.7" fill="black" r="3" /><circle cx="125.0" cy="105.0" fill="black" r="3" /><circle cx="135.0" cy="107.7" fill="black" r="3" /><circle cx="142.3" cy="115.0" fill="black" r="3" /><circle cx="163.6" cy="135.4" fill="black" r="3" /><circle cx="148.0" cy="160.4" fill="black" r="3" /><circle cx="125.0" cy="165.4" fill="black" r="3" /><circle cx="102.0" cy="160.4" fill="black" r="3" /><circle cx="86.4" cy="135.4" fill="black" r="3" /><circle cx="80.0" cy="109.6" fill="black" r="3" /><circle cx="102.0" cy="89.6" fill="black" r="3" /><circle cx="125.0" cy="84.6" fill="black" r="3" /><circle cx="148.0" cy="89.6" fill="black" r="3" /><circle cx="163.6" cy="109.6" fill="black" r="3" /><circle cx="165.4" cy="125.0" fill="black" r="3" /><circle cx="175.0" cy="153.0" fill="black" r="3" /><circle cx="185.0" cy="125.0" fill="black" r="3" /><circle cx="175.0" cy="97.0" fill="black" r="3" /><circle cx="153.0" cy="75.0" fill="black" r="3" /><circle cx="125.0" cy="65.0" fill="black" r="3" /><circle cx="97.0" cy="75.0" fill="black" r="3" /><circle cx="75.0" cy="97.0" fill="black" r="3" /><circle cx="65.0" cy="125.0" fill="black" r="3" /><circle cx="75.0" cy="153.0" fill="black" r="3" /><circle cx="97.0" cy="175.0" fill="black" r="3" /><circle cx="125.0" cy="185.0" fill="black" r="3" /><circle cx="153.0" cy="175.0" fill="black" r="3" /><circle cx="175.0" cy="153.0" fill="black" r="3" /><circle cx="202.3" cy="145.7" fill="black" r="3" /><circle cx="184.6" cy="195.4" fill="black" r="3" /><circle cx="145.7" cy="217.3" fill="black" r="3" /><circle cx="95.4" cy="217.3" fill="black" r="3" /><circle cx="55.4" cy="195.4" fill="black" r="3" /><circle cx="37.7" cy="145.7" fill="black" r="3" /><circle cx="29.6" cy="95.4" fill="black" r="3" /><circle cx="55.4" cy="54.6" fill="black" r="3" /><circle cx="95.4" cy="32.7" fill="black" r="3" /><circle cx="145.7" cy="32.7" fill="black" r="3" /><circle cx="195.4" cy="54.6" fill="black" r="3" /><circle cx="217.3" cy="95.4" fill="black" r="3" /><circle cx="225.0" cy="125.0" fill="black" r="3" /><circle cx="200.0" cy="173.2" fill="black" r="3" /><circle cx="173.2" cy="200.0" fill="black" r="3" /><circle cx="125.0" cy="225.0" fill="black" r="3" /><circle cx="75.0" cy="200.0" fill="black" r="3" /><circle cx="50.0" cy="173.2" fill="black" r="3" /><circle cx="25.0" cy="125.0" fill="black" r="3" /><circle cx="50.0" cy="76.8" fill="black" r="3" /><circle cx="75.0" cy="50.0" fill="black" r="3" /><circle cx="125.0" cy="25.0" fill="black" r="3" /><circle cx="173.2" cy="50.0" fill="black" r="3" /><circle cx="200.0" cy="76.8" fill="black" r="3" /><circle cx="225.0" cy="125.0" fill="black" r="3" /><line stroke="black" stroke-width="2" x1="125.0" x2="145.0" y1="125.0" y2="125.0" /><path d="M145.0,125.0 Q125.0,125.0 142.3,135.0" fill="none" stroke="black" stroke-width="2" /><line stroke="black" stroke-width="2" x1="125.0" x2="142.3" y1="125.0" y2="135.0" /><path d="M142.3,135.0 Q125.0,125.0 135.0,142.3" fill="none" stroke="black" stroke-width="2" /><line stroke="black" stroke-width="2" x1="125.0" x2="135.0" y1="125.0" y2="142.3" /><path d="M135.0,142.3 Q125.0,125.0 125.0,145.0" fill="none" stroke="black" stroke-width="2" /><line stroke="black" stroke-width="2" x1="125.0" x2="125.0" y1="125.0" y2="145.0" /><path d="M125.0,145.0 Q125.0,125.0 115.0,142.3" fill="none" stroke="black" stroke-width="2" /><line stroke="black" stroke-width="2" x1="125.0" x2="115.0" y1="125.0" y2="142.3" /><path d="M115.0,142.3 Q125.0,125.0 107.7,135.0" fill="none" stroke="black" stroke-width="2" /><line stroke="black" stroke-width="2" x1="125.0" x2="107.7" y1="125.0" y2="135.0" /><path d="M107.7,135.0 Q125.0,125.0 105.0,125.0" fill="none" stroke="black" stroke-width="2" /><line stroke="black" stroke-width="2" x1="125.0" x2="105.0" y1="125.0" y2="125.0" /><path d="M105.0,125.0 Q125.0,125.0 107.7,115.0" fill="none" stroke="black" stroke-width="2" /><line stroke="black" stroke-width="2" x1="125.0" x2="107.7" y1="125.0" y2="115.0" /><path d="M107.7,115.0 Q125.0,125.0 115.0,107.7" fill="none" stroke="black" stroke-width="2" /><line stroke="black" stroke-width="2" x1="125.0" x2="115.0" y1="125.0" y2="107.7" /><path d="M115.0,107.7 Q125.0,125.0 125.0,105.0" fill="none" stroke="black" stroke-width="2" /><line stroke="black" stroke-width="2" x1="125.0" x2="125.0" y1="125.0" y2="105.0" /><path d="M125.0,105.0 Q125.0,125.0 135.0,107.7" fill="none" stroke="black" stroke-width="2" /><line stroke="black" stroke-width="2" x1="125.0" x2="135.0" y1="125.0" y2="107.7" /><path d="M135.0,107.7 Q125.0,125.0 142.3,115.0" fill="none" stroke="black" stroke-width="2" /><line stroke="black" stroke-width="2" x1="125.0" x2="142.3" y1="125.0" y2="115.0" /><path d="M142.3,115.0 Q125.0,125.0 145.0,125.0" fill="none" stroke="black" stroke-width="2" /><path d="M185.0,125.0 Q202.3,145.7 175.0,153.0" fill="none" stroke="black" stroke-width="2" /><path d="M175.0,153.0 Q184.6,195.4 125.0,185.0" fill="none" stroke="black" stroke-width="2" /><path d="M125.0,185.0 Q145.7,217.3 75.0,175.0" fill="none" stroke="black" stroke-width="2" /><path d="M75.0,175.0 Q95.4,217.3 75.0,153.0" fill="none" stroke="black" stroke-width="2" /><path d="M75.0,153.0 Q55.4,195.4 65.0,125.0" fill="none" stroke="black" stroke-width="2" /><path d="M65.0,125.0 Q37.7,145.7 75.0,97.0" fill="none" stroke="black" stroke-width="2" /><path d="M75.0,97.0 Q29.6,95.4 125.0,65.0" fill="none" stroke="black" stroke-width="2" /><path d="M125.0,65.0 Q55.4,54.6 175.0,75.0" fill="none" stroke="black" stroke-width="2" /><path d="M175.0,75.0 Q95.4,32.7 175.0,97.0" fill="none" stroke="black" stroke-width="2" /><path d="M175.0,97.0 Q145.7,32.7 185.0,125.0" fill="none" stroke="black" stroke-width="2" /><path d="M185.0,125.0 Q195.4,54.6 175.0,97.0" fill="none" stroke="black" stroke-width="2" /><path d="M175.0,97.0 Q217.3,95.4 185.0,125.0" fill="none" stroke="black" stroke-width="2" /><path d="M202.3,145.7 Q200.0,173.2 184.6,195.4" fill="none" stroke="black" stroke-width="2" /><path d="M184.6,195.4 Q173.2,200.0 145.7,217.3" fill="none" stroke="black" stroke-width="2" /><path d="M145.7,217.3 Q125.0,225.0 95.4,217.3" fill="none" stroke="black" stroke-width="2" /><path d="M95.4,217.3 Q75.0,200.0 55.4,195.4" fill="none" stroke="black" stroke-width="2" /><path d="M55.4,195.4 Q50.0,173.2 37.7,145.7" fill="none" stroke="black" stroke-width="2" /><path d="M37.7,145.7 Q25.0,125.0 29.6,95.4" fill="none" stroke="black" stroke-width="2" /><path d="M29.6,95.4 Q50.0,76.8 55.4,54.6" fill="none" stroke="black" stroke-width="2" /><path d="M55.4,54.6 Q75.0,50.0 95.4,32.7" fill="none" stroke="black" stroke-width="2" /><path d="M95.4,32.7 Q125.0,25.0 145.7,32.7" fill="none" stroke="black" stroke-width="2" /><path d="M145.7,32.7 Q173.2,50.0 195.4,54.6" fill="none" stroke="black" stroke-width="2" /><path d="M195.4,54.6 Q200.0,76.8 217.3,95.4" fill="none" stroke="black" stroke-width="2" /><path d="M217.3,95.4 Q225.0,125.0 202.3,145.7" fill="none" stroke="black" stroke-width="2" /><line stroke="black" stroke-width="2" x1="145.0" x2="185.0" y1="125.0" y2="125.0" /><line stroke="black" stroke-width="2" x1="142.3" x2="175.0" y1="135.0" y2="153.0" /><line stroke="black" stroke-width="2" x1="135.0" x2="153.0" y1="142.3" y2="175.0" /><line stroke="black" stroke-width="2" x1="125.0" x2="125.0" y1="145.0" y2="185.0" /><line stroke="black" stroke-width="2" x1="115.0" x2="97.0" y1="142.3" y2="175.0" /><line stroke="black" stroke-width="2" x1="107.7" x2="75.0" y1="135.0" y2="153.0" /><line stroke="black" stroke-width="2" x1="105.0" x2="65.0" y1="125.0" y2="125.0" /><line stroke="black" stroke-width="2" x1="107.7" x2="75.0" y1="115.0" y2="97.0" /><line stroke="black" stroke-width="2" x1="115.0" x2="97.0" y1="107.7" y2="75.0" /><line stroke="black" stroke-width="2" x1="125.0" x2="125.0" y1="105.0" y2="65.0" /><line stroke="black" stroke-width="2" x1="135.0" x2="153.0" y1="107.7" y2="75.0" /><line stroke="black" stroke-width="2" x1="142.3" x2="175.0" y1="115.0" y2="97.0" /><line stroke="black" stroke-width="2" x1="163.6" x2="202.3" y1="135.4" y2="145.7" /><line stroke="black" stroke-width="2" x1="148.0" x2="184.6" y1="160.4" y2="195.4" /><line stroke="black" stroke-width="2" x1="125.0" x2="145.7" y1="165.4" y2="217.3" /><line stroke="black" stroke-width="2" x1="102.0" x2="95.4" y1="160.4" y2="217.3" /><line stroke="black" stroke-width="2" x1="86.4" x2="55.4" y1="135.4" y2="195.4" /><line stroke="black" stroke-width="2" x1="80.0" x2="37.7" y1="109.6" y2="145.7" /><line stroke="black" stroke-width="2" x1="102.0" x2="29.6" y1="89.6" y2="95.4" /><line stroke="black" stroke-width="2" x1="125.0" x2="55.4" y1="84.6" y2="54.6" /><line stroke="black" stroke-width="2" x1="148.0" x2="95.4" y1="89.6" y2="32.7" /><line stroke="black" stroke-width="2" x1="163.6" x2="145.7" y1="109.6" y2="32.7" /><line stroke="black" stroke-width="2" x1="165.4" x2="195.4" y1="125.0" y2="54.6" /><line stroke="black" stroke-width="2" x1="163.6" x2="217.3" y1="135.4" y2="95.4" /><line stroke="black" stroke-width="2" x1="185.0" x2="225.0" y1="125.0" y2="125.0" /><line stroke="black" stroke-width="2" x1="175.0" x2="200.0" y1="153.0" y2="173.2" /><line stroke="black" stroke-width="2" x1="153.0" x2="173.2" y1="175.0" y2="200.0" /><line stroke="black" stroke-width="2" x1="125.0" x2="125.0" y1="185.0" y2="225.0" /><line stroke="black" stroke-width="2" x1="97.0" x2="75.0" y1="175.0" y2="200.0" /><line stroke="black" stroke-width="2" x1="75.0" x2="50.0" y1="153.0" y2="173.2" /><line stroke="black" stroke-width="2" x1="65.0" x2="25.0" y1="125.0" y2="125.0" /><line stroke="black" stroke-width="2" x1="75.0" x2="50.0" y1="97.0" y2="76.8" /><line stroke="black" stroke-width="2" x1="97.0" x2="75.0" y1="75.0" y2="50.0" /><line stroke="black" stroke-width="2" x1="125.0" x2="125.0" y1="65.0" y2="25.0" /><line stroke="black" stroke-width="2" x1="153.0" x2="173.2" y1="75.0" y2="50.0" /><line stroke="black" stroke-width="2" x1="175.0" x2="200.0" y1="97.0" y2="76.8" /></svg>