<?xml version="1.0" encoding="utf-8" ?>
<svg baseProfile="tiny" height="100%" version="1.2" viewBox="0,0,500,500" width="100%" xmlns="http://www.w3.org/2000/svg" xmlns:ev="http://www.w3.org/2001/xml-events" xmlns:xlink="http://www.w3.org/1999/xlink"><defs /><circle cx="100.0" cy="100.0" fill="black" r="3" /><circle cx="130.0" cy="100.0" fill="black" r="3" /><circle cx="121.21" cy="121.21" fill="black" r="3" /><circle cx="100.0" cy="130.0" fill="black" r="3" /><circle cx="78.79" cy="121.21" fill="black" r="3" /><circle cx="70.0" cy="100.0" fill="black" r="3" /><circle cx="78.79" cy="78.79" fill="black" r="3" /><circle cx="100.0" cy="70.0" fill="black" r="3" /><circle cx="121.21" cy="78.79" fill="black" r="3" /><circle cx="170.0" cy="100.0" fill="black" r="3" /><circle cx="149.5" cy="149.5" fill="black" r="3" /><circle cx="100.0" cy="170.0" fill="black" r="3" /><circle cx="50.5" cy="149.5" fill="black" r="3" /><circle cx="30.0" cy="100.0" fill="black" r="3" /><circle cx="50.5" cy="50.5" fill="black" r="3" /><circle cx="100.0" cy="30.0" fill="black" r="3" /><circle cx="149.5" cy="50.5" fill="black" r="3" /><circle cx="183.15" cy="134.44" fill="black" r="3" /><circle cx="134.44" cy="183.15" fill="black" r="3" /><circle cx="65.56" cy="183.15" fill="black" r="3" /><circle cx="16.85" cy="134.44" fill="black" r="3" /><circle cx="16.85" cy="65.56" fill="black" r="3" /><circle cx="65.56" cy="16.85" fill="black" r="3" /><circle cx="134.44" cy="16.85" fill="black" r="3" /><circle cx="183.15" cy="65.56" fill="black" r="3" /><line stroke="black" stroke-width="2" x1="130.0" x2="121.21" y1="100.0" y2="121.21" /><line stroke="black" stroke-width="2" x1="121.21" x2="100.0" y1="121.21" y2="130.0" /><line stroke="black" stroke-width="2" x1="100.0" x2="78.79" y1="130.0" y2="121.21" /><line stroke="black" stroke-width="2" x1="78.79" x2="70.0" y1="121.21" y2="100.0" /><line stroke="black" stroke-width="2" x1="70.0" x2="78.79" y1="100.0" y2="78.79" /><line stroke="black" stroke-width="2" x1="78.79" x2="100.0" y1="78.79" y2="70.0" /><line stroke="black" stroke-width="2" x1="100.0" x2="121.21" y1="70.0" y2="78.79" /><line stroke="black" stroke-width="2" x1="121.21" x2="130.0" y1="78.79" y2="100.0" /><line stroke="black" stroke-width="2" x1="100.0" x2="183.15" y1="100.0" y2="134.44" /><line stroke="black" stroke-width="2" x1="100.0" x2="134.44" y1="100.0" y2="183.15" /><line stroke="black" stroke-width="2" x1="100.0" x2="65.56" y1="100.0" y2="183.15" /><line stroke="black" stroke-width="2" x1="100.0" x2="16.85" y1="100.0" y2="134.44" /><line stroke="black" stroke-width="2" x1="100.0" x2="16.85" y1="100.0" y2="65.56" /><line stroke="black" stroke-width="2" x1="100.0" x2="65.56" y1="100.0" y2="16.85" /><line stroke="black" stroke-width="2" x1="100.0" x2="134.44" y1="100.0" y2="16.85" /><line stroke="black" stroke-width="2" x1="100.0" x2="183.15" y1="100.0" y2="65.56" /><path d="M130.0,100.0 Q170.0,100.0 183.15,134.44" fill="none" stroke="black" stroke-width="2" /><path d="M183.15,134.44 Q149.5,149.5 121.21,121.21" fill="none" stroke="black" stroke-width="2" /><path d="M121.21,121.21 Q149.5,149.5 134.44,183.15" fill="none" stroke="black" stroke-width="2" /><path d="M134.44,183.15 Q100.0,170.0 100.0,130.0" fill="none" stroke="black" stroke-width="2" /><path d="M100.0,130.0 Q100.0,170.0 65.56,183.15" fill="none" stroke="black" stroke-width="2" /><path d="M65.56,183.15 Q50.5,149.5 78.79,121.21" fill="none" stroke="black" stroke-width="2" /><path d="M78.79,121.21 Q50.5,149.5 16.85,134.44" fill="none" stroke="black" stroke-width="2" /><path d="M16.85,134.44 Q30.0,100.0 70.0,100.0" fill="none" stroke="black" stroke-width="2" /><path d="M70.0,100.0 Q30.0,100.0 16.85,65.56" fill="none" stroke="black" stroke-width="2" /><path d="M16.85,65.56 Q50.5,50.5 78.79,78.79" fill="none" stroke="black" stroke-width="2" /><path d="M78.79,78.79 Q50.5,50.5 65.56,16.85" fill="none" stroke="black" stroke-width="2" /><path d="M65.56,16.85 Q100.0,30.0 100.0,70.0" fill="none" stroke="black" stroke-width="2" /><path d="M100.0,70.0 Q100.0,30.0 134.44,16.85" fill="none" stroke="black" stroke-width="2" /><path d="M134.44,16.85 Q149.5,50.5 121.21,78.79" fill="none" stroke="black" stroke-width="2" /><path d="M121.21,78.79 Q149.5,50.5 183.15,65.56" fill="none" stroke="black" stroke-width="2" /><path d="M183.15,65.56 Q170.0,100.0 130.0,100.0" fill="none" stroke="black" stroke-width="2" /></svg>