<?xml version="1.0" encoding="utf-8" ?>
<svg baseProfile="tiny" height="100%" version="1.2" viewBox="0,0,500,500" width="100%" xmlns="http://www.w3.org/2000/svg" xmlns:ev="http://www.w3.org/2001/xml-events" xmlns:xlink="http://www.w3.org/1999/xlink"><defs /><circle cx="191.0" cy="97.0" fill="black" r="3" /><circle cx="231.0" cy="97.0" fill="black" r="3" /><circle cx="202.0" cy="235.0" fill="black" r="3" /><circle cx="180.0" cy="265.0" fill="black" r="3" /><circle cx="241.0" cy="194.0" fill="black" r="3" /><circle cx="304.0" cy="260.0" fill="black" r="3" /><circle cx="285.0" cy="235.0" fill="black" r="3" /><circle cx="259.0" cy="282.0" fill="black" r="3" /><circle cx="244.0" cy="178.0" fill="black" r="3" /><circle cx="396.0" cy="167.0" fill="black" r="3" /><circle cx="111.0" cy="238.0" fill="black" r="3" /><circle cx="278.0" cy="252.0" fill="black" r="3" /><circle cx="126.0" cy="210.0" fill="black" r="3" /><circle cx="350.0" cy="150.0" fill="black" r="3" /><circle cx="223.0" cy="245.0" fill="black" r="3" /><circle cx="186.0" cy="150.0" fill="black" r="3" /><circle cx="113.0" cy="167.0" fill="black" r="3" /><circle cx="372.0" cy="251.0" fill="black" r="3" /><circle cx="232.0" cy="230.0" fill="black" r="3" /><circle cx="189.0" cy="290.0" fill="black" r="3" /><circle cx="394.0" cy="184.0" fill="black" r="3" /><circle cx="160.0" cy="234.0" fill="black" r="3" /><circle cx="310.0" cy="96.0" fill="black" r="3" /><circle cx="192.0" cy="80.0" fill="black" r="3" /><circle cx="235.0" cy="296.0" fill="black" r="3" /><circle cx="306.0" cy="280.0" fill="black" r="3" /><circle cx="307.0" cy="204.0" fill="black" r="3" /><circle cx="328.0" cy="271.0" fill="black" r="3" /><circle cx="330.0" cy="178.0" fill="black" r="3" /><circle cx="183.0" cy="229.0" fill="black" r="3" /><circle cx="163.0" cy="276.0" fill="black" r="3" /><circle cx="373.0" cy="234.0" fill="black" r="3" /><circle cx="379.0" cy="123.0" fill="black" r="3" /><circle cx="163.0" cy="189.0" fill="black" r="3" /><circle cx="289.0" cy="105.0" fill="black" r="3" /><circle cx="228.0" cy="128.0" fill="black" r="3" /><circle cx="224.0" cy="197.0" fill="black" r="3" /><circle cx="265.0" cy="231.0" fill="black" r="3" /><circle cx="351.0" cy="111.0" fill="black" r="3" /><circle cx="327.0" cy="235.0" fill="black" r="3" /><circle cx="289.0" cy="125.0" fill="black" r="3" /><circle cx="226.0" cy="169.0" fill="black" r="3" /><circle cx="230.0" cy="313.0" fill="black" r="3" /><circle cx="246.0" cy="162.0" fill="black" r="3" /><circle cx="371.0" cy="177.0" fill="black" r="3" /><circle cx="201.0" cy="129.0" fill="black" r="3" /><circle cx="129.0" cy="178.0" fill="black" r="3" /><circle cx="127.0" cy="121.0" fill="black" r="3" /><circle cx="216.0" cy="282.0" fill="black" r="3" /><circle cx="267.0" cy="94.0" fill="black" r="3" /><circle cx="329.0" cy="211.0" fill="black" r="3" /><circle cx="111.0" cy="189.0" fill="black" r="3" /><circle cx="329.0" cy="83.0" fill="black" r="3" /><circle cx="309.0" cy="77.0" fill="black" r="3" /><circle cx="350.0" cy="243.0" fill="black" r="3" /><circle cx="220.0" cy="267.0" fill="black" r="3" /><circle cx="233.0" cy="65.0" fill="black" r="3" /><circle cx="290.0" cy="190.0" fill="black" r="3" /><circle cx="171.0" cy="124.0" fill="black" r="3" /><circle cx="395.0" cy="240.0" fill="black" r="3" /><circle cx="309.0" cy="150.0" fill="black" r="3" /><circle cx="353.0" cy="130.0" fill="black" r="3" /><circle cx="269.0" cy="113.0" fill="black" r="3" /><circle cx="268.0" cy="170.0" fill="black" r="3" /><circle cx="307.0" cy="223.0" fill="black" r="3" /><circle cx="198.0" cy="273.0" fill="black" r="3" /><circle cx="394.0" cy="221.0" fill="black" r="3" /><circle cx="228.0" cy="150.0" fill="black" r="3" /><circle cx="327.0" cy="161.0" fill="black" r="3" /><circle cx="248.0" cy="122.0" fill="black" r="3" /><circle cx="211.0" cy="107.0" fill="black" r="3" /><circle cx="374.0" cy="100.0" fill="black" r="3" /><circle cx="395.0" cy="129.0" fill="black" r="3" /><circle cx="144.0" cy="206.0" fill="black" r="3" /><circle cx="213.0" cy="90.0" fill="black" r="3" /><circle cx="171.0" cy="160.0" fill="black" r="3" /><circle cx="332.0" cy="122.0" fill="black" r="3" /><circle cx="307.0" cy="130.0" fill="black" r="3" /><circle cx="239.0" cy="252.0" fill="black" r="3" /><circle cx="306.0" cy="244.0" fill="black" r="3" /><circle cx="174.0" cy="99.0" fill="black" r="3" /><circle cx="152.0" cy="137.0" fill="black" r="3" /><circle cx="205.0" cy="178.0" fill="black" r="3" /><circle cx="249.0" cy="72.0" fill="black" r="3" /><circle cx="349.0" cy="207.0" fill="black" r="3" /><circle cx="290.0" cy="87.0" fill="black" r="3" /><circle cx="155.0" cy="252.0" fill="black" r="3" /><circle cx="329.0" cy="102.0" fill="black" r="3" /><circle cx="367.0" cy="210.0" fill="black" r="3" /><circle cx="284.0" cy="271.0" fill="black" r="3" /><circle cx="133.0" cy="146.0" fill="black" r="3" /><circle cx="283.0" cy="291.0" fill="black" r="3" /><circle cx="237.0" cy="274.0" fill="black" r="3" /><circle cx="202.0" cy="254.0" fill="black" r="3" /><circle cx="180.0" cy="244.0" fill="black" r="3" /><circle cx="185.0" cy="206.0" fill="black" r="3" /><circle cx="186.0" cy="168.0" fill="black" r="3" /><circle cx="287.0" cy="160.0" fill="black" r="3" /><circle cx="109.0" cy="143.0" fill="black" r="3" /><circle cx="150.0" cy="117.0" fill="black" r="3" /><circle cx="248.0" cy="105.0" fill="black" r="3" /><circle cx="154.0" cy="99.0" fill="black" r="3" /><circle cx="345.0" cy="167.0" fill="black" r="3" /><circle cx="204.0" cy="208.0" fill="black" r="3" /><circle cx="207.0" cy="152.0" fill="black" r="3" /><line stroke="black" stroke-width="2" x1="127.0" x2="374.0" y1="121.0" y2="100.0" /><line stroke="black" stroke-width="2" x1="111.0" x2="395.0" y1="238.0" y2="240.0" /><line stroke="black" stroke-width="2" x1="327.0" x2="394.0" y1="235.0" y2="221.0" /><line stroke="black" stroke-width="2" x1="290.0" x2="330.0" y1="190.0" y2="178.0" /><line stroke="black" stroke-width="2" x1="332.0" x2="374.0" y1="122.0" y2="100.0" /><line stroke="black" stroke-width="2" x1="289.0" x2="396.0" y1="125.0" y2="167.0" /><line stroke="black" stroke-width="2" x1="111.0" x2="207.0" y1="189.0" y2="152.0" /><line stroke="black" stroke-width="2" x1="304.0" x2="327.0" y1="260.0" y2="235.0" /><line stroke="black" stroke-width="2" x1="330.0" x2="349.0" y1="178.0" y2="207.0" /><line stroke="black" stroke-width="2" x1="230.0" x2="306.0" y1="313.0" y2="280.0" /><line stroke="black" stroke-width="2" x1="345.0" x2="371.0" y1="167.0" y2="177.0" /><line stroke="black" stroke-width="2" x1="133.0" x2="205.0" y1="146.0" y2="178.0" /><line stroke="black" stroke-width="2" x1="289.0" x2="332.0" y1="125.0" y2="122.0" /><line stroke="black" stroke-width="2" x1="205.0" x2="241.0" y1="178.0" y2="194.0" /><line stroke="black" stroke-width="2" x1="372.0" x2="379.0" y1="251.0" y2="123.0" /><line stroke="black" stroke-width="2" x1="192.0" x2="249.0" y1="80.0" y2="72.0" /><line stroke="black" stroke-width="2" x1="287.0" x2="332.0" y1="160.0" y2="122.0" /><line stroke="black" stroke-width="2" x1="233.0" x2="329.0" y1="65.0" y2="102.0" /><line stroke="black" stroke-width="2" x1="309.0" x2="371.0" y1="150.0" y2="177.0" /><line stroke="black" stroke-width="2" x1="248.0" x2="307.0" y1="122.0" y2="204.0" /><line stroke="black" stroke-width="2" x1="111.0" x2="155.0" y1="238.0" y2="252.0" /><line stroke="black" stroke-width="2" x1="205.0" x2="246.0" y1="178.0" y2="162.0" /><line stroke="black" stroke-width="2" x1="248.0" x2="249.0" y1="122.0" y2="72.0" /><line stroke="black" stroke-width="2" x1="160.0" x2="202.0" y1="234.0" y2="235.0" /><line stroke="black" stroke-width="2" x1="144.0" x2="268.0" y1="206.0" y2="170.0" /><line stroke="black" stroke-width="2" x1="328.0" x2="329.0" y1="271.0" y2="211.0" /><line stroke="black" stroke-width="2" x1="174.0" x2="249.0" y1="99.0" y2="72.0" /><line stroke="black" stroke-width="2" x1="127.0" x2="171.0" y1="121.0" y2="124.0" /><line stroke="black" stroke-width="2" x1="183.0" x2="239.0" y1="229.0" y2="252.0" /><line stroke="black" stroke-width="2" x1="350.0" x2="379.0" y1="150.0" y2="123.0" /><line stroke="black" stroke-width="2" x1="152.0" x2="226.0" y1="137.0" y2="169.0" /><line stroke="black" stroke-width="2" x1="129.0" x2="163.0" y1="178.0" y2="189.0" /><line stroke="black" stroke-width="2" x1="133.0" x2="163.0" y1="146.0" y2="189.0" /><line stroke="black" stroke-width="2" x1="186.0" x2="226.0" y1="150.0" y2="169.0" /><line stroke="black" stroke-width="2" x1="186.0" x2="268.0" y1="150.0" y2="170.0" /><line stroke="black" stroke-width="2" x1="373.0" x2="395.0" y1="234.0" y2="240.0" /><line stroke="black" stroke-width="2" x1="201.0" x2="269.0" y1="129.0" y2="113.0" /><line stroke="black" stroke-width="2" x1="290.0" x2="307.0" y1="190.0" y2="204.0" /><line stroke="black" stroke-width="2" x1="201.0" x2="228.0" y1="129.0" y2="128.0" /><line stroke="black" stroke-width="2" x1="202.0" x2="239.0" y1="254.0" y2="252.0" /><line stroke="black" stroke-width="2" x1="109.0" x2="152.0" y1="143.0" y2="137.0" /><line stroke="black" stroke-width="2" x1="287.0" x2="327.0" y1="160.0" y2="161.0" /><line stroke="black" stroke-width="2" x1="237.0" x2="265.0" y1="274.0" y2="231.0" /><line stroke="black" stroke-width="2" x1="174.0" x2="213.0" y1="99.0" y2="90.0" /><line stroke="black" stroke-width="2" x1="201.0" x2="309.0" y1="129.0" y2="77.0" /><line stroke="black" stroke-width="2" x1="329.0" x2="367.0" y1="211.0" y2="210.0" /><line stroke="black" stroke-width="2" x1="160.0" x2="204.0" y1="234.0" y2="208.0" /><line stroke="black" stroke-width="2" x1="396.0" x2="395.0" y1="167.0" y2="129.0" /><line stroke="black" stroke-width="2" x1="109.0" x2="127.0" y1="143.0" y2="121.0" /><line stroke="black" stroke-width="2" x1="230.0" x2="350.0" y1="313.0" y2="243.0" /><line stroke="black" stroke-width="2" x1="202.0" x2="265.0" y1="235.0" y2="231.0" /><line stroke="black" stroke-width="2" x1="111.0" x2="228.0" y1="238.0" y2="128.0" /><line stroke="black" stroke-width="2" x1="160.0" x2="241.0" y1="234.0" y2="194.0" /><line stroke="black" stroke-width="2" x1="351.0" x2="374.0" y1="111.0" y2="100.0" /><line stroke="black" stroke-width="2" x1="163.0" x2="205.0" y1="189.0" y2="178.0" /><line stroke="black" stroke-width="2" x1="111.0" x2="230.0" y1="238.0" y2="313.0" /><line stroke="black" stroke-width="2" x1="379.0" x2="395.0" y1="123.0" y2="129.0" /><line stroke="black" stroke-width="2" x1="328.0" x2="372.0" y1="271.0" y2="251.0" /><line stroke="black" stroke-width="2" x1="171.0" x2="186.0" y1="160.0" y2="168.0" /><line stroke="black" stroke-width="2" x1="155.0" x2="204.0" y1="252.0" y2="208.0" /><line stroke="black" stroke-width="2" x1="163.0" x2="202.0" y1="276.0" y2="254.0" /><line stroke="black" stroke-width="2" x1="310.0" x2="329.0" y1="96.0" y2="83.0" /><line stroke="black" stroke-width="2" x1="144.0" x2="185.0" y1="206.0" y2="206.0" /><line stroke="black" stroke-width="2" x1="191.0" x2="248.0" y1="97.0" y2="122.0" /><line stroke="black" stroke-width="2" x1="290.0" x2="349.0" y1="190.0" y2="207.0" /><line stroke="black" stroke-width="2" x1="171.0" x2="207.0" y1="124.0" y2="152.0" /><line stroke="black" stroke-width="2" x1="111.0" x2="144.0" y1="189.0" y2="206.0" /><line stroke="black" stroke-width="2" x1="154.0" x2="201.0" y1="99.0" y2="129.0" /><line stroke="black" stroke-width="2" x1="244.0" x2="307.0" y1="178.0" y2="204.0" /><line stroke="black" stroke-width="2" x1="233.0" x2="249.0" y1="65.0" y2="72.0" /><line stroke="black" stroke-width="2" x1="330.0" x2="394.0" y1="178.0" y2="184.0" /><line stroke="black" stroke-width="2" x1="202.0" x2="285.0" y1="254.0" y2="235.0" /><line stroke="black" stroke-width="2" x1="111.0" x2="127.0" y1="238.0" y2="121.0" /><line stroke="black" stroke-width="2" x1="287.0" x2="351.0" y1="160.0" y2="111.0" /><line stroke="black" stroke-width="2" x1="241.0" x2="290.0" y1="194.0" y2="190.0" /><line stroke="black" stroke-width="2" x1="127.0" x2="186.0" y1="121.0" y2="150.0" /><line stroke="black" stroke-width="2" x1="232.0" x2="290.0" y1="230.0" y2="190.0" /><line stroke="black" stroke-width="2" x1="111.0" x2="235.0" y1="238.0" y2="296.0" /><line stroke="black" stroke-width="2" x1="232.0" x2="285.0" y1="230.0" y2="235.0" /><line stroke="black" stroke-width="2" x1="192.0" x2="248.0" y1="80.0" y2="105.0" /><line stroke="black" stroke-width="2" x1="201.0" x2="246.0" y1="129.0" y2="162.0" /><line stroke="black" stroke-width="2" x1="232.0" x2="265.0" y1="230.0" y2="231.0" /><line stroke="black" stroke-width="2" x1="160.0" x2="232.0" y1="234.0" y2="230.0" /><line stroke="black" stroke-width="2" x1="127.0" x2="150.0" y1="121.0" y2="117.0" /><line stroke="black" stroke-width="2" x1="223.0" x2="224.0" y1="245.0" y2="197.0" /><line stroke="black" stroke-width="2" x1="186.0" x2="246.0" y1="150.0" y2="162.0" /><line stroke="black" stroke-width="2" x1="345.0" x2="394.0" y1="167.0" y2="221.0" /><line stroke="black" stroke-width="2" x1="235.0" x2="259.0" y1="296.0" y2="282.0" /><line stroke="black" stroke-width="2" x1="290.0" x2="395.0" y1="87.0" y2="129.0" /><line stroke="black" stroke-width="2" x1="223.0" x2="278.0" y1="245.0" y2="252.0" /><line stroke="black" stroke-width="2" x1="163.0" x2="198.0" y1="276.0" y2="273.0" /><line stroke="black" stroke-width="2" x1="371.0" x2="394.0" y1="177.0" y2="184.0" /><line stroke="black" stroke-width="2" x1="394.0" x2="395.0" y1="184.0" y2="240.0" /><line stroke="black" stroke-width="2" x1="224.0" x2="265.0" y1="197.0" y2="231.0" /><line stroke="black" stroke-width="2" x1="127.0" x2="174.0" y1="121.0" y2="99.0" /><line stroke="black" stroke-width="2" x1="249.0" x2="309.0" y1="72.0" y2="77.0" /><line stroke="black" stroke-width="2" x1="192.0" x2="269.0" y1="80.0" y2="113.0" /><line stroke="black" stroke-width="2" x1="230.0" x2="284.0" y1="313.0" y2="271.0" /><line stroke="black" stroke-width="2" x1="185.0" x2="224.0" y1="206.0" y2="197.0" /><line stroke="black" stroke-width="2" x1="113.0" x2="109.0" y1="167.0" y2="143.0" /><line stroke="black" stroke-width="2" x1="228.0" x2="269.0" y1="128.0" y2="113.0" /><line stroke="black" stroke-width="2" x1="396.0" x2="379.0" y1="167.0" y2="123.0" /><line stroke="black" stroke-width="2" x1="228.0" x2="268.0" y1="128.0" y2="170.0" /><line stroke="black" stroke-width="2" x1="265.0" x2="284.0" y1="231.0" y2="271.0" /><line stroke="black" stroke-width="2" x1="133.0" x2="186.0" y1="146.0" y2="168.0" /><line stroke="black" stroke-width="2" x1="230.0" x2="259.0" y1="313.0" y2="282.0" /><line stroke="black" stroke-width="2" x1="213.0" x2="231.0" y1="90.0" y2="97.0" /><line stroke="black" stroke-width="2" x1="213.0" x2="267.0" y1="90.0" y2="94.0" /><line stroke="black" stroke-width="2" x1="160.0" x2="244.0" y1="234.0" y2="178.0" /><line stroke="black" stroke-width="2" x1="304.0" x2="330.0" y1="260.0" y2="178.0" /><line stroke="black" stroke-width="2" x1="129.0" x2="186.0" y1="178.0" y2="150.0" /><line stroke="black" stroke-width="2" x1="202.0" x2="241.0" y1="254.0" y2="194.0" /><line stroke="black" stroke-width="2" x1="171.0" x2="207.0" y1="160.0" y2="152.0" /><line stroke="black" stroke-width="2" x1="220.0" x2="259.0" y1="267.0" y2="282.0" /><line stroke="black" stroke-width="2" x1="290.0" x2="309.0" y1="190.0" y2="150.0" /><line stroke="black" stroke-width="2" x1="268.0" x2="329.0" y1="170.0" y2="211.0" /><line stroke="black" stroke-width="2" x1="186.0" x2="290.0" y1="150.0" y2="190.0" /><line stroke="black" stroke-width="2" x1="289.0" x2="329.0" y1="105.0" y2="102.0" /><line stroke="black" stroke-width="2" x1="152.0" x2="186.0" y1="137.0" y2="150.0" /><line stroke="black" stroke-width="2" x1="233.0" x2="289.0" y1="65.0" y2="105.0" /><line stroke="black" stroke-width="2" x1="329.0" x2="374.0" y1="83.0" y2="100.0" /><line stroke="black" stroke-width="2" x1="350.0" x2="394.0" y1="243.0" y2="221.0" /><line stroke="black" stroke-width="2" x1="289.0" x2="329.0" y1="105.0" y2="83.0" /><line stroke="black" stroke-width="2" x1="163.0" x2="207.0" y1="189.0" y2="152.0" /><line stroke="black" stroke-width="2" x1="367.0" x2="371.0" y1="210.0" y2="177.0" /><line stroke="black" stroke-width="2" x1="180.0" x2="259.0" y1="265.0" y2="282.0" /><line stroke="black" stroke-width="2" x1="283.0" x2="278.0" y1="291.0" y2="252.0" /><line stroke="black" stroke-width="2" x1="174.0" x2="171.0" y1="99.0" y2="124.0" /><line stroke="black" stroke-width="2" x1="174.0" x2="248.0" y1="99.0" y2="122.0" /><line stroke="black" stroke-width="2" x1="155.0" x2="189.0" y1="252.0" y2="290.0" /><line stroke="black" stroke-width="2" x1="239.0" x2="265.0" y1="252.0" y2="231.0" /><line stroke="black" stroke-width="2" x1="111.0" x2="111.0" y1="238.0" y2="189.0" /><line stroke="black" stroke-width="2" x1="144.0" x2="204.0" y1="206.0" y2="208.0" /><line stroke="black" stroke-width="2" x1="133.0" x2="127.0" y1="146.0" y2="121.0" /><line stroke="black" stroke-width="2" x1="163.0" x2="171.0" y1="189.0" y2="124.0" /><line stroke="black" stroke-width="2" x1="228.0" x2="289.0" y1="128.0" y2="105.0" /><line stroke="black" stroke-width="2" x1="283.0" x2="306.0" y1="291.0" y2="280.0" /><line stroke="black" stroke-width="2" x1="310.0" x2="395.0" y1="96.0" y2="129.0" /><line stroke="black" stroke-width="2" x1="290.0" x2="289.0" y1="190.0" y2="125.0" /><line stroke="black" stroke-width="2" x1="223.0" x2="265.0" y1="245.0" y2="231.0" /><line stroke="black" stroke-width="2" x1="349.0" x2="394.0" y1="207.0" y2="184.0" /><line stroke="black" stroke-width="2" x1="327.0" x2="350.0" y1="235.0" y2="243.0" /><line stroke="black" stroke-width="2" x1="289.0" x2="353.0" y1="125.0" y2="130.0" /><line stroke="black" stroke-width="2" x1="269.0" x2="329.0" y1="113.0" y2="83.0" /><line stroke="black" stroke-width="2" x1="248.0" x2="309.0" y1="105.0" y2="77.0" /><line stroke="black" stroke-width="2" x1="207.0" x2="246.0" y1="152.0" y2="162.0" /><line stroke="black" stroke-width="2" x1="248.0" x2="233.0" y1="105.0" y2="65.0" /><line stroke="black" stroke-width="2" x1="144.0" x2="163.0" y1="206.0" y2="189.0" /><line stroke="black" stroke-width="2" x1="231.0" x2="267.0" y1="97.0" y2="94.0" /><line stroke="black" stroke-width="2" x1="213.0" x2="211.0" y1="90.0" y2="107.0" /><line stroke="black" stroke-width="2" x1="231.0" x2="249.0" y1="97.0" y2="72.0" /><line stroke="black" stroke-width="2" x1="290.0" x2="329.0" y1="87.0" y2="102.0" /><line stroke="black" stroke-width="2" x1="307.0" x2="329.0" y1="130.0" y2="83.0" /><line stroke="black" stroke-width="2" x1="248.0" x2="249.0" y1="105.0" y2="72.0" /><line stroke="black" stroke-width="2" x1="189.0" x2="230.0" y1="290.0" y2="313.0" /><line stroke="black" stroke-width="2" x1="201.0" x2="191.0" y1="129.0" y2="97.0" /><line stroke="black" stroke-width="2" x1="265.0" x2="304.0" y1="231.0" y2="260.0" /><line stroke="black" stroke-width="2" x1="204.0" x2="241.0" y1="208.0" y2="194.0" /><line stroke="black" stroke-width="2" x1="241.0" x2="287.0" y1="194.0" y2="160.0" /><line stroke="black" stroke-width="2" x1="269.0" x2="310.0" y1="113.0" y2="96.0" /><line stroke="black" stroke-width="2" x1="307.0" x2="304.0" y1="223.0" y2="260.0" /><line stroke="black" stroke-width="2" x1="109.0" x2="174.0" y1="143.0" y2="99.0" /><line stroke="black" stroke-width="2" x1="228.0" x2="231.0" y1="128.0" y2="97.0" /><line stroke="black" stroke-width="2" x1="198.0" x2="259.0" y1="273.0" y2="282.0" /><line stroke="black" stroke-width="2" x1="235.0" x2="284.0" y1="296.0" y2="271.0" /><line stroke="black" stroke-width="2" x1="174.0" x2="201.0" y1="99.0" y2="129.0" /><line stroke="black" stroke-width="2" x1="216.0" x2="230.0" y1="282.0" y2="313.0" /><line stroke="black" stroke-width="2" x1="192.0" x2="233.0" y1="80.0" y2="65.0" /><line stroke="black" stroke-width="2" x1="154.0" x2="174.0" y1="99.0" y2="99.0" /><line stroke="black" stroke-width="2" x1="174.0" x2="191.0" y1="99.0" y2="97.0" /><line stroke="black" stroke-width="2" x1="191.0" x2="192.0" y1="97.0" y2="80.0" /><line stroke="black" stroke-width="2" x1="192.0" x2="213.0" y1="80.0" y2="90.0" /><line stroke="black" stroke-width="2" x1="231.0" x2="233.0" y1="97.0" y2="65.0" /><line stroke="black" stroke-width="2" x1="249.0" x2="267.0" y1="72.0" y2="94.0" /><line stroke="black" stroke-width="2" x1="267.0" x2="290.0" y1="94.0" y2="87.0" /><line stroke="black" stroke-width="2" x1="290.0" x2="309.0" y1="87.0" y2="77.0" /><line stroke="black" stroke-width="2" x1="309.0" x2="310.0" y1="77.0" y2="96.0" /><line stroke="black" stroke-width="2" x1="189.0" x2="216.0" y1="290.0" y2="282.0" /><line stroke="black" stroke-width="2" x1="230.0" x2="235.0" y1="313.0" y2="296.0" /><line stroke="black" stroke-width="2" x1="259.0" x2="283.0" y1="282.0" y2="291.0" /><line stroke="black" stroke-width="2" x1="154.0" x2="150.0" y1="99.0" y2="117.0" /><line stroke="black" stroke-width="2" x1="127.0" x2="152.0" y1="121.0" y2="137.0" /><line stroke="black" stroke-width="2" x1="109.0" x2="133.0" y1="143.0" y2="146.0" /><line stroke="black" stroke-width="2" x1="133.0" x2="113.0" y1="146.0" y2="167.0" /><line stroke="black" stroke-width="2" x1="113.0" x2="129.0" y1="167.0" y2="178.0" /><line stroke="black" stroke-width="2" x1="129.0" x2="111.0" y1="178.0" y2="189.0" /><line stroke="black" stroke-width="2" x1="144.0" x2="126.0" y1="206.0" y2="210.0" /><line stroke="black" stroke-width="2" x1="126.0" x2="111.0" y1="210.0" y2="238.0" /><line stroke="black" stroke-width="2" x1="351.0" x2="379.0" y1="111.0" y2="123.0" /><line stroke="black" stroke-width="2" x1="395.0" x2="353.0" y1="129.0" y2="130.0" /><line stroke="black" stroke-width="2" x1="353.0" x2="350.0" y1="130.0" y2="150.0" /><line stroke="black" stroke-width="2" x1="350.0" x2="396.0" y1="150.0" y2="167.0" /><line stroke="black" stroke-width="2" x1="396.0" x2="371.0" y1="167.0" y2="177.0" /><line stroke="black" stroke-width="2" x1="349.0" x2="367.0" y1="207.0" y2="210.0" /><line stroke="black" stroke-width="2" x1="367.0" x2="394.0" y1="210.0" y2="221.0" /><line stroke="black" stroke-width="2" x1="394.0" x2="373.0" y1="221.0" y2="234.0" /><line stroke="black" stroke-width="2" x1="395.0" x2="350.0" y1="240.0" y2="243.0" /><line stroke="black" stroke-width="2" x1="350.0" x2="372.0" y1="243.0" y2="251.0" /><path d="M111.0,238.0 Q0.0,359.0 395.0,240.0" fill="none" stroke="black" stroke-width="2" /><path d="M111.0,238.0 Q479.0,359.0 395.0,240.0" fill="none" stroke="black" stroke-width="2" /><path d="M395.0,240.0 Q479.0,315.0 230.0,313.0" fill="none" stroke="black" stroke-width="2" /><path d="M395.0,240.0 Q241.0,315.0 306.0,280.0" fill="none" stroke="black" stroke-width="2" /><path d="M230.0,313.0 Q307.0,281.0 241.0,194.0" fill="none" stroke="black" stroke-width="2" /><path d="M306.0,280.0 Q246.0,213.0 163.0,276.0" fill="none" stroke="black" stroke-width="2" /><path d="M241.0,194.0 Q176.0,280.0 230.0,313.0" fill="none" stroke="black" stroke-width="2" /><path d="M111.0,189.0 Q102.0,224.0 111.0,238.0" fill="none" stroke="black" stroke-width="2" /><path d="M111.0,238.0 Q120.0,233.0 111.0,238.0" fill="none" stroke="black" stroke-width="2" /><path d="M111.0,238.0 Q97.0,239.0 111.0,238.0" fill="none" stroke="black" stroke-width="2" /><path d="M111.0,238.0 Q104.0,250.0 111.0,238.0" fill="none" stroke="black" stroke-width="2" /><path d="M111.0,238.0 Q120.0,254.0 163.0,276.0" fill="none" stroke="black" stroke-width="2" /><path d="M111.0,238.0 Q164.0,276.0 155.0,252.0" fill="none" stroke="black" stroke-width="2" /><path d="M163.0,276.0 Q160.0,257.0 180.0,244.0" fill="none" stroke="black" stroke-width="2" /><path d="M155.0,252.0 Q181.0,245.0 183.0,229.0" fill="none" stroke="black" stroke-width="2" /><path d="M180.0,244.0 Q181.0,228.0 202.0,235.0" fill="none" stroke="black" stroke-width="2" /><path d="M183.0,229.0 Q203.0,235.0 204.0,208.0" fill="none" stroke="black" stroke-width="2" /><path d="M202.0,235.0 Q206.0,201.0 205.0,178.0" fill="none" stroke="black" stroke-width="2" /><path d="M204.0,208.0 Q194.0,188.0 126.0,210.0" fill="none" stroke="black" stroke-width="2" /><path d="M207.0,152.0 Q191.0,132.0 174.0,99.0" fill="none" stroke="black" stroke-width="2" /><path d="M201.0,129.0 Q172.0,88.0 127.0,121.0" fill="none" stroke="black" stroke-width="2" /><path d="M174.0,99.0 Q134.0,106.0 127.0,121.0" fill="none" stroke="black" stroke-width="2" /><path d="M127.0,121.0 Q132.0,125.0 127.0,121.0" fill="none" stroke="black" stroke-width="2" /><path d="M127.0,121.0 Q110.0,117.0 127.0,121.0" fill="none" stroke="black" stroke-width="2" /><path d="M127.0,121.0 Q130.0,127.0 109.0,143.0" fill="none" stroke="black" stroke-width="2" /><path d="M127.0,121.0 Q110.0,136.0 113.0,167.0" fill="none" stroke="black" stroke-width="2" /><path d="M109.0,143.0 Q108.0,168.0 171.0,160.0" fill="none" stroke="black" stroke-width="2" /><path d="M113.0,167.0 Q170.0,162.0 163.0,189.0" fill="none" stroke="black" stroke-width="2" /><path d="M171.0,160.0 Q167.0,180.0 207.0,152.0" fill="none" stroke="black" stroke-width="2" /><path d="M289.0,125.0 Q294.0,167.0 396.0,167.0" fill="none" stroke="black" stroke-width="2" /><path d="M287.0,160.0 Q396.0,167.0 395.0,129.0" fill="none" stroke="black" stroke-width="2" /><path d="M396.0,167.0 Q395.0,129.0 379.0,123.0" fill="none" stroke="black" stroke-width="2" /><path d="M395.0,129.0 Q374.0,120.0 395.0,129.0" fill="none" stroke="black" stroke-width="2" /><path d="M379.0,123.0 Q398.0,110.0 379.0,123.0" fill="none" stroke="black" stroke-width="2" /><path d="M395.0,129.0 Q375.0,118.0 374.0,100.0" fill="none" stroke="black" stroke-width="2" /><path d="M379.0,123.0 Q362.0,94.0 329.0,83.0" fill="none" stroke="black" stroke-width="2" /><path d="M374.0,100.0 Q329.0,83.0 307.0,130.0" fill="none" stroke="black" stroke-width="2" /><path d="M309.0,77.0 Q270.0,61.0 249.0,72.0" fill="none" stroke="black" stroke-width="2" /><path d="M249.0,72.0 Q254.0,69.0 249.0,72.0" fill="none" stroke="black" stroke-width="2" /><path d="M249.0,72.0 Q248.0,54.0 249.0,72.0" fill="none" stroke="black" stroke-width="2" /><path d="M249.0,72.0 Q250.0,70.0 192.0,80.0" fill="none" stroke="black" stroke-width="2" /><path d="M249.0,72.0 Q191.0,81.0 228.0,128.0" fill="none" stroke="black" stroke-width="2" /><path d="M192.0,80.0 Q230.0,115.0 201.0,129.0" fill="none" stroke="black" stroke-width="2" /><path d="M228.0,128.0 Q209.0,124.0 246.0,162.0" fill="none" stroke="black" stroke-width="2" /><path d="M109.0,143.0 Q15.0,44.0 374.0,100.0" fill="none" stroke="black" stroke-width="2" /><path d="M127.0,121.0 Q479.0,44.0 374.0,100.0" fill="none" stroke="black" stroke-width="2" /><path d="M374.0,100.0 Q479.0,0.0 127.0,121.0" fill="none" stroke="black" stroke-width="2" /></svg>