<?xml version="1.0" encoding="utf-8" ?>
<svg baseProfile="tiny" height="100%" version="1.2" viewBox="0,0,500,500" width="100%" xmlns="http://www.w3.org/2000/svg" xmlns:ev="http://www.w3.org/2001/xml-events" xmlns:xlink="http://www.w3.org/1999/xlink"><defs /><circle cx="125.0" cy="125.0" fill="black" r="3" /><circle cx="125.0" cy="95.0" fill="black" r="3" /><circle cx="155.0" cy="125.0" fill="black" r="3" /><circle cx="125.0" cy="155.0" fill="black" r="3" /><circle cx="95.0" cy="125.0" fill="black" r="3" /><circle cx="105.0" cy="105.0" fill="black" r="3" /><circle cx="145.0" cy="105.0" fill="black" r="3" /><circle cx="145.0" cy="145.0" fill="black" r="3" /><circle cx="105.0" cy="145.0" fill="black" r="3" /><circle cx="125.0" cy="40.0" fill="black" r="3" /><circle cx="210.0" cy="125.0" fill="black" r="3" /><circle cx="125.0" cy="210.0" fill="black" r="3" /><circle cx="40.0" cy="125.0" fill="black" r="3" /><circle cx="185.0" cy="75.0" fill="black" r="3" /><circle cx="185.0" cy="175.0" fill="black" r="3" /><circle cx="65.0" cy="175.0" fill="black" r="3" /><circle cx="65.0" cy="75.0" fill="black" r="3" /><line stroke="black" stroke-width="2" x1="125.0" x2="125.0" y1="125.0" y2="95.0" /><line stroke="black" stroke-width="2" x1="125.0" x2="155.0" y1="125.0" y2="125.0" /><line stroke="black" stroke-width="2" x1="125.0" x2="125.0" y1="125.0" y2="155.0" /><line stroke="black" stroke-width="2" x1="125.0" x2="95.0" y1="125.0" y2="125.0" /><line stroke="black" stroke-width="2" x1="125.0" x2="105.0" y1="125.0" y2="105.0" /><line stroke="black" stroke-width="2" x1="125.0" x2="145.0" y1="125.0" y2="105.0" /><line stroke="black" stroke-width="2" x1="125.0" x2="145.0" y1="125.0" y2="145.0" /><line stroke="black" stroke-width="2" x1="125.0" x2="105.0" y1="125.0" y2="145.0" /><line stroke="black" stroke-width="2" x1="125.0" x2="155.0" y1="95.0" y2="125.0" /><line stroke="black" stroke-width="2" x1="155.0" x2="125.0" y1="125.0" y2="155.0" /><line stroke="black" stroke-width="2" x1="125.0" x2="95.0" y1="155.0" y2="125.0" /><line stroke="black" stroke-width="2" x1="95.0" x2="125.0" y1="125.0" y2="95.0" /><line stroke="black" stroke-width="2" x1="105.0" x2="145.0" y1="105.0" y2="105.0" /><line stroke="black" stroke-width="2" x1="145.0" x2="145.0" y1="105.0" y2="145.0" /><line stroke="black" stroke-width="2" x1="145.0" x2="105.0" y1="145.0" y2="145.0" /><line stroke="black" stroke-width="2" x1="105.0" x2="105.0" y1="145.0" y2="105.0" /><line stroke="black" stroke-width="2" x1="125.0" x2="145.0" y1="95.0" y2="105.0" /><line stroke="black" stroke-width="2" x1="145.0" x2="155.0" y1="105.0" y2="125.0" /><line stroke="black" stroke-width="2" x1="155.0" x2="145.0" y1="125.0" y2="145.0" /><line stroke="black" stroke-width="2" x1="145.0" x2="125.0" y1="145.0" y2="155.0" /><line stroke="black" stroke-width="2" x1="125.0" x2="105.0" y1="155.0" y2="145.0" /><line stroke="black" stroke-width="2" x1="105.0" x2="95.0" y1="145.0" y2="125.0" /><line stroke="black" stroke-width="2" x1="95.0" x2="105.0" y1="125.0" y2="105.0" /><line stroke="black" stroke-width="2" x1="105.0" x2="125.0" y1="105.0" y2="95.0" /><path d="M105.0,105.0 Q105.0,70.0 125.0,40.0" fill="none" stroke="black" stroke-width="2" /><path d="M145.0,105.0 Q145.0,70.0 125.0,40.0" fill="none" stroke="black" stroke-width="2" /><path d="M145.0,105.0 Q175.0,105.0 210.0,125.0" fill="none" stroke="black" stroke-width="2" /><path d="M145.0,145.0 Q175.0,145.0 210.0,125.0" fill="none" stroke="black" stroke-width="2" /><path d="M145.0,145.0 Q145.0,180.0 125.0,210.0" fill="none" stroke="black" stroke-width="2" /><path d="M105.0,145.0 Q105.0,180.0 125.0,210.0" fill="none" stroke="black" stroke-width="2" /><path d="M105.0,145.0 Q75.0,145.0 40.0,125.0" fill="none" stroke="black" stroke-width="2" /><path d="M105.0,105.0 Q75.0,105.0 40.0,125.0" fill="none" stroke="black" stroke-width="2" /><path d="M125.0,95.0 Q155.0,70.0 185.0,75.0" fill="none" stroke="black" stroke-width="2" /><path d="M155.0,125.0 Q170.0,95.0 185.0,75.0" fill="none" stroke="black" stroke-width="2" /><path d="M155.0,125.0 Q170.0,155.0 185.0,175.0" fill="none" stroke="black" stroke-width="2" /><path d="M125.0,155.0 Q155.0,180.0 185.0,175.0" fill="none" stroke="black" stroke-width="2" /><path d="M125.0,155.0 Q95.0,180.0 65.0,175.0" fill="none" stroke="black" stroke-width="2" /><path d="M95.0,125.0 Q80.0,155.0 65.0,175.0" fill="none" stroke="black" stroke-width="2" /><path d="M95.0,125.0 Q80.0,95.0 65.0,75.0" fill="none" stroke="black" stroke-width="2" /><path d="M125.0,95.0 Q95.0,70.0 65.0,75.0" fill="none" stroke="black" stroke-width="2" /></svg>