<?xml version="1.0" encoding="utf-8" ?>
<svg baseProfile="tiny" height="100%" version="1.2" viewBox="0,0,500,500" width="100%" xmlns="http://www.w3.org/2000/svg" xmlns:ev="http://www.w3.org/2001/xml-events" xmlns:xlink="http://www.w3.org/1999/xlink"><defs /><circle cx="125.0" cy="120.0" fill="black" r="3" /><circle cx="155.0" cy="120.0" fill="black" r="3" /><circle cx="146.2" cy="141.2" fill="black" r="3" /><circle cx="125.0" cy="150.0" fill="black" r="3" /><circle cx="103.8" cy="141.2" fill="black" r="3" /><circle cx="95.0" cy="120.0" fill="black" r="3" /><circle cx="103.8" cy="98.8" fill="black" r="3" /><circle cx="125.0" cy="90.0" fill="black" r="3" /><circle cx="146.2" cy="98.8" fill="black" r="3" /><circle cx="180.0" cy="120.0" fill="black" r="3" /><circle cx="160.7" cy="159.0" fill="black" r="3" /><circle cx="125.0" cy="175.0" fill="black" r="3" /><circle cx="89.3" cy="159.0" fill="black" r="3" /><circle cx="70.0" cy="120.0" fill="black" r="3" /><circle cx="89.3" cy="81.0" fill="black" r="3" /><circle cx="125.0" cy="65.0" fill="black" r="3" /><circle cx="160.7" cy="81.0" fill="black" r="3" /><circle cx="205.0" cy="120.0" fill="black" r="3" /><circle cx="168.6" cy="176.6" fill="black" r="3" /><circle cx="125.0" cy="200.0" fill="black" r="3" /><circle cx="81.4" cy="176.6" fill="black" r="3" /><circle cx="45.0" cy="120.0" fill="black" r="3" /><circle cx="81.4" cy="63.4" fill="black" r="3" /><circle cx="125.0" cy="40.0" fill="black" r="3" /><circle cx="168.6" cy="63.4" fill="black" r="3" /><line stroke="black" stroke-width="2" x1="125.0" x2="155.0" y1="120.0" y2="120.0" /><line stroke="black" stroke-width="2" x1="125.0" x2="146.2" y1="120.0" y2="141.2" /><line stroke="black" stroke-width="2" x1="125.0" x2="125.0" y1="120.0" y2="150.0" /><line stroke="black" stroke-width="2" x1="125.0" x2="103.8" y1="120.0" y2="141.2" /><line stroke="black" stroke-width="2" x1="125.0" x2="95.0" y1="120.0" y2="120.0" /><line stroke="black" stroke-width="2" x1="125.0" x2="103.8" y1="120.0" y2="98.8" /><line stroke="black" stroke-width="2" x1="125.0" x2="125.0" y1="120.0" y2="90.0" /><line stroke="black" stroke-width="2" x1="125.0" x2="146.2" y1="120.0" y2="98.8" /><path d="M155.0,120.0 Q125.0,120.0 146.2,141.2" fill="none" stroke="black" stroke-width="2" /><path d="M146.2,141.2 Q125.0,120.0 125.0,150.0" fill="none" stroke="black" stroke-width="2" /><path d="M125.0,150.0 Q125.0,120.0 103.8,141.2" fill="none" stroke="black" stroke-width="2" /><path d="M103.8,141.2 Q125.0,120.0 95.0,120.0" fill="none" stroke="black" stroke-width="2" /><path d="M95.0,120.0 Q125.0,120.0 103.8,98.8" fill="none" stroke="black" stroke-width="2" /><path d="M103.8,98.8 Q125.0,120.0 125.0,90.0" fill="none" stroke="black" stroke-width="2" /><path d="M125.0,90.0 Q125.0,120.0 146.2,98.8" fill="none" stroke="black" stroke-width="2" /><path d="M146.2,98.8 Q125.0,120.0 155.0,120.0" fill="none" stroke="black" stroke-width="2" /><path d="M180.0,120.0 Q189.7,133.4 160.7,159.0" fill="none" stroke="black" stroke-width="2" /><path d="M160.7,159.0 Q133.4,189.7 125.0,175.0" fill="none" stroke="black" stroke-width="2" /><path d="M125.0,175.0 Q96.6,189.7 89.3,159.0" fill="none" stroke="black" stroke-width="2" /><path d="M89.3,159.0 Q60.3,133.4 70.0,120.0" fill="none" stroke="black" stroke-width="2" /><path d="M70.0,120.0 Q60.3,106.6 89.3,81.0" fill="none" stroke="black" stroke-width="2" /><path d="M89.3,81.0 Q96.6,60.3 125.0,65.0" fill="none" stroke="black" stroke-width="2" /><path d="M125.0,65.0 Q133.4,60.3 160.7,81.0" fill="none" stroke="black" stroke-width="2" /><path d="M160.7,81.0 Q189.7,106.6 180.0,120.0" fill="none" stroke="black" stroke-width="2" /><line stroke="black" stroke-width="2" x1="155.0" x2="180.0" y1="120.0" y2="120.0" /><line stroke="black" stroke-width="2" x1="146.2" x2="160.7" y1="141.2" y2="159.0" /><line stroke="black" stroke-width="2" x1="125.0" x2="125.0" y1="150.0" y2="175.0" /><line stroke="black" stroke-width="2" x1="103.8" x2="89.3" y1="141.2" y2="159.0" /><line stroke="black" stroke-width="2" x1="95.0" x2="70.0" y1="120.0" y2="120.0" /><line stroke="black" stroke-width="2" x1="103.8" x2="89.3" y1="98.8" y2="81.0" /><line stroke="black" stroke-width="2" x1="125.0" x2="125.0" y1="90.0" y2="65.0" /><line stroke="black" stroke-width="2" x1="146.2" x2="160.7" y1="98.8" y2="81.0" /><line stroke="black" stroke-width="2" x1="180.0" x2="205.0" y1="120.0" y2="120.0" /><line stroke="black" stroke-width="2" x1="160.7" x2="185.0" y1="159.0" y2="180.0" /><line stroke="black" stroke-width="2" x1="125.0" x2="125.0" y1="175.0" y2="200.0" /><line stroke="black" stroke-width="2" x1="89.3" x2="81.4" y1="159.0" y2="176.6" /><line stroke="black" stroke-width="2" x1="70.0" x2="45.0" y1="120.0" y2="120.0" /><line stroke="black" stroke-width="2" x1="89.3" x2="81.4" y1="81.0" y2="63.4" /><line stroke="black" stroke-width="2" x1="125.0" x2="125.0" y1="65.0" y2="40.0" /><line stroke="black" stroke-width="2" x1="160.7" x2="168.6" y1="81.0" y2="63.4" /><path d="M205.0,120.0 Q216.9,137.9 185.0,180.0" fill="none" stroke="black" stroke-width="2" /><path d="M185.0,180.0 Q137.9,216.9 125.0,200.0" fill="none" stroke="black" stroke-width="2" /><path d="M125.0,200.0 Q92.1,216.9 81.4,176.6" fill="none" stroke="black" stroke-width="2" /><path d="M81.4,176.6 Q33.1,137.9 45.0,120.0" fill="none" stroke="black" stroke-width="2" /><path d="M45.0,120.0 Q33.1,92.1 81.4,63.4" fill="none" stroke="black" stroke-width="2" /><path d="M81.4,63.4 Q92.1,33.1 125.0,40.0" fill="none" stroke="black" stroke-width="2" /><path d="M125.0,40.0 Q137.9,33.1 168.6,63.4" fill="none" stroke="black" stroke-width="2" /><path d="M168.6,63.4 Q216.9,92.1 205.0,120.0" fill="none" stroke="black" stroke-width="2" /><line stroke="black" stroke-width="2" x1="155.0" x2="205.0" y1="120.0" y2="120.0" /><line stroke="black" stroke-width="2" x1="146.2" x2="185.0" y1="141.2" y2="180.0" /><line stroke="black" stroke-width="2" x1="125.0" x2="125.0" y1="150.0" y2="200.0" /><line stroke="black" stroke-width="2" x1="103.8" x2="81.4" y1="141.2" y2="176.6" /><line stroke="black" stroke-width="2" x1="95.0" x2="45.0" y1="120.0" y2="120.0" /><line stroke="black" stroke-width="2" x1="103.8" x2="81.4" y1="98.8" y2="63.4" /><line stroke="black" stroke-width="2" x1="125.0" x2="125.0" y1="90.0" y2="40.0" /><line stroke="black" stroke-width="2" x1="146.2" x2="168.6" y1="98.8" y2="63.4" /><line stroke="black" stroke-width="2" x1="155.0" x2="160.7" y1="120.0" y2="159.0" /><line stroke="black" stroke-width="2" x1="155.0" x2="160.7" y1="120.0" y2="81.0" /><line stroke="black" stroke-width="2" x1="146.2" x2="125.0" y1="141.2" y2="175.0" /><line stroke="black" stroke-width="2" x1="146.2" x2="180.0" y1="141.2" y2="120.0" /><line stroke="black" stroke-width="2" x1="125.0" x2="89.3" y1="150.0" y2="159.0" /><line stroke="black" stroke-width="2" x1="125.0" x2="160.7" y1="150.0" y2="159.0" /><line stroke="black" stroke-width="2" x1="103.8" x2="70.0" y1="141.2" y2="120.0" /><line stroke="black" stroke-width="2" x1="103.8" x2="125.0" y1="141.2" y2="175.0" /><line stroke="black" stroke-width="2" x1="95.0" x2="89.3" y1="120.0" y2="81.0" /><line stroke="black" stroke-width="2" x1="95.0" x2="89.3" y1="120.0" y2="159.0" /><line stroke="black" stroke-width="2" x1="103.8" x2="125.0" y1="98.8" y2="65.0" /><line stroke="black" stroke-width="2" x1="103.8" x2="70.0" y1="98.8" y2="120.0" /><line stroke="black" stroke-width="2" x1="125.0" x2="160.7" y1="90.0" y2="81.0" /><line stroke="black" stroke-width="2" x1="125.0" x2="89.3" y1="90.0" y2="81.0" /><line stroke="black" stroke-width="2" x1="146.2" x2="180.0" y1="98.8" y2="120.0" /><line stroke="black" stroke-width="2" x1="146.2" x2="125.0" y1="98.8" y2="65.0" /></svg>