<?xml version="1.0" encoding="utf-8" ?>
<svg baseProfile="tiny" height="100%" version="1.2" viewBox="0,0,500,500" width="100%" xmlns="http://www.w3.org/2000/svg" xmlns:ev="http://www.w3.org/2001/xml-events" xmlns:xlink="http://www.w3.org/1999/xlink"><defs /><circle cx="157.0" cy="58.0" fill="black" r="3" /><circle cx="62.0" cy="148.0" fill="black" r="3" /><circle cx="106.0" cy="74.0" fill="black" r="3" /><circle cx="138.0" cy="165.0" fill="black" r="3" /><circle cx="176.0" cy="147.0" fill="black" r="3" /><circle cx="212.0" cy="12.0" fill="black" r="3" /><circle cx="29.0" cy="158.0" fill="black" r="3" /><circle cx="93.0" cy="187.0" fill="black" r="3" /><circle cx="47.0" cy="111.0" fill="black" r="3" /><circle cx="144.0" cy="126.0" fill="black" r="3" /><circle cx="62.0" cy="190.0" fill="black" r="3" /><circle cx="181.0" cy="115.0" fill="black" r="3" /><circle cx="169.0" cy="96.0" fill="black" r="3" /><circle cx="123.0" cy="208.0" fill="black" r="3" /><circle cx="126.0" cy="152.0" fill="black" r="3" /><circle cx="129.0" cy="48.0" fill="black" r="3" /><circle cx="100.0" cy="159.0" fill="black" r="3" /><circle cx="184.0" cy="166.0" fill="black" r="3" /><circle cx="47.0" cy="68.0" fill="black" r="3" /><circle cx="81.0" cy="126.0" fill="black" r="3" /><circle cx="80.0" cy="38.0" fill="black" r="3" /><circle cx="82.0" cy="100.0" fill="black" r="3" /><circle cx="202.0" cy="124.0" fill="black" r="3" /><circle cx="46.0" cy="87.0" fill="black" r="3" /><circle cx="6.0" cy="11.0" fill="black" r="3" /><circle cx="217.0" cy="30.0" fill="black" r="3" /><circle cx="188.0" cy="3.0" fill="black" r="3" /><circle cx="1.0" cy="197.0" fill="black" r="3" /><circle cx="30.0" cy="110.0" fill="black" r="3" /><circle cx="214.0" cy="218.0" fill="black" r="3" /><circle cx="1.0" cy="154.0" fill="black" r="3" /><circle cx="186.0" cy="90.0" fill="black" r="3" /><circle cx="14.0" cy="138.0" fill="black" r="3" /><circle cx="211.0" cy="99.0" fill="black" r="3" /><circle cx="46.0" cy="219.0" fill="black" r="3" /><circle cx="8.0" cy="109.0" fill="black" r="3" /><circle cx="31.0" cy="128.0" fill="black" r="3" /><circle cx="220.0" cy="145.0" fill="black" r="3" /><circle cx="1.0" cy="63.0" fill="black" r="3" /><circle cx="212.0" cy="67.0" fill="black" r="3" /><circle cx="6.0" cy="169.0" fill="black" r="3" /><circle cx="111.0" cy="200.0" fill="black" r="3" /><circle cx="38.0" cy="46.0" fill="black" r="3" /><circle cx="158.0" cy="83.0" fill="black" r="3" /><circle cx="144.0" cy="1.0" fill="black" r="3" /><circle cx="202.0" cy="81.0" fill="black" r="3" /><circle cx="190.0" cy="58.0" fill="black" r="3" /><circle cx="99.0" cy="134.0" fill="black" r="3" /><circle cx="159.0" cy="171.0" fill="black" r="3" /><circle cx="126.0" cy="124.0" fill="black" r="3" /><circle cx="212.0" cy="198.0" fill="black" r="3" /><circle cx="164.0" cy="34.0" fill="black" r="3" /><circle cx="75.0" cy="3.0" fill="black" r="3" /><circle cx="53.0" cy="23.0" fill="black" r="3" /><circle cx="58.0" cy="2.0" fill="black" r="3" /><circle cx="131.0" cy="81.0" fill="black" r="3" /><circle cx="21.0" cy="73.0" fill="black" r="3" /><circle cx="63.0" cy="116.0" fill="black" r="3" /><circle cx="199.0" cy="37.0" fill="black" r="3" /><circle cx="156.0" cy="134.0" fill="black" r="3" /><circle cx="29.0" cy="11.0" fill="black" r="3" /><circle cx="82.0" cy="170.0" fill="black" r="3" /><circle cx="178.0" cy="212.0" fill="black" r="3" /><line stroke="black" stroke-width="2" x1="29.0" x2="131.0" y1="158.0" y2="81.0" /><line stroke="black" stroke-width="2" x1="62.0" x2="211.0" y1="190.0" y2="99.0" /><line stroke="black" stroke-width="2" x1="111.0" x2="202.0" y1="200.0" y2="81.0" /><line stroke="black" stroke-width="2" x1="126.0" x2="176.0" y1="152.0" y2="147.0" /><line stroke="black" stroke-width="2" x1="144.0" x2="211.0" y1="126.0" y2="99.0" /><line stroke="black" stroke-width="2" x1="123.0" x2="144.0" y1="208.0" y2="126.0" /><line stroke="black" stroke-width="2" x1="138.0" x2="184.0" y1="165.0" y2="166.0" /><line stroke="black" stroke-width="2" x1="29.0" x2="38.0" y1="158.0" y2="46.0" /><line stroke="black" stroke-width="2" x1="62.0" x2="81.0" y1="190.0" y2="126.0" /><line stroke="black" stroke-width="2" x1="6.0" x2="63.0" y1="169.0" y2="116.0" /><line stroke="black" stroke-width="2" x1="80.0" x2="129.0" y1="38.0" y2="48.0" /><line stroke="black" stroke-width="2" x1="63.0" x2="111.0" y1="116.0" y2="200.0" /><line stroke="black" stroke-width="2" x1="53.0" x2="202.0" y1="23.0" y2="81.0" /><line stroke="black" stroke-width="2" x1="131.0" x2="159.0" y1="81.0" y2="171.0" /><line stroke="black" stroke-width="2" x1="131.0" x2="184.0" y1="81.0" y2="166.0" /><line stroke="black" stroke-width="2" x1="106.0" x2="131.0" y1="74.0" y2="81.0" /><line stroke="black" stroke-width="2" x1="62.0" x2="181.0" y1="190.0" y2="115.0" /><line stroke="black" stroke-width="2" x1="1.0" x2="75.0" y1="63.0" y2="3.0" /><line stroke="black" stroke-width="2" x1="82.0" x2="126.0" y1="100.0" y2="124.0" /><line stroke="black" stroke-width="2" x1="100.0" x2="123.0" y1="159.0" y2="208.0" /><line stroke="black" stroke-width="2" x1="21.0" x2="129.0" y1="73.0" y2="48.0" /><line stroke="black" stroke-width="2" x1="38.0" x2="46.0" y1="46.0" y2="87.0" /><line stroke="black" stroke-width="2" x1="144.0" x2="176.0" y1="126.0" y2="147.0" /><line stroke="black" stroke-width="2" x1="129.0" x2="202.0" y1="48.0" y2="124.0" /><line stroke="black" stroke-width="2" x1="82.0" x2="202.0" y1="170.0" y2="124.0" /><line stroke="black" stroke-width="2" x1="158.0" x2="212.0" y1="83.0" y2="12.0" /><line stroke="black" stroke-width="2" x1="8.0" x2="47.0" y1="109.0" y2="68.0" /><line stroke="black" stroke-width="2" x1="159.0" x2="158.0" y1="171.0" y2="83.0" /><line stroke="black" stroke-width="2" x1="126.0" x2="211.0" y1="152.0" y2="99.0" /><line stroke="black" stroke-width="2" x1="47.0" x2="75.0" y1="68.0" y2="3.0" /><line stroke="black" stroke-width="2" x1="158.0" x2="190.0" y1="83.0" y2="58.0" /><line stroke="black" stroke-width="2" x1="6.0" x2="81.0" y1="169.0" y2="126.0" /><line stroke="black" stroke-width="2" x1="129.0" x2="199.0" y1="48.0" y2="37.0" /><line stroke="black" stroke-width="2" x1="138.0" x2="211.0" y1="165.0" y2="99.0" /><line stroke="black" stroke-width="2" x1="184.0" x2="202.0" y1="166.0" y2="81.0" /><line stroke="black" stroke-width="2" x1="30.0" x2="80.0" y1="110.0" y2="38.0" /><line stroke="black" stroke-width="2" x1="14.0" x2="159.0" y1="138.0" y2="171.0" /><line stroke="black" stroke-width="2" x1="62.0" x2="100.0" y1="148.0" y2="159.0" /><line stroke="black" stroke-width="2" x1="29.0" x2="81.0" y1="158.0" y2="126.0" /><line stroke="black" stroke-width="2" x1="129.0" x2="164.0" y1="48.0" y2="34.0" /><line stroke="black" stroke-width="2" x1="62.0" x2="184.0" y1="190.0" y2="166.0" /><line stroke="black" stroke-width="2" x1="38.0" x2="126.0" y1="46.0" y2="124.0" /><line stroke="black" stroke-width="2" x1="129.0" x2="157.0" y1="48.0" y2="58.0" /><line stroke="black" stroke-width="2" x1="21.0" x2="38.0" y1="73.0" y2="46.0" /><line stroke="black" stroke-width="2" x1="126.0" x2="202.0" y1="152.0" y2="124.0" /><line stroke="black" stroke-width="2" x1="81.0" x2="123.0" y1="126.0" y2="208.0" /><line stroke="black" stroke-width="2" x1="8.0" x2="93.0" y1="109.0" y2="187.0" /><line stroke="black" stroke-width="2" x1="144.0" x2="184.0" y1="126.0" y2="166.0" /><line stroke="black" stroke-width="2" x1="169.0" x2="190.0" y1="96.0" y2="58.0" /><line stroke="black" stroke-width="2" x1="106.0" x2="144.0" y1="74.0" y2="126.0" /><line stroke="black" stroke-width="2" x1="181.0" x2="211.0" y1="115.0" y2="99.0" /><line stroke="black" stroke-width="2" x1="156.0" x2="184.0" y1="134.0" y2="166.0" /><line stroke="black" stroke-width="2" x1="31.0" x2="131.0" y1="128.0" y2="81.0" /><line stroke="black" stroke-width="2" x1="158.0" x2="211.0" y1="83.0" y2="99.0" /><line stroke="black" stroke-width="2" x1="80.0" x2="164.0" y1="38.0" y2="34.0" /><line stroke="black" stroke-width="2" x1="29.0" x2="63.0" y1="158.0" y2="116.0" /><line stroke="black" stroke-width="2" x1="158.0" x2="199.0" y1="83.0" y2="37.0" /><line stroke="black" stroke-width="2" x1="21.0" x2="47.0" y1="73.0" y2="68.0" /><line stroke="black" stroke-width="2" x1="82.0" x2="131.0" y1="100.0" y2="81.0" /><line stroke="black" stroke-width="2" x1="31.0" x2="100.0" y1="128.0" y2="159.0" /><line stroke="black" stroke-width="2" x1="62.0" x2="81.0" y1="148.0" y2="126.0" /><line stroke="black" stroke-width="2" x1="8.0" x2="47.0" y1="109.0" y2="111.0" /><line stroke="black" stroke-width="2" x1="29.0" x2="123.0" y1="158.0" y2="208.0" /><line stroke="black" stroke-width="2" x1="181.0" x2="164.0" y1="115.0" y2="34.0" /><line stroke="black" stroke-width="2" x1="164.0" x2="199.0" y1="34.0" y2="37.0" /><line stroke="black" stroke-width="2" x1="82.0" x2="176.0" y1="100.0" y2="147.0" /><line stroke="black" stroke-width="2" x1="157.0" x2="202.0" y1="58.0" y2="81.0" /><line stroke="black" stroke-width="2" x1="1.0" x2="6.0" y1="197.0" y2="169.0" /><line stroke="black" stroke-width="2" x1="126.0" x2="159.0" y1="152.0" y2="171.0" /><line stroke="black" stroke-width="2" x1="47.0" x2="93.0" y1="111.0" y2="187.0" /><line stroke="black" stroke-width="2" x1="8.0" x2="46.0" y1="109.0" y2="87.0" /><line stroke="black" stroke-width="2" x1="80.0" x2="211.0" y1="38.0" y2="99.0" /><line stroke="black" stroke-width="2" x1="111.0" x2="211.0" y1="200.0" y2="99.0" /><line stroke="black" stroke-width="2" x1="111.0" x2="181.0" y1="200.0" y2="115.0" /><line stroke="black" stroke-width="2" x1="157.0" x2="211.0" y1="58.0" y2="99.0" /><line stroke="black" stroke-width="2" x1="106.0" x2="184.0" y1="74.0" y2="166.0" /><line stroke="black" stroke-width="2" x1="38.0" x2="47.0" y1="46.0" y2="68.0" /><line stroke="black" stroke-width="2" x1="21.0" x2="80.0" y1="73.0" y2="38.0" /><line stroke="black" stroke-width="2" x1="82.0" x2="144.0" y1="100.0" y2="126.0" /><line stroke="black" stroke-width="2" x1="31.0" x2="81.0" y1="128.0" y2="126.0" /><line stroke="black" stroke-width="2" x1="106.0" x2="126.0" y1="74.0" y2="124.0" /><line stroke="black" stroke-width="2" x1="126.0" x2="181.0" y1="152.0" y2="115.0" /><line stroke="black" stroke-width="2" x1="14.0" x2="81.0" y1="138.0" y2="126.0" /><line stroke="black" stroke-width="2" x1="14.0" x2="80.0" y1="138.0" y2="38.0" /><line stroke="black" stroke-width="2" x1="100.0" x2="181.0" y1="159.0" y2="115.0" /><line stroke="black" stroke-width="2" x1="129.0" x2="188.0" y1="48.0" y2="3.0" /><line stroke="black" stroke-width="2" x1="62.0" x2="93.0" y1="190.0" y2="187.0" /><line stroke="black" stroke-width="2" x1="159.0" x2="181.0" y1="171.0" y2="115.0" /><line stroke="black" stroke-width="2" x1="47.0" x2="80.0" y1="68.0" y2="38.0" /><line stroke="black" stroke-width="2" x1="158.0" x2="184.0" y1="83.0" y2="166.0" /><line stroke="black" stroke-width="2" x1="100.0" x2="202.0" y1="159.0" y2="124.0" /><line stroke="black" stroke-width="2" x1="62.0" x2="131.0" y1="148.0" y2="81.0" /><line stroke="black" stroke-width="2" x1="169.0" x2="211.0" y1="96.0" y2="99.0" /><line stroke="black" stroke-width="2" x1="62.0" x2="82.0" y1="190.0" y2="170.0" /><line stroke="black" stroke-width="2" x1="158.0" x2="202.0" y1="83.0" y2="81.0" /><line stroke="black" stroke-width="2" x1="63.0" x2="93.0" y1="116.0" y2="187.0" /><line stroke="black" stroke-width="2" x1="111.0" x2="144.0" y1="200.0" y2="126.0" /><line stroke="black" stroke-width="2" x1="62.0" x2="100.0" y1="190.0" y2="159.0" /><line stroke="black" stroke-width="2" x1="38.0" x2="80.0" y1="46.0" y2="38.0" /><line stroke="black" stroke-width="2" x1="62.0" x2="111.0" y1="190.0" y2="200.0" /><line stroke="black" stroke-width="2" x1="123.0" x2="156.0" y1="208.0" y2="134.0" /><line stroke="black" stroke-width="2" x1="31.0" x2="38.0" y1="128.0" y2="46.0" /><line stroke="black" stroke-width="2" x1="47.0" x2="47.0" y1="111.0" y2="68.0" /><line stroke="black" stroke-width="2" x1="1.0" x2="8.0" y1="154.0" y2="109.0" /><line stroke="black" stroke-width="2" x1="29.0" x2="62.0" y1="158.0" y2="148.0" /><line stroke="black" stroke-width="2" x1="14.0" x2="62.0" y1="138.0" y2="148.0" /><line stroke="black" stroke-width="2" x1="186.0" x2="164.0" y1="90.0" y2="34.0" /><line stroke="black" stroke-width="2" x1="62.0" x2="126.0" y1="148.0" y2="152.0" /><line stroke="black" stroke-width="2" x1="138.0" x2="144.0" y1="165.0" y2="126.0" /><line stroke="black" stroke-width="2" x1="186.0" x2="202.0" y1="90.0" y2="81.0" /><line stroke="black" stroke-width="2" x1="62.0" x2="176.0" y1="190.0" y2="147.0" /><line stroke="black" stroke-width="2" x1="111.0" x2="202.0" y1="200.0" y2="124.0" /><line stroke="black" stroke-width="2" x1="62.0" x2="62.0" y1="148.0" y2="190.0" /><line stroke="black" stroke-width="2" x1="144.0" x2="159.0" y1="126.0" y2="171.0" /><line stroke="black" stroke-width="2" x1="126.0" x2="156.0" y1="152.0" y2="134.0" /><line stroke="black" stroke-width="2" x1="184.0" x2="202.0" y1="166.0" y2="124.0" /><line stroke="black" stroke-width="2" x1="6.0" x2="29.0" y1="11.0" y2="11.0" /><line stroke="black" stroke-width="2" x1="29.0" x2="53.0" y1="11.0" y2="23.0" /><line stroke="black" stroke-width="2" x1="53.0" x2="58.0" y1="23.0" y2="2.0" /><line stroke="black" stroke-width="2" x1="58.0" x2="75.0" y1="2.0" y2="3.0" /><line stroke="black" stroke-width="2" x1="75.0" x2="144.0" y1="3.0" y2="1.0" /><line stroke="black" stroke-width="2" x1="144.0" x2="188.0" y1="1.0" y2="3.0" /><line stroke="black" stroke-width="2" x1="188.0" x2="212.0" y1="3.0" y2="12.0" /><line stroke="black" stroke-width="2" x1="1.0" x2="46.0" y1="197.0" y2="219.0" /><line stroke="black" stroke-width="2" x1="46.0" x2="111.0" y1="219.0" y2="200.0" /><line stroke="black" stroke-width="2" x1="111.0" x2="123.0" y1="200.0" y2="208.0" /><line stroke="black" stroke-width="2" x1="123.0" x2="178.0" y1="208.0" y2="212.0" /><line stroke="black" stroke-width="2" x1="178.0" x2="212.0" y1="212.0" y2="198.0" /><line stroke="black" stroke-width="2" x1="212.0" x2="214.0" y1="198.0" y2="218.0" /><line stroke="black" stroke-width="2" x1="6.0" x2="1.0" y1="11.0" y2="63.0" /><line stroke="black" stroke-width="2" x1="1.0" x2="21.0" y1="63.0" y2="73.0" /><line stroke="black" stroke-width="2" x1="21.0" x2="8.0" y1="73.0" y2="109.0" /><line stroke="black" stroke-width="2" x1="8.0" x2="14.0" y1="109.0" y2="138.0" /><line stroke="black" stroke-width="2" x1="14.0" x2="1.0" y1="138.0" y2="154.0" /><line stroke="black" stroke-width="2" x1="1.0" x2="6.0" y1="154.0" y2="169.0" /><line stroke="black" stroke-width="2" x1="212.0" x2="217.0" y1="12.0" y2="30.0" /><line stroke="black" stroke-width="2" x1="217.0" x2="199.0" y1="30.0" y2="37.0" /><line stroke="black" stroke-width="2" x1="199.0" x2="212.0" y1="37.0" y2="67.0" /><line stroke="black" stroke-width="2" x1="212.0" x2="202.0" y1="67.0" y2="81.0" /><line stroke="black" stroke-width="2" x1="202.0" x2="211.0" y1="81.0" y2="99.0" /><line stroke="black" stroke-width="2" x1="211.0" x2="202.0" y1="99.0" y2="124.0" /><line stroke="black" stroke-width="2" x1="202.0" x2="220.0" y1="124.0" y2="145.0" /><line stroke="black" stroke-width="2" x1="220.0" x2="212.0" y1="145.0" y2="198.0" /><path d="M126.0,152.0 Q136.0,164.0 138.0,165.0" fill="none" stroke="black" stroke-width="2" /><path d="M138.0,165.0 Q136.0,172.0 159.0,171.0" fill="none" stroke="black" stroke-width="2" /><path d="M138.0,165.0 Q161.0,173.0 184.0,166.0" fill="none" stroke="black" stroke-width="2" /><path d="M159.0,171.0 Q181.0,164.0 156.0,134.0" fill="none" stroke="black" stroke-width="2" /><path d="M62.0,148.0 Q18.0,139.0 14.0,138.0" fill="none" stroke="black" stroke-width="2" /><path d="M14.0,138.0 Q2.0,126.0 1.0,197.0" fill="none" stroke="black" stroke-width="2" /><path d="M14.0,138.0 Q0.0,214.0 6.0,169.0" fill="none" stroke="black" stroke-width="2" /><path d="M1.0,197.0 Q19.0,176.0 1.0,154.0" fill="none" stroke="black" stroke-width="2" /><path d="M6.0,169.0 Q7.0,155.0 14.0,138.0" fill="none" stroke="black" stroke-width="2" /><path d="M106.0,74.0 Q106.0,79.0 106.0,74.0" fill="none" stroke="black" stroke-width="2" /><path d="M106.0,74.0 Q106.0,91.0 106.0,74.0" fill="none" stroke="black" stroke-width="2" /><path d="M106.0,74.0 Q97.0,89.0 106.0,74.0" fill="none" stroke="black" stroke-width="2" /><path d="M106.0,74.0 Q104.0,80.0 82.0,100.0" fill="none" stroke="black" stroke-width="2" /><path d="M106.0,74.0 Q93.0,88.0 131.0,81.0" fill="none" stroke="black" stroke-width="2" /><path d="M82.0,100.0 Q120.0,101.0 81.0,126.0" fill="none" stroke="black" stroke-width="2" /><path d="M131.0,81.0 Q84.0,130.0 100.0,159.0" fill="none" stroke="black" stroke-width="2" /><path d="M81.0,126.0 Q94.0,154.0 126.0,152.0" fill="none" stroke="black" stroke-width="2" /><path d="M100.0,159.0 Q123.0,149.0 144.0,126.0" fill="none" stroke="black" stroke-width="2" /><path d="M126.0,152.0 Q140.0,130.0 131.0,81.0" fill="none" stroke="black" stroke-width="2" /><path d="M144.0,126.0 Q138.0,99.0 126.0,124.0" fill="none" stroke="black" stroke-width="2" /><path d="M131.0,81.0 Q124.0,106.0 131.0,81.0" fill="none" stroke="black" stroke-width="2" /><path d="M46.0,87.0 Q54.0,130.0 81.0,126.0" fill="none" stroke="black" stroke-width="2" /><path d="M63.0,116.0 Q82.0,126.0 106.0,74.0" fill="none" stroke="black" stroke-width="2" /><path d="M81.0,126.0 Q110.0,100.0 82.0,100.0" fill="none" stroke="black" stroke-width="2" /><path d="M106.0,74.0 Q80.0,100.0 106.0,74.0" fill="none" stroke="black" stroke-width="2" /><path d="M82.0,100.0 Q92.0,84.0 106.0,74.0" fill="none" stroke="black" stroke-width="2" /><path d="M106.0,74.0 Q81.0,73.0 131.0,81.0" fill="none" stroke="black" stroke-width="2" /><path d="M106.0,74.0 Q134.0,85.0 144.0,126.0" fill="none" stroke="black" stroke-width="2" /><path d="M131.0,81.0 Q147.0,120.0 181.0,115.0" fill="none" stroke="black" stroke-width="2" /><path d="M144.0,126.0 Q169.0,116.0 158.0,83.0" fill="none" stroke="black" stroke-width="2" /><path d="M181.0,115.0 Q157.0,77.0 129.0,48.0" fill="none" stroke="black" stroke-width="2" /><path d="M158.0,83.0 Q124.0,54.0 80.0,38.0" fill="none" stroke="black" stroke-width="2" /><path d="M188.0,3.0 Q176.0,10.0 199.0,37.0" fill="none" stroke="black" stroke-width="2" /><path d="M188.0,3.0 Q198.0,35.0 217.0,30.0" fill="none" stroke="black" stroke-width="2" /><path d="M199.0,37.0 Q223.0,36.0 217.0,30.0" fill="none" stroke="black" stroke-width="2" /><path d="M217.0,30.0 Q216.0,43.0 217.0,30.0" fill="none" stroke="black" stroke-width="2" /><path d="M217.0,30.0 Q224.0,45.0 212.0,12.0" fill="none" stroke="black" stroke-width="2" /><path d="M1.0,63.0 Q79.0,0.0 29.0,11.0" fill="none" stroke="black" stroke-width="2" /><path d="M75.0,3.0 Q22.0,0.0 6.0,11.0" fill="none" stroke="black" stroke-width="2" /><path d="M29.0,11.0 Q15.0,8.0 6.0,11.0" fill="none" stroke="black" stroke-width="2" /></svg>