<?xml version="1.0" encoding="utf-8" ?>
<svg baseProfile="tiny" height="100%" version="1.2" viewBox="0,0,500,500" width="100%" xmlns="http://www.w3.org/2000/svg" xmlns:ev="http://www.w3.org/2001/xml-events" xmlns:xlink="http://www.w3.org/1999/xlink"><defs /><circle cx="449.0" cy="241.0" fill="black" r="3" /><circle cx="345.0" cy="338.0" fill="black" r="3" /><circle cx="240.0" cy="186.0" fill="black" r="3" /><circle cx="64.0" cy="276.0" fill="black" r="3" /><circle cx="262.0" cy="355.0" fill="black" r="3" /><circle cx="330.0" cy="302.0" fill="black" r="3" /><circle cx="296.0" cy="176.0" fill="black" r="3" /><circle cx="189.0" cy="110.0" fill="black" r="3" /><circle cx="508.0" cy="485.0" fill="black" r="3" /><circle cx="278.0" cy="269.0" fill="black" r="3" /><circle cx="454.0" cy="258.0" fill="black" r="3" /><circle cx="271.0" cy="230.0" fill="black" r="3" /><circle cx="205.0" cy="333.0" fill="black" r="3" /><circle cx="102.0" cy="250.0" fill="black" r="3" /><circle cx="353.0" cy="99.0" fill="black" r="3" /><circle cx="201.0" cy="405.0" fill="black" r="3" /><circle cx="307.0" cy="138.0" fill="black" r="3" /><circle cx="364.0" cy="169.0" fill="black" r="3" /><circle cx="240.0" cy="142.0" fill="black" r="3" /><circle cx="382.0" cy="401.0" fill="black" r="3" /><circle cx="318.0" cy="341.0" fill="black" r="3" /><circle cx="187.0" cy="395.0" fill="black" r="3" /><circle cx="383.0" cy="252.0" fill="black" r="3" /><circle cx="363.0" cy="407.0" fill="black" r="3" /><circle cx="410.0" cy="93.0" fill="black" r="3" /><circle cx="374.0" cy="106.0" fill="black" r="3" /><circle cx="505.0" cy="239.0" fill="black" r="3" /><circle cx="508.0" cy="256.0" fill="black" r="3" /><circle cx="290.0" cy="142.0" fill="black" r="3" /><circle cx="335.0" cy="154.0" fill="black" r="3" /><circle cx="264.0" cy="263.0" fill="black" r="3" /><circle cx="162.0" cy="273.0" fill="black" r="3" /><circle cx="379.0" cy="200.0" fill="black" r="3" /><circle cx="411.0" cy="431.0" fill="black" r="3" /><circle cx="202.0" cy="382.0" fill="black" r="3" /><circle cx="395.0" cy="62.0" fill="black" r="3" /><circle cx="293.0" cy="264.0" fill="black" r="3" /><circle cx="214.0" cy="150.0" fill="black" r="3" /><circle cx="164.0" cy="219.0" fill="black" r="3" /><circle cx="160.0" cy="255.0" fill="black" r="3" /><circle cx="162.0" cy="236.0" fill="black" r="3" /><circle cx="457.0" cy="486.0" fill="black" r="3" /><circle cx="177.0" cy="293.0" fill="black" r="3" /><circle cx="370.0" cy="301.0" fill="black" r="3" /><circle cx="233.0" cy="344.0" fill="black" r="3" /><circle cx="362.0" cy="57.0" fill="black" r="3" /><circle cx="381.0" cy="268.0" fill="black" r="3" /><circle cx="323.0" cy="356.0" fill="black" r="3" /><circle cx="378.0" cy="286.0" fill="black" r="3" /><circle cx="484.0" cy="369.0" fill="black" r="3" /><circle cx="280.0" cy="350.0" fill="black" r="3" /><circle cx="298.0" cy="240.0" fill="black" r="3" /><circle cx="369.0" cy="322.0" fill="black" r="3" /><circle cx="160.0" cy="65.0" fill="black" r="3" /><circle cx="384.0" cy="235.0" fill="black" r="3" /><circle cx="370.0" cy="490.0" fill="black" r="3" /><circle cx="62.0" cy="252.0" fill="black" r="3" /><circle cx="400.0" cy="77.0" fill="black" r="3" /><circle cx="273.0" cy="136.0" fill="black" r="3" /><circle cx="259.0" cy="150.0" fill="black" r="3" /><circle cx="401.0" cy="483.0" fill="black" r="3" /><circle cx="228.0" cy="159.0" fill="black" r="3" /><circle cx="529.0" cy="492.0" fill="black" r="3" /><circle cx="365.0" cy="453.0" fill="black" r="3" /><circle cx="497.0" cy="224.0" fill="black" r="3" /><circle cx="215.0" cy="169.0" fill="black" r="3" /><circle cx="379.0" cy="55.0" fill="black" r="3" /><circle cx="147.0" cy="107.0" fill="black" r="3" /><circle cx="401.0" cy="446.0" fill="black" r="3" /><circle cx="296.0" cy="348.0" fill="black" r="3" /><circle cx="425.0" cy="483.0" fill="black" r="3" /><circle cx="500.0" cy="273.0" fill="black" r="3" /><circle cx="192.0" cy="196.0" fill="black" r="3" /><circle cx="70.0" cy="366.0" fill="black" r="3" /><circle cx="480.0" cy="220.0" fill="black" r="3" /><circle cx="148.0" cy="421.0" fill="black" r="3" /><circle cx="485.0" cy="479.0" fill="black" r="3" /><circle cx="384.0" cy="455.0" fill="black" r="3" /><circle cx="396.0" cy="267.0" fill="black" r="3" /><circle cx="147.0" cy="77.0" fill="black" r="3" /><circle cx="174.0" cy="202.0" fill="black" r="3" /><circle cx="176.0" cy="60.0" fill="black" r="3" /><circle cx="345.0" cy="175.0" fill="black" r="3" /><circle cx="198.0" cy="454.0" fill="black" r="3" /><circle cx="480.0" cy="133.0" fill="black" r="3" /><circle cx="213.0" cy="444.0" fill="black" r="3" /><circle cx="308.0" cy="194.0" fill="black" r="3" /><circle cx="209.0" cy="74.0" fill="black" r="3" /><circle cx="263.0" cy="203.0" fill="black" r="3" /><circle cx="288.0" cy="488.0" fill="black" r="3" /><circle cx="150.0" cy="500.0" fill="black" r="3" /><circle cx="484.0" cy="272.0" fill="black" r="3" /><circle cx="72.0" cy="238.0" fill="black" r="3" /><circle cx="117.0" cy="100.0" fill="black" r="3" /><circle cx="374.0" cy="90.0" fill="black" r="3" /><circle cx="175.0" cy="86.0" fill="black" r="3" /><circle cx="154.0" cy="397.0" fill="black" r="3" /><circle cx="152.0" cy="167.0" fill="black" r="3" /><circle cx="181.0" cy="323.0" fill="black" r="3" /><circle cx="410.0" cy="178.0" fill="black" r="3" /><line stroke="black" stroke-width="2" x1="192.0" x2="160.0" y1="196.0" y2="255.0" /><line stroke="black" stroke-width="2" x1="363.0" x2="411.0" y1="407.0" y2="431.0" /><line stroke="black" stroke-width="2" x1="264.0" x2="263.0" y1="263.0" y2="203.0" /><line stroke="black" stroke-width="2" x1="148.0" x2="202.0" y1="421.0" y2="382.0" /><line stroke="black" stroke-width="2" x1="363.0" x2="401.0" y1="407.0" y2="446.0" /><line stroke="black" stroke-width="2" x1="353.0" x2="395.0" y1="99.0" y2="62.0" /><line stroke="black" stroke-width="2" x1="363.0" x2="384.0" y1="407.0" y2="455.0" /><line stroke="black" stroke-width="2" x1="278.0" x2="330.0" y1="269.0" y2="302.0" /><line stroke="black" stroke-width="2" x1="160.0" x2="228.0" y1="65.0" y2="159.0" /><line stroke="black" stroke-width="2" x1="353.0" x2="379.0" y1="99.0" y2="55.0" /><line stroke="black" stroke-width="2" x1="280.0" x2="369.0" y1="350.0" y2="322.0" /><line stroke="black" stroke-width="2" x1="147.0" x2="189.0" y1="77.0" y2="110.0" /><line stroke="black" stroke-width="2" x1="264.0" x2="293.0" y1="263.0" y2="264.0" /><line stroke="black" stroke-width="2" x1="181.0" x2="262.0" y1="323.0" y2="355.0" /><line stroke="black" stroke-width="2" x1="148.0" x2="233.0" y1="421.0" y2="344.0" /><line stroke="black" stroke-width="2" x1="72.0" x2="102.0" y1="238.0" y2="250.0" /><line stroke="black" stroke-width="2" x1="164.0" x2="273.0" y1="219.0" y2="136.0" /><line stroke="black" stroke-width="2" x1="263.0" x2="330.0" y1="203.0" y2="302.0" /><line stroke="black" stroke-width="2" x1="147.0" x2="176.0" y1="107.0" y2="60.0" /><line stroke="black" stroke-width="2" x1="263.0" x2="278.0" y1="203.0" y2="269.0" /><line stroke="black" stroke-width="2" x1="264.0" x2="330.0" y1="263.0" y2="302.0" /><line stroke="black" stroke-width="2" x1="370.0" x2="529.0" y1="490.0" y2="492.0" /><line stroke="black" stroke-width="2" x1="264.0" x2="308.0" y1="263.0" y2="194.0" /><line stroke="black" stroke-width="2" x1="198.0" x2="187.0" y1="454.0" y2="395.0" /><line stroke="black" stroke-width="2" x1="264.0" x2="278.0" y1="263.0" y2="269.0" /><line stroke="black" stroke-width="2" x1="384.0" x2="379.0" y1="235.0" y2="200.0" /><line stroke="black" stroke-width="2" x1="147.0" x2="189.0" y1="107.0" y2="110.0" /><line stroke="black" stroke-width="2" x1="382.0" x2="401.0" y1="401.0" y2="446.0" /><line stroke="black" stroke-width="2" x1="307.0" x2="345.0" y1="138.0" y2="175.0" /><line stroke="black" stroke-width="2" x1="454.0" x2="484.0" y1="258.0" y2="272.0" /><line stroke="black" stroke-width="2" x1="62.0" x2="102.0" y1="252.0" y2="250.0" /><line stroke="black" stroke-width="2" x1="293.0" x2="298.0" y1="264.0" y2="240.0" /><line stroke="black" stroke-width="2" x1="198.0" x2="201.0" y1="454.0" y2="405.0" /><line stroke="black" stroke-width="2" x1="152.0" x2="164.0" y1="167.0" y2="219.0" /><line stroke="black" stroke-width="2" x1="64.0" x2="102.0" y1="276.0" y2="250.0" /><line stroke="black" stroke-width="2" x1="205.0" x2="233.0" y1="333.0" y2="344.0" /><line stroke="black" stroke-width="2" x1="378.0" x2="396.0" y1="286.0" y2="267.0" /><line stroke="black" stroke-width="2" x1="449.0" x2="508.0" y1="241.0" y2="256.0" /><line stroke="black" stroke-width="2" x1="296.0" x2="370.0" y1="348.0" y2="301.0" /><line stroke="black" stroke-width="2" x1="454.0" x2="505.0" y1="258.0" y2="239.0" /><line stroke="black" stroke-width="2" x1="378.0" x2="384.0" y1="286.0" y2="235.0" /><line stroke="black" stroke-width="2" x1="374.0" x2="400.0" y1="106.0" y2="77.0" /><line stroke="black" stroke-width="2" x1="152.0" x2="215.0" y1="167.0" y2="169.0" /><line stroke="black" stroke-width="2" x1="374.0" x2="395.0" y1="90.0" y2="62.0" /><line stroke="black" stroke-width="2" x1="192.0" x2="259.0" y1="196.0" y2="150.0" /><line stroke="black" stroke-width="2" x1="263.0" x2="293.0" y1="203.0" y2="264.0" /><line stroke="black" stroke-width="2" x1="263.0" x2="308.0" y1="203.0" y2="194.0" /><line stroke="black" stroke-width="2" x1="70.0" x2="102.0" y1="366.0" y2="250.0" /><line stroke="black" stroke-width="2" x1="70.0" x2="187.0" y1="366.0" y2="395.0" /><line stroke="black" stroke-width="2" x1="202.0" x2="213.0" y1="382.0" y2="444.0" /><line stroke="black" stroke-width="2" x1="449.0" x2="500.0" y1="241.0" y2="273.0" /><line stroke="black" stroke-width="2" x1="290.0" x2="345.0" y1="142.0" y2="175.0" /><line stroke="black" stroke-width="2" x1="205.0" x2="262.0" y1="333.0" y2="355.0" /><line stroke="black" stroke-width="2" x1="308.0" x2="298.0" y1="194.0" y2="240.0" /><line stroke="black" stroke-width="2" x1="271.0" x2="263.0" y1="230.0" y2="203.0" /><line stroke="black" stroke-width="2" x1="278.0" x2="298.0" y1="269.0" y2="240.0" /><line stroke="black" stroke-width="2" x1="271.0" x2="264.0" y1="230.0" y2="263.0" /><line stroke="black" stroke-width="2" x1="160.0" x2="177.0" y1="255.0" y2="293.0" /><line stroke="black" stroke-width="2" x1="192.0" x2="214.0" y1="196.0" y2="150.0" /><line stroke="black" stroke-width="2" x1="102.0" x2="160.0" y1="250.0" y2="255.0" /><line stroke="black" stroke-width="2" x1="154.0" x2="202.0" y1="397.0" y2="382.0" /><line stroke="black" stroke-width="2" x1="378.0" x2="369.0" y1="286.0" y2="322.0" /><line stroke="black" stroke-width="2" x1="280.0" x2="298.0" y1="350.0" y2="240.0" /><line stroke="black" stroke-width="2" x1="189.0" x2="209.0" y1="110.0" y2="74.0" /><line stroke="black" stroke-width="2" x1="382.0" x2="411.0" y1="401.0" y2="431.0" /><line stroke="black" stroke-width="2" x1="296.0" x2="369.0" y1="348.0" y2="322.0" /><line stroke="black" stroke-width="2" x1="189.0" x2="176.0" y1="110.0" y2="60.0" /><line stroke="black" stroke-width="2" x1="177.0" x2="205.0" y1="293.0" y2="333.0" /><line stroke="black" stroke-width="2" x1="271.0" x2="308.0" y1="230.0" y2="194.0" /><line stroke="black" stroke-width="2" x1="174.0" x2="215.0" y1="202.0" y2="169.0" /><line stroke="black" stroke-width="2" x1="449.0" x2="505.0" y1="241.0" y2="239.0" /><line stroke="black" stroke-width="2" x1="148.0" x2="154.0" y1="421.0" y2="397.0" /><line stroke="black" stroke-width="2" x1="362.0" x2="374.0" y1="57.0" y2="106.0" /><line stroke="black" stroke-width="2" x1="264.0" x2="280.0" y1="263.0" y2="350.0" /><line stroke="black" stroke-width="2" x1="164.0" x2="192.0" y1="219.0" y2="196.0" /><line stroke="black" stroke-width="2" x1="425.0" x2="529.0" y1="483.0" y2="492.0" /><line stroke="black" stroke-width="2" x1="290.0" x2="335.0" y1="142.0" y2="154.0" /><line stroke="black" stroke-width="2" x1="228.0" x2="259.0" y1="159.0" y2="150.0" /><line stroke="black" stroke-width="2" x1="240.0" x2="259.0" y1="142.0" y2="150.0" /><line stroke="black" stroke-width="2" x1="271.0" x2="298.0" y1="230.0" y2="240.0" /><line stroke="black" stroke-width="2" x1="374.0" x2="395.0" y1="106.0" y2="62.0" /><line stroke="black" stroke-width="2" x1="148.0" x2="201.0" y1="421.0" y2="405.0" /><line stroke="black" stroke-width="2" x1="70.0" x2="64.0" y1="366.0" y2="276.0" /><line stroke="black" stroke-width="2" x1="449.0" x2="484.0" y1="241.0" y2="272.0" /><line stroke="black" stroke-width="2" x1="454.0" x2="500.0" y1="258.0" y2="273.0" /><line stroke="black" stroke-width="2" x1="205.0" x2="280.0" y1="333.0" y2="350.0" /><line stroke="black" stroke-width="2" x1="70.0" x2="154.0" y1="366.0" y2="397.0" /><line stroke="black" stroke-width="2" x1="174.0" x2="259.0" y1="202.0" y2="150.0" /><line stroke="black" stroke-width="2" x1="457.0" x2="529.0" y1="486.0" y2="492.0" /><line stroke="black" stroke-width="2" x1="181.0" x2="233.0" y1="323.0" y2="344.0" /><line stroke="black" stroke-width="2" x1="379.0" x2="383.0" y1="200.0" y2="252.0" /><line stroke="black" stroke-width="2" x1="345.0" x2="363.0" y1="338.0" y2="407.0" /><line stroke="black" stroke-width="2" x1="117.0" x2="147.0" y1="100.0" y2="107.0" /><line stroke="black" stroke-width="2" x1="363.0" x2="365.0" y1="407.0" y2="453.0" /><line stroke="black" stroke-width="2" x1="379.0" x2="374.0" y1="55.0" y2="106.0" /><line stroke="black" stroke-width="2" x1="293.0" x2="330.0" y1="264.0" y2="302.0" /><line stroke="black" stroke-width="2" x1="273.0" x2="335.0" y1="136.0" y2="154.0" /><line stroke="black" stroke-width="2" x1="364.0" x2="410.0" y1="169.0" y2="178.0" /><line stroke="black" stroke-width="2" x1="370.0" x2="508.0" y1="490.0" y2="485.0" /><line stroke="black" stroke-width="2" x1="177.0" x2="262.0" y1="293.0" y2="355.0" /><line stroke="black" stroke-width="2" x1="454.0" x2="508.0" y1="258.0" y2="256.0" /><line stroke="black" stroke-width="2" x1="162.0" x2="262.0" y1="273.0" y2="355.0" /><line stroke="black" stroke-width="2" x1="280.0" x2="318.0" y1="350.0" y2="341.0" /><line stroke="black" stroke-width="2" x1="175.0" x2="189.0" y1="86.0" y2="110.0" /><line stroke="black" stroke-width="2" x1="278.0" x2="308.0" y1="269.0" y2="194.0" /><line stroke="black" stroke-width="2" x1="345.0" x2="378.0" y1="338.0" y2="286.0" /><line stroke="black" stroke-width="2" x1="177.0" x2="215.0" y1="293.0" y2="169.0" /><line stroke="black" stroke-width="2" x1="280.0" x2="323.0" y1="350.0" y2="356.0" /><line stroke="black" stroke-width="2" x1="154.0" x2="198.0" y1="397.0" y2="454.0" /><line stroke="black" stroke-width="2" x1="353.0" x2="362.0" y1="99.0" y2="57.0" /><line stroke="black" stroke-width="2" x1="330.0" x2="298.0" y1="302.0" y2="240.0" /><line stroke="black" stroke-width="2" x1="363.0" x2="382.0" y1="407.0" y2="401.0" /><line stroke="black" stroke-width="2" x1="192.0" x2="240.0" y1="196.0" y2="142.0" /><line stroke="black" stroke-width="2" x1="378.0" x2="379.0" y1="286.0" y2="200.0" /><line stroke="black" stroke-width="2" x1="263.0" x2="298.0" y1="203.0" y2="240.0" /><line stroke="black" stroke-width="2" x1="374.0" x2="410.0" y1="106.0" y2="93.0" /><line stroke="black" stroke-width="2" x1="164.0" x2="215.0" y1="219.0" y2="169.0" /><line stroke="black" stroke-width="2" x1="228.0" x2="335.0" y1="159.0" y2="154.0" /><line stroke="black" stroke-width="2" x1="162.0" x2="164.0" y1="273.0" y2="219.0" /><line stroke="black" stroke-width="2" x1="345.0" x2="381.0" y1="338.0" y2="268.0" /><line stroke="black" stroke-width="2" x1="198.0" x2="213.0" y1="454.0" y2="444.0" /><line stroke="black" stroke-width="2" x1="181.0" x2="205.0" y1="323.0" y2="333.0" /><line stroke="black" stroke-width="2" x1="370.0" x2="425.0" y1="490.0" y2="483.0" /><line stroke="black" stroke-width="2" x1="271.0" x2="278.0" y1="230.0" y2="269.0" /><line stroke="black" stroke-width="2" x1="160.0" x2="189.0" y1="65.0" y2="110.0" /><line stroke="black" stroke-width="2" x1="365.0" x2="382.0" y1="453.0" y2="401.0" /><line stroke="black" stroke-width="2" x1="384.0" x2="381.0" y1="235.0" y2="268.0" /><line stroke="black" stroke-width="2" x1="454.0" x2="497.0" y1="258.0" y2="224.0" /><line stroke="black" stroke-width="2" x1="117.0" x2="72.0" y1="100.0" y2="238.0" /><line stroke="black" stroke-width="2" x1="480.0" x2="505.0" y1="220.0" y2="239.0" /><line stroke="black" stroke-width="2" x1="162.0" x2="174.0" y1="273.0" y2="202.0" /><line stroke="black" stroke-width="2" x1="296.0" x2="345.0" y1="348.0" y2="338.0" /><line stroke="black" stroke-width="2" x1="201.0" x2="213.0" y1="405.0" y2="444.0" /><line stroke="black" stroke-width="2" x1="147.0" x2="214.0" y1="77.0" y2="150.0" /><line stroke="black" stroke-width="2" x1="233.0" x2="318.0" y1="344.0" y2="341.0" /><line stroke="black" stroke-width="2" x1="401.0" x2="425.0" y1="483.0" y2="483.0" /><line stroke="black" stroke-width="2" x1="160.0" x2="209.0" y1="65.0" y2="74.0" /><line stroke="black" stroke-width="2" x1="162.0" x2="233.0" y1="273.0" y2="344.0" /><line stroke="black" stroke-width="2" x1="62.0" x2="64.0" y1="252.0" y2="276.0" /><line stroke="black" stroke-width="2" x1="396.0" x2="369.0" y1="267.0" y2="322.0" /><line stroke="black" stroke-width="2" x1="64.0" x2="160.0" y1="276.0" y2="255.0" /><line stroke="black" stroke-width="2" x1="117.0" x2="189.0" y1="100.0" y2="110.0" /><line stroke="black" stroke-width="2" x1="330.0" x2="308.0" y1="302.0" y2="194.0" /><line stroke="black" stroke-width="2" x1="228.0" x2="296.0" y1="159.0" y2="176.0" /><line stroke="black" stroke-width="2" x1="318.0" x2="370.0" y1="341.0" y2="301.0" /><line stroke="black" stroke-width="2" x1="484.0" x2="500.0" y1="272.0" y2="273.0" /><line stroke="black" stroke-width="2" x1="449.0" x2="497.0" y1="241.0" y2="224.0" /><line stroke="black" stroke-width="2" x1="162.0" x2="192.0" y1="236.0" y2="196.0" /><line stroke="black" stroke-width="2" x1="370.0" x2="485.0" y1="490.0" y2="479.0" /><line stroke="black" stroke-width="2" x1="148.0" x2="187.0" y1="421.0" y2="395.0" /><line stroke="black" stroke-width="2" x1="181.0" x2="162.0" y1="323.0" y2="273.0" /><line stroke="black" stroke-width="2" x1="296.0" x2="323.0" y1="348.0" y2="356.0" /><line stroke="black" stroke-width="2" x1="296.0" x2="318.0" y1="348.0" y2="341.0" /><line stroke="black" stroke-width="2" x1="353.0" x2="374.0" y1="99.0" y2="90.0" /><line stroke="black" stroke-width="2" x1="484.0" x2="497.0" y1="272.0" y2="224.0" /><line stroke="black" stroke-width="2" x1="162.0" x2="181.0" y1="236.0" y2="323.0" /><line stroke="black" stroke-width="2" x1="318.0" x2="382.0" y1="341.0" y2="401.0" /><line stroke="black" stroke-width="2" x1="288.0" x2="323.0" y1="488.0" y2="356.0" /><line stroke="black" stroke-width="2" x1="152.0" x2="162.0" y1="167.0" y2="236.0" /><line stroke="black" stroke-width="2" x1="192.0" x2="228.0" y1="196.0" y2="159.0" /><line stroke="black" stroke-width="2" x1="485.0" x2="529.0" y1="479.0" y2="492.0" /><line stroke="black" stroke-width="2" x1="62.0" x2="160.0" y1="252.0" y2="255.0" /><line stroke="black" stroke-width="2" x1="410.0" x2="400.0" y1="93.0" y2="77.0" /><line stroke="black" stroke-width="2" x1="147.0" x2="160.0" y1="107.0" y2="65.0" /><line stroke="black" stroke-width="2" x1="147.0" x2="209.0" y1="77.0" y2="74.0" /><line stroke="black" stroke-width="2" x1="345.0" x2="364.0" y1="175.0" y2="169.0" /><line stroke="black" stroke-width="2" x1="335.0" x2="345.0" y1="154.0" y2="175.0" /><line stroke="black" stroke-width="2" x1="187.0" x2="213.0" y1="395.0" y2="444.0" /><line stroke="black" stroke-width="2" x1="233.0" x2="296.0" y1="344.0" y2="348.0" /><line stroke="black" stroke-width="2" x1="240.0" x2="273.0" y1="142.0" y2="136.0" /><line stroke="black" stroke-width="2" x1="384.0" x2="382.0" y1="455.0" y2="401.0" /><line stroke="black" stroke-width="2" x1="330.0" x2="370.0" y1="302.0" y2="301.0" /><line stroke="black" stroke-width="2" x1="370.0" x2="383.0" y1="301.0" y2="252.0" /><line stroke="black" stroke-width="2" x1="335.0" x2="364.0" y1="154.0" y2="169.0" /><line stroke="black" stroke-width="2" x1="176.0" x2="209.0" y1="60.0" y2="74.0" /><line stroke="black" stroke-width="2" x1="192.0" x2="215.0" y1="196.0" y2="169.0" /><line stroke="black" stroke-width="2" x1="262.0" x2="280.0" y1="355.0" y2="350.0" /><line stroke="black" stroke-width="2" x1="318.0" x2="369.0" y1="341.0" y2="322.0" /><line stroke="black" stroke-width="2" x1="362.0" x2="374.0" y1="57.0" y2="90.0" /><line stroke="black" stroke-width="2" x1="280.0" x2="293.0" y1="350.0" y2="264.0" /><line stroke="black" stroke-width="2" x1="370.0" x2="381.0" y1="301.0" y2="268.0" /><line stroke="black" stroke-width="2" x1="370.0" x2="457.0" y1="490.0" y2="486.0" /><line stroke="black" stroke-width="2" x1="308.0" x2="293.0" y1="194.0" y2="264.0" /><line stroke="black" stroke-width="2" x1="484.0" x2="508.0" y1="272.0" y2="256.0" /><line stroke="black" stroke-width="2" x1="175.0" x2="209.0" y1="86.0" y2="74.0" /><line stroke="black" stroke-width="2" x1="384.0" x2="365.0" y1="455.0" y2="453.0" /><line stroke="black" stroke-width="2" x1="370.0" x2="401.0" y1="490.0" y2="483.0" /><line stroke="black" stroke-width="2" x1="147.0" x2="175.0" y1="77.0" y2="86.0" /><line stroke="black" stroke-width="2" x1="62.0" x2="72.0" y1="252.0" y2="238.0" /><line stroke="black" stroke-width="2" x1="278.0" x2="293.0" y1="269.0" y2="264.0" /><line stroke="black" stroke-width="2" x1="117.0" x2="147.0" y1="100.0" y2="77.0" /><line stroke="black" stroke-width="2" x1="147.0" x2="160.0" y1="77.0" y2="65.0" /><line stroke="black" stroke-width="2" x1="160.0" x2="175.0" y1="65.0" y2="86.0" /><line stroke="black" stroke-width="2" x1="175.0" x2="176.0" y1="86.0" y2="60.0" /><line stroke="black" stroke-width="2" x1="209.0" x2="353.0" y1="74.0" y2="99.0" /><line stroke="black" stroke-width="2" x1="374.0" x2="379.0" y1="90.0" y2="55.0" /><line stroke="black" stroke-width="2" x1="379.0" x2="395.0" y1="55.0" y2="62.0" /><line stroke="black" stroke-width="2" x1="395.0" x2="400.0" y1="62.0" y2="77.0" /><line stroke="black" stroke-width="2" x1="150.0" x2="198.0" y1="500.0" y2="454.0" /><line stroke="black" stroke-width="2" x1="198.0" x2="288.0" y1="454.0" y2="488.0" /><line stroke="black" stroke-width="2" x1="288.0" x2="365.0" y1="488.0" y2="453.0" /><line stroke="black" stroke-width="2" x1="365.0" x2="370.0" y1="453.0" y2="490.0" /><line stroke="black" stroke-width="2" x1="370.0" x2="384.0" y1="490.0" y2="455.0" /><line stroke="black" stroke-width="2" x1="384.0" x2="401.0" y1="455.0" y2="483.0" /><line stroke="black" stroke-width="2" x1="425.0" x2="457.0" y1="483.0" y2="486.0" /><line stroke="black" stroke-width="2" x1="457.0" x2="485.0" y1="486.0" y2="479.0" /><line stroke="black" stroke-width="2" x1="485.0" x2="508.0" y1="479.0" y2="485.0" /><line stroke="black" stroke-width="2" x1="508.0" x2="529.0" y1="485.0" y2="492.0" /><line stroke="black" stroke-width="2" x1="480.0" x2="480.0" y1="133.0" y2="220.0" /><line stroke="black" stroke-width="2" x1="480.0" x2="497.0" y1="220.0" y2="224.0" /><line stroke="black" stroke-width="2" x1="497.0" x2="505.0" y1="224.0" y2="239.0" /><line stroke="black" stroke-width="2" x1="505.0" x2="508.0" y1="239.0" y2="256.0" /><line stroke="black" stroke-width="2" x1="500.0" x2="484.0" y1="273.0" y2="369.0" /><line stroke="black" stroke-width="2" x1="484.0" x2="485.0" y1="369.0" y2="479.0" /><path d="M117.0,100.0 Q0.0,506.0 529.0,492.0" fill="none" stroke="black" stroke-width="2" /><path d="M150.0,500.0 Q562.0,506.0 480.0,133.0" fill="none" stroke="black" stroke-width="2" /></svg>