<?xml version="1.0" encoding="utf-8" ?>
<svg baseProfile="tiny" height="100%" version="1.2" viewBox="0,0,500,500" width="100%" xmlns="http://www.w3.org/2000/svg" xmlns:ev="http://www.w3.org/2001/xml-events" xmlns:xlink="http://www.w3.org/1999/xlink"><defs /><circle cx="110.0" cy="110.0" fill="black" r="3" /><circle cx="110.0" cy="85.0" fill="black" r="3" /><circle cx="110.0" cy="135.0" fill="black" r="3" /><circle cx="85.0" cy="110.0" fill="black" r="3" /><circle cx="135.0" cy="110.0" fill="black" r="3" /><circle cx="95.0" cy="95.0" fill="black" r="3" /><circle cx="95.0" cy="125.0" fill="black" r="3" /><circle cx="125.0" cy="95.0" fill="black" r="3" /><circle cx="125.0" cy="125.0" fill="black" r="3" /><circle cx="110.0" cy="60.0" fill="black" r="3" /><circle cx="110.0" cy="160.0" fill="black" r="3" /><circle cx="60.0" cy="110.0" fill="black" r="3" /><circle cx="160.0" cy="110.0" fill="black" r="3" /><circle cx="75.0" cy="75.0" fill="black" r="3" /><circle cx="75.0" cy="145.0" fill="black" r="3" /><circle cx="145.0" cy="75.0" fill="black" r="3" /><circle cx="145.0" cy="145.0" fill="black" r="3" /><circle cx="110.0" cy="40.0" fill="black" r="3" /><circle cx="110.0" cy="180.0" fill="black" r="3" /><circle cx="40.0" cy="110.0" fill="black" r="3" /><circle cx="180.0" cy="110.0" fill="black" r="3" /><circle cx="55.0" cy="55.0" fill="black" r="3" /><circle cx="55.0" cy="165.0" fill="black" r="3" /><circle cx="165.0" cy="55.0" fill="black" r="3" /><circle cx="165.0" cy="165.0" fill="black" r="3" /><line stroke="black" stroke-width="2" x1="110.0" x2="110.0" y1="110.0" y2="85.0" /><line stroke="black" stroke-width="2" x1="110.0" x2="110.0" y1="110.0" y2="135.0" /><line stroke="black" stroke-width="2" x1="110.0" x2="85.0" y1="110.0" y2="110.0" /><line stroke="black" stroke-width="2" x1="110.0" x2="135.0" y1="110.0" y2="110.0" /><line stroke="black" stroke-width="2" x1="110.0" x2="85.0" y1="85.0" y2="110.0" /><line stroke="black" stroke-width="2" x1="110.0" x2="135.0" y1="85.0" y2="110.0" /><line stroke="black" stroke-width="2" x1="110.0" x2="85.0" y1="135.0" y2="110.0" /><line stroke="black" stroke-width="2" x1="110.0" x2="135.0" y1="135.0" y2="110.0" /><line stroke="black" stroke-width="2" x1="95.0" x2="125.0" y1="95.0" y2="95.0" /><line stroke="black" stroke-width="2" x1="125.0" x2="125.0" y1="95.0" y2="125.0" /><line stroke="black" stroke-width="2" x1="125.0" x2="95.0" y1="125.0" y2="125.0" /><line stroke="black" stroke-width="2" x1="95.0" x2="95.0" y1="125.0" y2="95.0" /><line stroke="black" stroke-width="2" x1="110.0" x2="110.0" y1="85.0" y2="60.0" /><line stroke="black" stroke-width="2" x1="110.0" x2="110.0" y1="135.0" y2="160.0" /><line stroke="black" stroke-width="2" x1="85.0" x2="60.0" y1="110.0" y2="110.0" /><line stroke="black" stroke-width="2" x1="135.0" x2="160.0" y1="110.0" y2="110.0" /><line stroke="black" stroke-width="2" x1="95.0" x2="75.0" y1="95.0" y2="75.0" /><line stroke="black" stroke-width="2" x1="95.0" x2="75.0" y1="125.0" y2="145.0" /><line stroke="black" stroke-width="2" x1="125.0" x2="145.0" y1="95.0" y2="75.0" /><line stroke="black" stroke-width="2" x1="125.0" x2="145.0" y1="125.0" y2="145.0" /><path d="M75.0,75.0 Q85.0,40.0 110.0,40.0" fill="none" stroke="black" stroke-width="2" /><path d="M110.0,40.0 Q135.0,40.0 145.0,75.0" fill="none" stroke="black" stroke-width="2" /><path d="M75.0,75.0 Q95.0,80.0 110.0,60.0" fill="none" stroke="black" stroke-width="2" /><path d="M110.0,60.0 Q125.0,80.0 145.0,75.0" fill="none" stroke="black" stroke-width="2" /><path d="M145.0,75.0 Q180.0,95.0 180.0,110.0" fill="none" stroke="black" stroke-width="2" /><path d="M180.0,110.0 Q180.0,125.0 145.0,145.0" fill="none" stroke="black" stroke-width="2" /><path d="M145.0,75.0 Q140.0,95.0 160.0,110.0" fill="none" stroke="black" stroke-width="2" /><path d="M160.0,110.0 Q140.0,125.0 145.0,145.0" fill="none" stroke="black" stroke-width="2" /><path d="M145.0,145.0 Q135.0,180.0 110.0,180.0" fill="none" stroke="black" stroke-width="2" /><path d="M110.0,180.0 Q85.0,180.0 75.0,145.0" fill="none" stroke="black" stroke-width="2" /><path d="M145.0,145.0 Q125.0,140.0 110.0,160.0" fill="none" stroke="black" stroke-width="2" /><path d="M110.0,160.0 Q95.0,140.0 75.0,145.0" fill="none" stroke="black" stroke-width="2" /><path d="M75.0,145.0 Q40.0,125.0 40.0,110.0" fill="none" stroke="black" stroke-width="2" /><path d="M40.0,110.0 Q40.0,95.0 75.0,75.0" fill="none" stroke="black" stroke-width="2" /><path d="M75.0,145.0 Q80.0,125.0 60.0,110.0" fill="none" stroke="black" stroke-width="2" /><path d="M60.0,110.0 Q80.0,95.0 75.0,75.0" fill="none" stroke="black" stroke-width="2" /><path d="M110.0,60.0 Q60.0,40.0 55.0,55.0" fill="none" stroke="black" stroke-width="2" /><path d="M55.0,55.0 Q40.0,70.0 60.0,110.0" fill="none" stroke="black" stroke-width="2" /><path d="M110.0,60.0 Q100.0,70.0 75.0,75.0" fill="none" stroke="black" stroke-width="2" /><path d="M75.0,75.0 Q80.0,100.0 60.0,110.0" fill="none" stroke="black" stroke-width="2" /><path d="M110.0,60.0 Q160.0,40.0 165.0,55.0" fill="none" stroke="black" stroke-width="2" /><path d="M165.0,55.0 Q180.0,70.0 160.0,110.0" fill="none" stroke="black" stroke-width="2" /><path d="M110.0,60.0 Q120.0,70.0 145.0,75.0" fill="none" stroke="black" stroke-width="2" /><path d="M145.0,75.0 Q140.0,100.0 160.0,110.0" fill="none" stroke="black" stroke-width="2" /><path d="M110.0,160.0 Q60.0,180.0 55.0,165.0" fill="none" stroke="black" stroke-width="2" /><path d="M55.0,165.0 Q40.0,150.0 60.0,110.0" fill="none" stroke="black" stroke-width="2" /><path d="M110.0,160.0 Q100.0,150.0 75.0,145.0" fill="none" stroke="black" stroke-width="2" /><path d="M75.0,145.0 Q80.0,120.0 60.0,110.0" fill="none" stroke="black" stroke-width="2" /><path d="M110.0,160.0 Q160.0,180.0 165.0,165.0" fill="none" stroke="black" stroke-width="2" /><path d="M165.0,165.0 Q180.0,150.0 160.0,110.0" fill="none" stroke="black" stroke-width="2" /><path d="M110.0,160.0 Q120.0,150.0 145.0,145.0" fill="none" stroke="black" stroke-width="2" /><path d="M145.0,145.0 Q140.0,120.0 160.0,110.0" fill="none" stroke="black" stroke-width="2" /></svg>