<?xml version="1.0" encoding="utf-8" ?>
<svg baseProfile="tiny" height="100%" version="1.2" viewBox="0,0,500,500" width="100%" xmlns="http://www.w3.org/2000/svg" xmlns:ev="http://www.w3.org/2001/xml-events" xmlns:xlink="http://www.w3.org/1999/xlink"><defs /><circle cx="175.0" cy="175.0" fill="black" r="3" /><circle cx="205.0" cy="175.0" fill="black" r="3" /><circle cx="196.0" cy="196.0" fill="black" r="3" /><circle cx="175.0" cy="205.0" fill="black" r="3" /><circle cx="154.0" cy="196.0" fill="black" r="3" /><circle cx="145.0" cy="175.0" fill="black" r="3" /><circle cx="154.0" cy="154.0" fill="black" r="3" /><circle cx="175.0" cy="145.0" fill="black" r="3" /><circle cx="196.0" cy="154.0" fill="black" r="3" /><circle cx="245.0" cy="175.0" fill="black" r="3" /><circle cx="225.0" cy="225.0" fill="black" r="3" /><circle cx="175.0" cy="245.0" fill="black" r="3" /><circle cx="125.0" cy="225.0" fill="black" r="3" /><circle cx="105.0" cy="175.0" fill="black" r="3" /><circle cx="125.0" cy="125.0" fill="black" r="3" /><circle cx="175.0" cy="105.0" fill="black" r="3" /><circle cx="225.0" cy="125.0" fill="black" r="3" /><circle cx="295.0" cy="175.0" fill="black" r="3" /><circle cx="260.0" cy="260.0" fill="black" r="3" /><circle cx="175.0" cy="295.0" fill="black" r="3" /><circle cx="90.0" cy="260.0" fill="black" r="3" /><circle cx="55.0" cy="175.0" fill="black" r="3" /><circle cx="90.0" cy="90.0" fill="black" r="3" /><circle cx="175.0" cy="55.0" fill="black" r="3" /><circle cx="260.0" cy="90.0" fill="black" r="3" /><line stroke="black" stroke-width="2" x1="175.0" x2="205.0" y1="175.0" y2="175.0" /><line stroke="black" stroke-width="2" x1="175.0" x2="196.0" y1="175.0" y2="196.0" /><line stroke="black" stroke-width="2" x1="175.0" x2="175.0" y1="175.0" y2="205.0" /><line stroke="black" stroke-width="2" x1="175.0" x2="154.0" y1="175.0" y2="196.0" /><line stroke="black" stroke-width="2" x1="175.0" x2="145.0" y1="175.0" y2="175.0" /><line stroke="black" stroke-width="2" x1="175.0" x2="154.0" y1="175.0" y2="154.0" /><line stroke="black" stroke-width="2" x1="175.0" x2="175.0" y1="175.0" y2="145.0" /><line stroke="black" stroke-width="2" x1="175.0" x2="196.0" y1="175.0" y2="154.0" /><path d="M205.0,175.0 Q221.0,194.0 196.0,196.0" fill="none" stroke="black" stroke-width="2" /><path d="M196.0,196.0 Q194.0,221.0 175.0,205.0" fill="none" stroke="black" stroke-width="2" /><path d="M175.0,205.0 Q156.0,221.0 154.0,196.0" fill="none" stroke="black" stroke-width="2" /><path d="M154.0,196.0 Q129.0,194.0 145.0,175.0" fill="none" stroke="black" stroke-width="2" /><path d="M145.0,175.0 Q129.0,156.0 154.0,154.0" fill="none" stroke="black" stroke-width="2" /><path d="M154.0,154.0 Q156.0,129.0 175.0,145.0" fill="none" stroke="black" stroke-width="2" /><path d="M175.0,145.0 Q194.0,129.0 196.0,154.0" fill="none" stroke="black" stroke-width="2" /><path d="M196.0,154.0 Q221.0,156.0 205.0,175.0" fill="none" stroke="black" stroke-width="2" /><line stroke="black" stroke-width="2" x1="245.0" x2="295.0" y1="175.0" y2="175.0" /><line stroke="black" stroke-width="2" x1="225.0" x2="260.0" y1="225.0" y2="260.0" /><line stroke="black" stroke-width="2" x1="175.0" x2="175.0" y1="245.0" y2="295.0" /><line stroke="black" stroke-width="2" x1="125.0" x2="90.0" y1="225.0" y2="260.0" /><line stroke="black" stroke-width="2" x1="105.0" x2="55.0" y1="175.0" y2="175.0" /><line stroke="black" stroke-width="2" x1="125.0" x2="90.0" y1="125.0" y2="90.0" /><line stroke="black" stroke-width="2" x1="175.0" x2="175.0" y1="105.0" y2="55.0" /><line stroke="black" stroke-width="2" x1="225.0" x2="260.0" y1="125.0" y2="90.0" /><path d="M295.0,175.0 Q304.0,229.0 260.0,260.0" fill="none" stroke="black" stroke-width="2" /><path d="M260.0,260.0 Q229.0,304.0 175.0,295.0" fill="none" stroke="black" stroke-width="2" /><path d="M175.0,295.0 Q121.0,304.0 90.0,260.0" fill="none" stroke="black" stroke-width="2" /><path d="M90.0,260.0 Q96.0,229.0 55.0,175.0" fill="none" stroke="black" stroke-width="2" /><path d="M55.0,175.0 Q96.0,121.0 90.0,90.0" fill="none" stroke="black" stroke-width="2" /><path d="M90.0,90.0 Q121.0,96.0 175.0,55.0" fill="none" stroke="black" stroke-width="2" /><path d="M175.0,55.0 Q229.0,96.0 260.0,90.0" fill="none" stroke="black" stroke-width="2" /><path d="M260.0,90.0 Q304.0,121.0 295.0,175.0" fill="none" stroke="black" stroke-width="2" /></svg>