<?xml version="1.0" encoding="utf-8" ?>
<svg baseProfile="tiny" height="100%" version="1.2" viewBox="0,0,500,500" width="100%" xmlns="http://www.w3.org/2000/svg" xmlns:ev="http://www.w3.org/2001/xml-events" xmlns:xlink="http://www.w3.org/1999/xlink"><defs /><circle cx="245.0" cy="135.0" fill="black" r="3" /><circle cx="173.0" cy="62.0" fill="black" r="3" /><circle cx="49.0" cy="178.0" fill="black" r="3" /><circle cx="150.0" cy="230.0" fill="black" r="3" /><circle cx="173.0" cy="206.0" fill="black" r="3" /><circle cx="221.0" cy="159.0" fill="black" r="3" /><circle cx="94.0" cy="229.0" fill="black" r="3" /><circle cx="145.0" cy="186.0" fill="black" r="3" /><circle cx="126.0" cy="159.0" fill="black" r="3" /><circle cx="173.0" cy="159.0" fill="black" r="3" /><circle cx="216.0" cy="210.0" fill="black" r="3" /><circle cx="194.0" cy="83.0" fill="black" r="3" /><circle cx="293.0" cy="183.0" fill="black" r="3" /><circle cx="197.0" cy="183.0" fill="black" r="3" /><circle cx="192.0" cy="131.0" fill="black" r="3" /><circle cx="121.0" cy="210.0" fill="black" r="3" /><circle cx="150.0" cy="136.0" fill="black" r="3" /><circle cx="168.0" cy="305.0" fill="black" r="3" /><circle cx="197.0" cy="229.0" fill="black" r="3" /><circle cx="144.0" cy="83.0" fill="black" r="3" /><circle cx="98.0" cy="140.0" fill="black" r="3" /><circle cx="173.0" cy="253.0" fill="black" r="3" /><circle cx="169.0" cy="117.0" fill="black" r="3" /><circle cx="264.0" cy="202.0" fill="black" r="3" /><circle cx="236.0" cy="230.0" fill="black" r="3" /><circle cx="144.0" cy="281.0" fill="black" r="3" /><circle cx="240.0" cy="186.0" fill="black" r="3" /><circle cx="98.0" cy="178.0" fill="black" r="3" /><circle cx="197.0" cy="277.0" fill="black" r="3" /><circle cx="264.0" cy="154.0" fill="black" r="3" /><circle cx="74.0" cy="203.0" fill="black" r="3" /><circle cx="74.0" cy="155.0" fill="black" r="3" /><circle cx="172.0" cy="31.0" fill="black" r="3" /><circle cx="313.0" cy="180.0" fill="black" r="3" /><circle cx="57.0" cy="220.0" fill="black" r="3" /><circle cx="218.0" cy="89.0" fill="black" r="3" /><circle cx="75.0" cy="184.0" fill="black" r="3" /><circle cx="123.0" cy="278.0" fill="black" r="3" /><circle cx="75.0" cy="227.0" fill="black" r="3" /><circle cx="265.0" cy="137.0" fill="black" r="3" /><circle cx="265.0" cy="184.0" fill="black" r="3" /><circle cx="123.0" cy="89.0" fill="black" r="3" /><circle cx="218.0" cy="278.0" fill="black" r="3" /><circle cx="170.0" cy="184.0" fill="black" r="3" /><circle cx="207.0" cy="260.0" fill="black" r="3" /><circle cx="170.0" cy="231.0" fill="black" r="3" /><circle cx="265.0" cy="227.0" fill="black" r="3" /><circle cx="170.0" cy="326.0" fill="black" r="3" /><circle cx="75.0" cy="137.0" fill="black" r="3" /><circle cx="76.0" cy="247.0" fill="black" r="3" /><circle cx="170.0" cy="137.0" fill="black" r="3" /><circle cx="183.0" cy="313.0" fill="black" r="3" /><circle cx="122.0" cy="123.0" fill="black" r="3" /><circle cx="30.0" cy="166.0" fill="black" r="3" /><circle cx="281.0" cy="220.0" fill="black" r="3" /><circle cx="170.0" cy="278.0" fill="black" r="3" /><circle cx="122.0" cy="241.0" fill="black" r="3" /><circle cx="205.0" cy="102.0" fill="black" r="3" /><circle cx="27.0" cy="194.0" fill="black" r="3" /><circle cx="56.0" cy="144.0" fill="black" r="3" /><circle cx="264.0" cy="243.0" fill="black" r="3" /><circle cx="170.0" cy="90.0" fill="black" r="3" /><circle cx="301.0" cy="167.0" fill="black" r="3" /><circle cx="124.0" cy="293.0" fill="black" r="3" /><circle cx="263.0" cy="116.0" fill="black" r="3" /><circle cx="218.0" cy="231.0" fill="black" r="3" /><circle cx="218.0" cy="137.0" fill="black" r="3" /><circle cx="218.0" cy="184.0" fill="black" r="3" /><circle cx="123.0" cy="184.0" fill="black" r="3" /><circle cx="82.0" cy="118.0" fill="black" r="3" /><circle cx="57.0" cy="122.0" fill="black" r="3" /><circle cx="109.0" cy="285.0" fill="black" r="3" /><circle cx="186.0" cy="41.0" fill="black" r="3" /><circle cx="204.0" cy="120.0" fill="black" r="3" /><circle cx="282.0" cy="239.0" fill="black" r="3" /><circle cx="153.0" cy="48.0" fill="black" r="3" /><circle cx="154.0" cy="331.0" fill="black" r="3" /><circle cx="130.0" cy="261.0" fill="black" r="3" /><circle cx="133.0" cy="101.0" fill="black" r="3" /><circle cx="206.0" cy="292.0" fill="black" r="3" /><circle cx="131.0" cy="72.0" fill="black" r="3" /><circle cx="226.0" cy="244.0" fill="black" r="3" /><circle cx="106.0" cy="123.0" fill="black" r="3" /><circle cx="113.0" cy="76.0" fill="black" r="3" /><circle cx="280.0" cy="143.0" fill="black" r="3" /><circle cx="208.0" cy="244.0" fill="black" r="3" /><circle cx="13.0" cy="177.0" fill="black" r="3" /><circle cx="301.0" cy="197.0" fill="black" r="3" /><circle cx="223.0" cy="118.0" fill="black" r="3" /><circle cx="281.0" cy="127.0" fill="black" r="3" /><circle cx="153.0" cy="314.0" fill="black" r="3" /><circle cx="108.0" cy="91.0" fill="black" r="3" /><circle cx="217.0" cy="72.0" fill="black" r="3" /><circle cx="202.0" cy="148.0" fill="black" r="3" /><circle cx="62.0" cy="235.0" fill="black" r="3" /><circle cx="138.0" cy="240.0" fill="black" r="3" /><circle cx="184.0" cy="289.0" fill="black" r="3" /><circle cx="61.0" cy="191.0" fill="black" r="3" /><circle cx="110.0" cy="267.0" fill="black" r="3" /><circle cx="279.0" cy="195.0" fill="black" r="3" /><line stroke="black" stroke-width="2" x1="56.0" x2="197.0" y1="144.0" y2="277.0" /><line stroke="black" stroke-width="2" x1="126.0" x2="217.0" y1="159.0" y2="72.0" /><line stroke="black" stroke-width="2" x1="124.0" x2="216.0" y1="293.0" y2="210.0" /><line stroke="black" stroke-width="2" x1="153.0" x2="301.0" y1="314.0" y2="167.0" /><line stroke="black" stroke-width="2" x1="62.0" x2="217.0" y1="235.0" y2="72.0" /><line stroke="black" stroke-width="2" x1="131.0" x2="240.0" y1="72.0" y2="186.0" /><line stroke="black" stroke-width="2" x1="76.0" x2="204.0" y1="247.0" y2="120.0" /><line stroke="black" stroke-width="2" x1="122.0" x2="264.0" y1="123.0" y2="243.0" /><line stroke="black" stroke-width="2" x1="56.0" x2="206.0" y1="144.0" y2="292.0" /><line stroke="black" stroke-width="2" x1="82.0" x2="208.0" y1="118.0" y2="244.0" /><line stroke="black" stroke-width="2" x1="30.0" x2="75.0" y1="166.0" y2="227.0" /><line stroke="black" stroke-width="2" x1="131.0" x2="281.0" y1="72.0" y2="220.0" /><line stroke="black" stroke-width="2" x1="124.0" x2="280.0" y1="293.0" y2="143.0" /><line stroke="black" stroke-width="2" x1="226.0" x2="279.0" y1="244.0" y2="195.0" /><line stroke="black" stroke-width="2" x1="153.0" x2="205.0" y1="48.0" y2="102.0" /><line stroke="black" stroke-width="2" x1="223.0" x2="301.0" y1="118.0" y2="197.0" /><line stroke="black" stroke-width="2" x1="30.0" x2="122.0" y1="166.0" y2="241.0" /><line stroke="black" stroke-width="2" x1="138.0" x2="263.0" y1="240.0" y2="116.0" /><line stroke="black" stroke-width="2" x1="122.0" x2="263.0" y1="241.0" y2="116.0" /><line stroke="black" stroke-width="2" x1="49.0" x2="106.0" y1="178.0" y2="123.0" /><line stroke="black" stroke-width="2" x1="27.0" x2="49.0" y1="194.0" y2="178.0" /><line stroke="black" stroke-width="2" x1="173.0" x2="301.0" y1="62.0" y2="197.0" /><line stroke="black" stroke-width="2" x1="82.0" x2="145.0" y1="118.0" y2="186.0" /><line stroke="black" stroke-width="2" x1="98.0" x2="208.0" y1="140.0" y2="244.0" /><line stroke="black" stroke-width="2" x1="27.0" x2="106.0" y1="194.0" y2="123.0" /><line stroke="black" stroke-width="2" x1="122.0" x2="183.0" y1="241.0" y2="313.0" /><line stroke="black" stroke-width="2" x1="27.0" x2="74.0" y1="194.0" y2="155.0" /><line stroke="black" stroke-width="2" x1="192.0" x2="281.0" y1="131.0" y2="220.0" /><line stroke="black" stroke-width="2" x1="133.0" x2="186.0" y1="101.0" y2="41.0" /><line stroke="black" stroke-width="2" x1="94.0" x2="183.0" y1="229.0" y2="313.0" /><line stroke="black" stroke-width="2" x1="57.0" x2="126.0" y1="220.0" y2="159.0" /><line stroke="black" stroke-width="2" x1="131.0" x2="192.0" y1="72.0" y2="131.0" /><line stroke="black" stroke-width="2" x1="264.0" x2="301.0" y1="202.0" y2="167.0" /><line stroke="black" stroke-width="2" x1="153.0" x2="223.0" y1="48.0" y2="118.0" /><line stroke="black" stroke-width="2" x1="240.0" x2="280.0" y1="186.0" y2="143.0" /><line stroke="black" stroke-width="2" x1="216.0" x2="280.0" y1="210.0" y2="143.0" /><line stroke="black" stroke-width="2" x1="154.0" x2="207.0" y1="331.0" y2="260.0" /><line stroke="black" stroke-width="2" x1="145.0" x2="223.0" y1="186.0" y2="118.0" /><line stroke="black" stroke-width="2" x1="145.0" x2="204.0" y1="186.0" y2="120.0" /><line stroke="black" stroke-width="2" x1="202.0" x2="281.0" y1="148.0" y2="220.0" /><line stroke="black" stroke-width="2" x1="194.0" x2="301.0" y1="83.0" y2="197.0" /><line stroke="black" stroke-width="2" x1="265.0" x2="301.0" y1="227.0" y2="167.0" /><line stroke="black" stroke-width="2" x1="61.0" x2="122.0" y1="191.0" y2="241.0" /><line stroke="black" stroke-width="2" x1="173.0" x2="208.0" y1="206.0" y2="244.0" /><line stroke="black" stroke-width="2" x1="76.0" x2="145.0" y1="247.0" y2="186.0" /><line stroke="black" stroke-width="2" x1="57.0" x2="217.0" y1="220.0" y2="72.0" /><line stroke="black" stroke-width="2" x1="82.0" x2="126.0" y1="118.0" y2="159.0" /><line stroke="black" stroke-width="2" x1="206.0" x2="218.0" y1="292.0" y2="231.0" /><line stroke="black" stroke-width="2" x1="49.0" x2="74.0" y1="178.0" y2="155.0" /><line stroke="black" stroke-width="2" x1="144.0" x2="168.0" y1="281.0" y2="305.0" /><line stroke="black" stroke-width="2" x1="170.0" x2="173.0" y1="326.0" y2="206.0" /><line stroke="black" stroke-width="2" x1="153.0" x2="207.0" y1="314.0" y2="260.0" /><line stroke="black" stroke-width="2" x1="218.0" x2="217.0" y1="137.0" y2="72.0" /><line stroke="black" stroke-width="2" x1="122.0" x2="121.0" y1="241.0" y2="210.0" /><line stroke="black" stroke-width="2" x1="144.0" x2="173.0" y1="83.0" y2="62.0" /><line stroke="black" stroke-width="2" x1="122.0" x2="113.0" y1="123.0" y2="76.0" /><line stroke="black" stroke-width="2" x1="94.0" x2="138.0" y1="229.0" y2="240.0" /><line stroke="black" stroke-width="2" x1="264.0" x2="263.0" y1="154.0" y2="116.0" /><line stroke="black" stroke-width="2" x1="76.0" x2="122.0" y1="247.0" y2="241.0" /><line stroke="black" stroke-width="2" x1="124.0" x2="122.0" y1="293.0" y2="241.0" /><line stroke="black" stroke-width="2" x1="144.0" x2="183.0" y1="281.0" y2="313.0" /><line stroke="black" stroke-width="2" x1="74.0" x2="122.0" y1="155.0" y2="123.0" /><line stroke="black" stroke-width="2" x1="122.0" x2="123.0" y1="123.0" y2="89.0" /><line stroke="black" stroke-width="2" x1="153.0" x2="172.0" y1="48.0" y2="31.0" /><line stroke="black" stroke-width="2" x1="172.0" x2="173.0" y1="31.0" y2="62.0" /><line stroke="black" stroke-width="2" x1="173.0" x2="186.0" y1="62.0" y2="41.0" /><line stroke="black" stroke-width="2" x1="153.0" x2="154.0" y1="314.0" y2="331.0" /><line stroke="black" stroke-width="2" x1="154.0" x2="168.0" y1="331.0" y2="305.0" /><line stroke="black" stroke-width="2" x1="168.0" x2="170.0" y1="305.0" y2="326.0" /><line stroke="black" stroke-width="2" x1="170.0" x2="183.0" y1="326.0" y2="313.0" /><line stroke="black" stroke-width="2" x1="30.0" x2="13.0" y1="166.0" y2="177.0" /><line stroke="black" stroke-width="2" x1="13.0" x2="27.0" y1="177.0" y2="194.0" /><line stroke="black" stroke-width="2" x1="281.0" x2="280.0" y1="127.0" y2="143.0" /><line stroke="black" stroke-width="2" x1="280.0" x2="301.0" y1="143.0" y2="167.0" /><line stroke="black" stroke-width="2" x1="301.0" x2="313.0" y1="167.0" y2="180.0" /><line stroke="black" stroke-width="2" x1="313.0" x2="293.0" y1="180.0" y2="183.0" /><line stroke="black" stroke-width="2" x1="293.0" x2="301.0" y1="183.0" y2="197.0" /><line stroke="black" stroke-width="2" x1="301.0" x2="281.0" y1="197.0" y2="220.0" /><line stroke="black" stroke-width="2" x1="281.0" x2="282.0" y1="220.0" y2="239.0" /><path d="M57.0,122.0 Q0.0,364.0 282.0,239.0" fill="none" stroke="black" stroke-width="2" /><path d="M109.0,285.0 Q334.0,364.0 263.0,116.0" fill="none" stroke="black" stroke-width="2" /></svg>