<?xml version="1.0" encoding="utf-8" ?>
<svg baseProfile="tiny" height="100%" version="1.2" viewBox="0,0,500,500" width="100%" xmlns="http://www.w3.org/2000/svg" xmlns:ev="http://www.w3.org/2001/xml-events" xmlns:xlink="http://www.w3.org/1999/xlink"><defs /><circle cx="200.0" cy="200.0" fill="black" r="3" /><circle cx="200.0" cy="160.0" fill="black" r="3" /><circle cx="240.0" cy="200.0" fill="black" r="3" /><circle cx="200.0" cy="240.0" fill="black" r="3" /><circle cx="160.0" cy="200.0" fill="black" r="3" /><circle cx="160.0" cy="160.0" fill="black" r="3" /><circle cx="240.0" cy="160.0" fill="black" r="3" /><circle cx="240.0" cy="240.0" fill="black" r="3" /><circle cx="160.0" cy="240.0" fill="black" r="3" /><circle cx="200.0" cy="120.0" fill="black" r="3" /><circle cx="280.0" cy="200.0" fill="black" r="3" /><circle cx="200.0" cy="280.0" fill="black" r="3" /><circle cx="120.0" cy="200.0" fill="black" r="3" /><circle cx="120.0" cy="120.0" fill="black" r="3" /><circle cx="280.0" cy="120.0" fill="black" r="3" /><circle cx="280.0" cy="280.0" fill="black" r="3" /><circle cx="120.0" cy="280.0" fill="black" r="3" /><line stroke="black" stroke-width="2" x1="200.0" x2="200.0" y1="200.0" y2="160.0" /><line stroke="black" stroke-width="2" x1="200.0" x2="240.0" y1="200.0" y2="200.0" /><line stroke="black" stroke-width="2" x1="200.0" x2="200.0" y1="200.0" y2="240.0" /><line stroke="black" stroke-width="2" x1="200.0" x2="160.0" y1="200.0" y2="200.0" /><line stroke="black" stroke-width="2" x1="200.0" x2="160.0" y1="200.0" y2="160.0" /><line stroke="black" stroke-width="2" x1="200.0" x2="240.0" y1="200.0" y2="160.0" /><line stroke="black" stroke-width="2" x1="200.0" x2="240.0" y1="200.0" y2="240.0" /><line stroke="black" stroke-width="2" x1="200.0" x2="160.0" y1="200.0" y2="240.0" /><line stroke="black" stroke-width="2" x1="200.0" x2="240.0" y1="160.0" y2="200.0" /><line stroke="black" stroke-width="2" x1="240.0" x2="200.0" y1="200.0" y2="240.0" /><line stroke="black" stroke-width="2" x1="200.0" x2="160.0" y1="240.0" y2="200.0" /><line stroke="black" stroke-width="2" x1="160.0" x2="200.0" y1="200.0" y2="160.0" /><path d="M200.0,160.0 Q220.0,100.0 240.0,160.0" fill="none" stroke="black" stroke-width="2" /><path d="M240.0,160.0 Q280.0,180.0 240.0,200.0" fill="none" stroke="black" stroke-width="2" /><path d="M240.0,200.0 Q280.0,220.0 240.0,240.0" fill="none" stroke="black" stroke-width="2" /><path d="M240.0,240.0 Q220.0,280.0 200.0,240.0" fill="none" stroke="black" stroke-width="2" /><path d="M200.0,240.0 Q180.0,280.0 160.0,240.0" fill="none" stroke="black" stroke-width="2" /><path d="M160.0,240.0 Q120.0,220.0 160.0,200.0" fill="none" stroke="black" stroke-width="2" /><path d="M160.0,200.0 Q120.0,180.0 160.0,160.0" fill="none" stroke="black" stroke-width="2" /><path d="M160.0,160.0 Q180.0,120.0 200.0,160.0" fill="none" stroke="black" stroke-width="2" /><line stroke="black" stroke-width="2" x1="200.0" x2="200.0" y1="120.0" y2="280.0" /><line stroke="black" stroke-width="2" x1="120.0" x2="280.0" y1="200.0" y2="200.0" /><path d="M200.0,120.0 Q160.0,80.0 120.0,120.0" fill="none" stroke="black" stroke-width="2" /><path d="M200.0,120.0 Q240.0,80.0 280.0,120.0" fill="none" stroke="black" stroke-width="2" /><path d="M280.0,200.0 Q320.0,160.0 280.0,120.0" fill="none" stroke="black" stroke-width="2" /><path d="M280.0,200.0 Q320.0,240.0 280.0,280.0" fill="none" stroke="black" stroke-width="2" /><path d="M200.0,280.0 Q240.0,320.0 280.0,280.0" fill="none" stroke="black" stroke-width="2" /><path d="M200.0,280.0 Q160.0,320.0 120.0,280.0" fill="none" stroke="black" stroke-width="2" /><path d="M120.0,200.0 Q80.0,240.0 120.0,280.0" fill="none" stroke="black" stroke-width="2" /><path d="M120.0,200.0 Q80.0,160.0 120.0,120.0" fill="none" stroke="black" stroke-width="2" /><line stroke="black" stroke-width="2" x1="120.0" x2="280.0" y1="120.0" y2="280.0" /><line stroke="black" stroke-width="2" x1="280.0" x2="120.0" y1="120.0" y2="280.0" /></svg>